0
SECTION
2
HEADER
9
$INSUNITS
70
4
0
ENDSEC
0
SECTION
2
TABLES
0
TABLE
2
LTYPE
0
LTYPE
72
65
70
64
2
CONTINUOUS
3
______
73
0
40
0
0
ENDTAB
0
TABLE
2
LAYER
0
ENDTAB
0
ENDSEC
0
SECTION
2
ENTITIES
0
LINE
8
0
10
-8
20
8.5
11
8
21
8.5
0
ARC
8
0
10
8
20
9.5
40
1
50
270
51
360
0
ARC
8
0
10
8
20
24.5
40
1
50
0
51
90
0
ARC
8
0
10
-8
20
24.5
40
1
50
90
51
180
0
LINE
8
0
10
-9
20
24.5
11
-9
21
9.5
0
ARC
8
0
10
-8
20
9.5
40
1
50
180
51
270
0
ARC
8
0
10
8
20
26.5
40
1
50
270
51
360
0
ARC
8
0
10
8
20
41.5
40
1
50
0
51
90
0
ARC
8
0
10
-8
20
41.5
40
1
50
90
51
180
0
LINE
8
0
10
-9
20
41.5
11
-9
21
26.5
0
ARC
8
0
10
-8
20
26.5
40
1
50
180
51
270
0
ARC
8
0
10
8
20
43.5
40
1
50
270
51
360
0
ARC
8
0
10
8
20
58.5
40
1
50
0
51
90
0
ARC
8
0
10
-8
20
58.5
40
1
50
90
51
180
0
LINE
8
0
10
-9
20
58.5
11
-9
21
43.5
0
ARC
8
0
10
-8
20
43.5
40
1
50
180
51
270
0
ARC
8
0
10
8
20
60.5
40
1
50
270
51
360
0
ARC
8
0
10
8
20
75.5
40
1
50
0
51
90
0
LINE
8
0
10
8
20
76.5
11
-8
21
76.5
0
ARC
8
0
10
-8
20
75.5
40
1
50
90
51
180
0
LINE
8
0
10
-9
20
75.5
11
-9
21
60.5
0
ARC
8
0
10
-8
20
60.5
40
1
50
180
51
270
0
LINE
8
0
10
10
20
8.5
11
26
21
8.5
0
ARC
8
0
10
26
20
9.5
40
1
50
270
51
360
0
ARC
8
0
10
26
20
24.5
40
1
50
0
51
90
0
ARC
8
0
10
10
20
24.5
40
1
50
90
51
180
0
ARC
8
0
10
10
20
9.5
40
1
50
180
51
270
0
ARC
8
0
10
26
20
26.5
40
1
50
270
51
360
0
ARC
8
0
10
26
20
41.5
40
1
50
0
51
90
0
ARC
8
0
10
10
20
41.5
40
1
50
90
51
180
0
ARC
8
0
10
10
20
26.5
40
1
50
180
51
270
0
ARC
8
0
10
26
20
43.5
40
1
50
270
51
360
0
ARC
8
0
10
26
20
58.5
40
1
50
0
51
90
0
ARC
8
0
10
10
20
58.5
40
1
50
90
51
180
0
ARC
8
0
10
10
20
43.5
40
1
50
180
51
270
0
ARC
8
0
10
26
20
60.5
40
1
50
270
51
360
0
ARC
8
0
10
26
20
75.5
40
1
50
0
51
90
0
LINE
8
0
10
26
20
76.5
11
10
21
76.5
0
ARC
8
0
10
10
20
75.5
40
1
50
90
51
180
0
ARC
8
0
10
10
20
60.5
40
1
50
180
51
270
0
LINE
8
0
10
28
20
8.5
11
44
21
8.5
0
ARC
8
0
10
44
20
9.5
40
1
50
270
51
360
0
ARC
8
0
10
44
20
24.5
40
1
50
0
51
90
0
ARC
8
0
10
28
20
24.5
40
1
50
90
51
180
0
ARC
8
0
10
28
20
9.5
40
1
50
180
51
270
0
ARC
8
0
10
44
20
26.5
40
1
50
270
51
360
0
ARC
8
0
10
44
20
41.5
40
1
50
0
51
90
0
ARC
8
0
10
28
20
41.5
40
1
50
90
51
180
0
ARC
8
0
10
28
20
26.5
40
1
50
180
51
270
0
ARC
8
0
10
44
20
43.5
40
1
50
270
51
360
0
ARC
8
0
10
44
20
58.5
40
1
50
0
51
90
0
ARC
8
0
10
28
20
58.5
40
1
50
90
51
180
0
ARC
8
0
10
28
20
43.5
40
1
50
180
51
270
0
ARC
8
0
10
44
20
60.5
40
1
50
270
51
360
0
ARC
8
0
10
44
20
75.5
40
1
50
0
51
90
0
LINE
8
0
10
44
20
76.5
11
28
21
76.5
0
ARC
8
0
10
28
20
75.5
40
1
50
90
51
180
0
ARC
8
0
10
28
20
60.5
40
1
50
180
51
270
0
LINE
8
0
10
46
20
8.5
11
62
21
8.5
0
ARC
8
0
10
62
20
9.5
40
1
50
270
51
360
0
ARC
8
0
10
62
20
24.5
40
1
50
0
51
90
0
ARC
8
0
10
46
20
24.5
40
1
50
90
51
180
0
ARC
8
0
10
46
20
9.5
40
1
50
180
51
270
0
ARC
8
0
10
62
20
26.5
40
1
50
270
51
360
0
ARC
8
0
10
62
20
41.5
40
1
50
0
51
90
0
ARC
8
0
10
46
20
41.5
40
1
50
90
51
180
0
ARC
8
0
10
46
20
26.5
40
1
50
180
51
270
0
ARC
8
0
10
62
20
43.5
40
1
50
270
51
360
0
ARC
8
0
10
62
20
58.5
40
1
50
0
51
90
0
ARC
8
0
10
46
20
58.5
40
1
50
90
51
180
0
ARC
8
0
10
46
20
43.5
40
1
50
180
51
270
0
ARC
8
0
10
62
20
60.5
40
1
50
270
51
360
0
ARC
8
0
10
62
20
75.5
40
1
50
0
51
90
0
LINE
8
0
10
62
20
76.5
11
46
21
76.5
0
ARC
8
0
10
46
20
75.5
40
1
50
90
51
180
0
ARC
8
0
10
46
20
60.5
40
1
50
180
51
270
0
LINE
8
0
10
64
20
8.5
11
80
21
8.5
0
ARC
8
0
10
80
20
9.5
40
1
50
270
51
360
0
ARC
8
0
10
80
20
24.5
40
1
50
0
51
90
0
ARC
8
0
10
64
20
24.5
40
1
50
90
51
180
0
ARC
8
0
10
64
20
9.5
40
1
50
180
51
270
0
ARC
8
0
10
80
20
26.5
40
1
50
270
51
360
0
ARC
8
0
10
80
20
41.5
40
1
50
0
51
90
0
ARC
8
0
10
64
20
41.5
40
1
50
90
51
180
0
ARC
8
0
10
64
20
26.5
40
1
50
180
51
270
0
ARC
8
0
10
80
20
43.5
40
1
50
270
51
360
0
ARC
8
0
10
80
20
58.5
40
1
50
0
51
90
0
ARC
8
0
10
64
20
58.5
40
1
50
90
51
180
0
ARC
8
0
10
64
20
43.5
40
1
50
180
51
270
0
ARC
8
0
10
80
20
60.5
40
1
50
270
51
360
0
ARC
8
0
10
80
20
75.5
40
1
50
0
51
90
0
LINE
8
0
10
80
20
76.5
11
64
21
76.5
0
ARC
8
0
10
64
20
75.5
40
1
50
90
51
180
0
ARC
8
0
10
64
20
60.5
40
1
50
180
51
270
0
LINE
8
0
10
82
20
8.5
11
116
21
8.5
0
ARC
8
0
10
82
20
24.5
40
1
50
90
51
180
0
ARC
8
0
10
82
20
9.5
40
1
50
180
51
270
0
ARC
8
0
10
98
20
26.5
40
1
50
270
51
360
0
ARC
8
0
10
98
20
41.5
40
1
50
0
51
90
0
ARC
8
0
10
82
20
41.5
40
1
50
90
51
180
0
ARC
8
0
10
82
20
26.5
40
1
50
180
51
270
0
ARC
8
0
10
98
20
43.5
40
1
50
270
51
360
0
ARC
8
0
10
98
20
58.5
40
1
50
0
51
90
0
ARC
8
0
10
82
20
58.5
40
1
50
90
51
180
0
ARC
8
0
10
82
20
43.5
40
1
50
180
51
270
0
ARC
8
0
10
98
20
60.5
40
1
50
270
51
360
0
ARC
8
0
10
98
20
75.5
40
1
50
0
51
90
0
LINE
8
0
10
98
20
76.5
11
82
21
76.5
0
ARC
8
0
10
82
20
75.5
40
1
50
90
51
180
0
ARC
8
0
10
82
20
60.5
40
1
50
180
51
270
0
LINE
8
0
10
100
20
25.5
11
98
21
25.5
0
ARC
8
0
10
116
20
9.5
40
1
50
270
51
0
0
ARC
8
0
10
116
20
24.5
40
1
50
0
51
90
0
ARC
8
0
10
116
20
26.5
40
1
50
270
51
0
0
ARC
8
0
10
116
20
41.5
40
1
50
0
51
90
0
ARC
8
0
10
100
20
41.5
40
1
50
90
51
180
0
ARC
8
0
10
100
20
26.5
40
1
50
180
51
270
0
ARC
8
0
10
116
20
43.5
40
1
50
270
51
0
0
ARC
8
0
10
116
20
58.5
40
1
50
0
51
90
0
ARC
8
0
10
100
20
58.5
40
1
50
90
51
180
0
ARC
8
0
10
100
20
43.5
40
1
50
180
51
270
0
ARC
8
0
10
116
20
60.5
40
1
50
270
51
0
0
ARC
8
0
10
116
20
75.5
40
1
50
0
51
90
0
LINE
8
0
10
116
20
76.5
11
100
21
76.5
0
ARC
8
0
10
100
20
75.5
40
1
50
90
51
180
0
ARC
8
0
10
100
20
60.5
40
1
50
180
51
270
0
LINE
8
0
10
118
20
8.5
11
134
21
8.5
0
ARC
8
0
10
134
20
9.5
40
1
50
270
51
360
0
ARC
8
0
10
134
20
24.5
40
1
50
0
51
90
0
ARC
8
0
10
118
20
24.5
40
1
50
90
51
180
0
ARC
8
0
10
118
20
9.5
40
1
50
180
51
270
0
ARC
8
0
10
134
20
26.5
40
1
50
270
51
360
0
ARC
8
0
10
134
20
41.5
40
1
50
0
51
90
0
ARC
8
0
10
118
20
41.5
40
1
50
90
51
180
0
ARC
8
0
10
118
20
26.5
40
1
50
180
51
270
0
ARC
8
0
10
134
20
43.5
40
1
50
270
51
360
0
ARC
8
0
10
134
20
58.5
40
1
50
0
51
90
0
ARC
8
0
10
118
20
58.5
40
1
50
90
51
180
0
ARC
8
0
10
118
20
43.5
40
1
50
180
51
270
0
ARC
8
0
10
134
20
60.5
40
1
50
270
51
360
0
ARC
8
0
10
134
20
75.5
40
1
50
0
51
90
0
LINE
8
0
10
134
20
76.5
11
118
21
76.5
0
ARC
8
0
10
118
20
75.5
40
1
50
90
51
180
0
ARC
8
0
10
118
20
60.5
40
1
50
180
51
270
0
LINE
8
0
10
136
20
8.5
11
152
21
8.5
0
ARC
8
0
10
152
20
9.5
40
1
50
270
51
360
0
ARC
8
0
10
152
20
24.5
40
1
50
0
51
90
0
ARC
8
0
10
136
20
24.5
40
1
50
90
51
180
0
ARC
8
0
10
136
20
9.5
40
1
50
180
51
270
0
ARC
8
0
10
152
20
26.5
40
1
50
270
51
360
0
ARC
8
0
10
152
20
41.5
40
1
50
0
51
90
0
ARC
8
0
10
136
20
41.5
40
1
50
90
51
180
0
ARC
8
0
10
136
20
26.5
40
1
50
180
51
270
0
ARC
8
0
10
152
20
43.5
40
1
50
270
51
360
0
ARC
8
0
10
152
20
58.5
40
1
50
0
51
90
0
ARC
8
0
10
136
20
58.5
40
1
50
90
51
180
0
ARC
8
0
10
136
20
43.5
40
1
50
180
51
270
0
ARC
8
0
10
152
20
60.5
40
1
50
270
51
360
0
ARC
8
0
10
152
20
75.5
40
1
50
0
51
90
0
LINE
8
0
10
152
20
76.5
11
136
21
76.5
0
ARC
8
0
10
136
20
75.5
40
1
50
90
51
180
0
ARC
8
0
10
136
20
60.5
40
1
50
180
51
270
0
LINE
8
0
10
154
20
8.5
11
170
21
8.5
0
ARC
8
0
10
170
20
9.5
40
1
50
270
51
360
0
ARC
8
0
10
170
20
24.5
40
1
50
0
51
90
0
ARC
8
0
10
154
20
24.5
40
1
50
90
51
180
0
ARC
8
0
10
154
20
9.5
40
1
50
180
51
270
0
ARC
8
0
10
170
20
26.5
40
1
50
270
51
360
0
ARC
8
0
10
170
20
41.5
40
1
50
0
51
90
0
ARC
8
0
10
154
20
41.5
40
1
50
90
51
180
0
ARC
8
0
10
154
20
26.5
40
1
50
180
51
270
0
ARC
8
0
10
170
20
43.5
40
1
50
270
51
360
0
ARC
8
0
10
170
20
58.5
40
1
50
0
51
90
0
ARC
8
0
10
154
20
58.5
40
1
50
90
51
180
0
ARC
8
0
10
154
20
43.5
40
1
50
180
51
270
0
ARC
8
0
10
170
20
60.5
40
1
50
270
51
360
0
ARC
8
0
10
170
20
75.5
40
1
50
0
51
90
0
LINE
8
0
10
170
20
76.5
11
154
21
76.5
0
ARC
8
0
10
154
20
75.5
40
1
50
90
51
180
0
ARC
8
0
10
154
20
60.5
40
1
50
180
51
270
0
LINE
8
0
10
172
20
8.5
11
188
21
8.5
0
ARC
8
0
10
188
20
9.5
40
1
50
270
51
360
0
ARC
8
0
10
188
20
24.5
40
1
50
0
51
90
0
ARC
8
0
10
172
20
24.5
40
1
50
90
51
180
0
ARC
8
0
10
172
20
9.5
40
1
50
180
51
270
0
ARC
8
0
10
188
20
26.5
40
1
50
270
51
360
0
ARC
8
0
10
188
20
41.5
40
1
50
0
51
90
0
ARC
8
0
10
172
20
41.5
40
1
50
90
51
180
0
ARC
8
0
10
172
20
26.5
40
1
50
180
51
270
0
ARC
8
0
10
188
20
43.5
40
1
50
270
51
360
0
ARC
8
0
10
188
20
58.5
40
1
50
0
51
90
0
ARC
8
0
10
172
20
58.5
40
1
50
90
51
180
0
ARC
8
0
10
172
20
43.5
40
1
50
180
51
270
0
ARC
8
0
10
188
20
60.5
40
1
50
270
51
360
0
ARC
8
0
10
188
20
75.5
40
1
50
0
51
90
0
LINE
8
0
10
188
20
76.5
11
172
21
76.5
0
ARC
8
0
10
172
20
75.5
40
1
50
90
51
180
0
ARC
8
0
10
172
20
60.5
40
1
50
180
51
270
0
LINE
8
0
10
190
20
8.5
11
206
21
8.5
0
ARC
8
0
10
206
20
9.5
40
1
50
270
51
360
0
LINE
8
0
10
207
20
9.5
11
207
21
24.5
0
ARC
8
0
10
206
20
24.5
40
1
50
0
51
90
0
ARC
8
0
10
190
20
24.5
40
1
50
90
51
180
0
ARC
8
0
10
190
20
9.5
40
1
50
180
51
270
0
ARC
8
0
10
206
20
26.5
40
1
50
270
51
360
0
LINE
8
0
10
207
20
26.5
11
207
21
41.5
0
ARC
8
0
10
206
20
41.5
40
1
50
0
51
90
0
ARC
8
0
10
190
20
41.5
40
1
50
90
51
180
0
ARC
8
0
10
190
20
26.5
40
1
50
180
51
270
0
ARC
8
0
10
206
20
43.5
40
1
50
270
51
360
0
LINE
8
0
10
207
20
43.5
11
207
21
58.5
0
ARC
8
0
10
206
20
58.5
40
1
50
0
51
90
0
ARC
8
0
10
190
20
58.5
40
1
50
90
51
180
0
ARC
8
0
10
190
20
43.5
40
1
50
180
51
270
0
ARC
8
0
10
206
20
60.5
40
1
50
270
51
360
0
LINE
8
0
10
207
20
60.5
11
207
21
75.5
0
ARC
8
0
10
206
20
75.5
40
1
50
0
51
90
0
LINE
8
0
10
206
20
76.5
11
190
21
76.5
0
ARC
8
0
10
190
20
75.5
40
1
50
90
51
180
0
ARC
8
0
10
190
20
60.5
40
1
50
180
51
270
0
ENDSEC
0
EOF