0
SECTION
2
HEADER
9
$INSUNITS
70
4
0
ENDSEC
0
SECTION
2
TABLES
0
TABLE
2
LTYPE
0
LTYPE
72
65
70
64
2
CONTINUOUS
3
______
73
0
40
0
0
ENDTAB
0
TABLE
2
LAYER
0
ENDTAB
0
ENDSEC
0
SECTION
2
ENTITIES
0
LINE
8
0
10
-8
20
8.5
11
8
21
8.5
0
ARC
8
0
10
8
20
9.5
40
1
50
270
51
311.8103146
0
ARC
8
0
10
8
20
24.5
40
1
50
0
51
41.8103146
0
ARC
8
0
10
-8
20
24.5
40
1
50
138.1896854
51
180
0
LINE
8
0
10
-9
20
24.5
11
-9
21
9.5
0
ARC
8
0
10
-8
20
9.5
40
1
50
180
51
270
0
ARC
8
0
10
8
20
26.5
40
1
50
318.1896854
51
360
0
ARC
8
0
10
8
20
41.5
40
1
50
0
51
41.8103146
0
ARC
8
0
10
-8
20
41.5
40
1
50
138.1896854
51
180
0
LINE
8
0
10
-9
20
41.5
11
-9
21
26.5
0
ARC
8
0
10
-8
20
26.5
40
1
50
180
51
221.8103146
0
ARC
8
0
10
8
20
43.5
40
1
50
318.1896854
51
360
0
ARC
8
0
10
8
20
58.5
40
1
50
0
51
41.8103146
0
ARC
8
0
10
-8
20
58.5
40
1
50
138.1896854
51
180
0
LINE
8
0
10
-9
20
58.5
11
-9
21
43.5
0
ARC
8
0
10
-8
20
43.5
40
1
50
180
51
221.8103146
0
ARC
8
0
10
8
20
60.5
40
1
50
318.1896854
51
360
0
ARC
8
0
10
8
20
75.5
40
1
50
48.1896854
51
90
0
LINE
8
0
10
8
20
76.5
11
-8
21
76.5
0
ARC
8
0
10
-8
20
75.5
40
1
50
90
51
180
0
LINE
8
0
10
-9
20
75.5
11
-9
21
60.5
0
ARC
8
0
10
-8
20
60.5
40
1
50
180
51
221.8103146
0
LINE
8
0
10
10
20
8.5
11
26
21
8.5
0
ARC
8
0
10
26
20
9.5
40
1
50
270
51
311.8103146
0
ARC
8
0
10
26
20
24.5
40
1
50
0
51
41.8103146
0
ARC
8
0
10
10
20
24.5
40
1
50
138.1896854
51
180
0
ARC
8
0
10
10
20
9.5
40
1
50
228.1896854
51
270
0
ARC
8
0
10
26
20
26.5
40
1
50
318.1896854
51
360
0
ARC
8
0
10
26
20
41.5
40
1
50
0
51
41.8103146
0
ARC
8
0
10
10
20
41.5
40
1
50
138.1896854
51
180
0
ARC
8
0
10
10
20
26.5
40
1
50
180
51
221.8103146
0
ARC
8
0
10
26
20
43.5
40
1
50
318.1896854
51
360
0
ARC
8
0
10
26
20
58.5
40
1
50
0
51
41.8103146
0
ARC
8
0
10
10
20
58.5
40
1
50
138.1896854
51
180
0
ARC
8
0
10
10
20
43.5
40
1
50
180
51
221.8103146
0
ARC
8
0
10
26
20
60.5
40
1
50
318.1896854
51
360
0
ARC
8
0
10
26
20
75.5
40
1
50
48.1896854
51
90
0
LINE
8
0
10
26
20
76.5
11
10
21
76.5
0
ARC
8
0
10
10
20
75.5
40
1
50
90
51
131.8103146
0
ARC
8
0
10
10
20
60.5
40
1
50
180
51
221.8103146
0
LINE
8
0
10
28
20
8.5
11
44
21
8.5
0
ARC
8
0
10
44
20
9.5
40
1
50
270
51
311.8103146
0
ARC
8
0
10
44
20
24.5
40
1
50
0
51
41.8103146
0
ARC
8
0
10
28
20
24.5
40
1
50
138.1896854
51
180
0
ARC
8
0
10
28
20
9.5
40
1
50
228.1896854
51
270
0
ARC
8
0
10
44
20
26.5
40
1
50
318.1896854
51
360
0
ARC
8
0
10
44
20
41.5
40
1
50
0
51
41.8103146
0
ARC
8
0
10
28
20
41.5
40
1
50
138.1896854
51
180
0
ARC
8
0
10
28
20
26.5
40
1
50
180
51
221.8103146
0
ARC
8
0
10
44
20
43.5
40
1
50
318.1896854
51
360
0
ARC
8
0
10
44
20
58.5
40
1
50
0
51
41.8103146
0
ARC
8
0
10
28
20
58.5
40
1
50
138.1896854
51
180
0
ARC
8
0
10
28
20
43.5
40
1
50
180
51
221.8103146
0
ARC
8
0
10
44
20
60.5
40
1
50
318.1896854
51
360
0
ARC
8
0
10
44
20
75.5
40
1
50
48.1896854
51
90
0
LINE
8
0
10
44
20
76.5
11
28
21
76.5
0
ARC
8
0
10
28
20
75.5
40
1
50
90
51
131.8103146
0
ARC
8
0
10
28
20
60.5
40
1
50
180
51
221.8103146
0
LINE
8
0
10
46
20
8.5
11
62
21
8.5
0
ARC
8
0
10
62
20
9.5
40
1
50
270
51
311.8103146
0
ARC
8
0
10
62
20
24.5
40
1
50
0
51
41.8103146
0
ARC
8
0
10
46
20
24.5
40
1
50
138.1896854
51
180
0
ARC
8
0
10
46
20
9.5
40
1
50
228.1896854
51
270
0
ARC
8
0
10
62
20
26.5
40
1
50
318.1896854
51
360
0
ARC
8
0
10
62
20
41.5
40
1
50
0
51
41.8103146
0
ARC
8
0
10
46
20
41.5
40
1
50
138.1896854
51
180
0
ARC
8
0
10
46
20
26.5
40
1
50
180
51
221.8103146
0
ARC
8
0
10
62
20
43.5
40
1
50
318.1896854
51
360
0
ARC
8
0
10
62
20
58.5
40
1
50
0
51
41.8103146
0
ARC
8
0
10
46
20
58.5
40
1
50
138.1896854
51
180
0
ARC
8
0
10
46
20
43.5
40
1
50
180
51
221.8103146
0
ARC
8
0
10
62
20
60.5
40
1
50
318.1896854
51
360
0
ARC
8
0
10
62
20
75.5
40
1
50
48.1896854
51
90
0
LINE
8
0
10
62
20
76.5
11
46
21
76.5
0
ARC
8
0
10
46
20
75.5
40
1
50
90
51
131.8103146
0
ARC
8
0
10
46
20
60.5
40
1
50
180
51
221.8103146
0
LINE
8
0
10
64
20
8.5
11
80
21
8.5
0
ARC
8
0
10
80
20
9.5
40
1
50
270
51
311.8103146
0
ARC
8
0
10
80
20
24.5
40
1
50
0
51
41.8103146
0
ARC
8
0
10
64
20
24.5
40
1
50
138.1896854
51
180
0
ARC
8
0
10
64
20
9.5
40
1
50
228.1896854
51
270
0
ARC
8
0
10
80
20
26.5
40
1
50
318.1896854
51
360
0
ARC
8
0
10
80
20
41.5
40
1
50
0
51
41.8103146
0
ARC
8
0
10
64
20
41.5
40
1
50
138.1896854
51
180
0
ARC
8
0
10
64
20
26.5
40
1
50
180
51
221.8103146
0
ARC
8
0
10
80
20
43.5
40
1
50
318.1896854
51
360
0
ARC
8
0
10
80
20
58.5
40
1
50
0
51
41.8103146
0
ARC
8
0
10
64
20
58.5
40
1
50
138.1896854
51
180
0
ARC
8
0
10
64
20
43.5
40
1
50
180
51
221.8103146
0
ARC
8
0
10
80
20
60.5
40
1
50
318.1896854
51
360
0
ARC
8
0
10
80
20
75.5
40
1
50
48.1896854
51
90
0
LINE
8
0
10
80
20
76.5
11
64
21
76.5
0
ARC
8
0
10
64
20
75.5
40
1
50
90
51
131.8103146
0
ARC
8
0
10
64
20
60.5
40
1
50
180
51
221.8103146
0
LINE
8
0
10
82
20
8.5
11
116
21
8.5
0
ARC
8
0
10
82
20
24.5
40
1
50
138.1896854
51
180
0
ARC
8
0
10
82
20
9.5
40
1
50
228.1896854
51
270
0
ARC
8
0
10
98
20
26.5
40
1
50
270
51
311.8103146
0
ARC
8
0
10
98
20
41.5
40
1
50
0
51
41.8103146
0
ARC
8
0
10
82
20
41.5
40
1
50
138.1896854
51
180
0
ARC
8
0
10
82
20
26.5
40
1
50
180
51
221.8103146
0
ARC
8
0
10
98
20
43.5
40
1
50
318.1896854
51
360
0
ARC
8
0
10
98
20
58.5
40
1
50
0
51
41.8103146
0
ARC
8
0
10
82
20
58.5
40
1
50
138.1896854
51
180
0
ARC
8
0
10
82
20
43.5
40
1
50
180
51
221.8103146
0
ARC
8
0
10
98
20
60.5
40
1
50
318.1896854
51
360
0
ARC
8
0
10
98
20
75.5
40
1
50
48.1896854
51
90
0
LINE
8
0
10
98
20
76.5
11
82
21
76.5
0
ARC
8
0
10
82
20
75.5
40
1
50
90
51
131.8103146
0
ARC
8
0
10
82
20
60.5
40
1
50
180
51
221.8103146
0
LINE
8
0
10
100
20
25.5
11
98
21
25.5
0
ARC
8
0
10
116
20
9.5
40
1
50
270
51
311.8103146
0
ARC
8
0
10
116
20
24.5
40
1
50
0
51
41.8103146
0
ARC
8
0
10
116
20
26.5
40
1
50
318.1896854
51
0
0
ARC
8
0
10
116
20
41.5
40
1
50
0
51
41.8103146
0
ARC
8
0
10
100
20
41.5
40
1
50
138.1896854
51
180
0
ARC
8
0
10
100
20
26.5
40
1
50
228.1896854
51
270
0
ARC
8
0
10
116
20
43.5
40
1
50
318.1896854
51
0
0
ARC
8
0
10
116
20
58.5
40
1
50
0
51
41.8103146
0
ARC
8
0
10
100
20
58.5
40
1
50
138.1896854
51
180
0
ARC
8
0
10
100
20
43.5
40
1
50
180
51
221.8103146
0
ARC
8
0
10
116
20
60.5
40
1
50
318.1896854
51
0
0
ARC
8
0
10
116
20
75.5
40
1
50
48.1896854
51
90
0
LINE
8
0
10
116
20
76.5
11
100
21
76.5
0
ARC
8
0
10
100
20
75.5
40
1
50
90
51
131.8103146
0
ARC
8
0
10
100
20
60.5
40
1
50
180
51
221.8103146
0
LINE
8
0
10
118
20
8.5
11
134
21
8.5
0
ARC
8
0
10
134
20
9.5
40
1
50
270
51
311.8103146
0
ARC
8
0
10
134
20
24.5
40
1
50
0
51
41.8103146
0
ARC
8
0
10
118
20
24.5
40
1
50
138.1896854
51
180
0
ARC
8
0
10
118
20
9.5
40
1
50
228.1896854
51
270
0
ARC
8
0
10
134
20
26.5
40
1
50
318.1896854
51
360
0
ARC
8
0
10
134
20
41.5
40
1
50
0
51
41.8103146
0
ARC
8
0
10
118
20
41.5
40
1
50
138.1896854
51
180
0
ARC
8
0
10
118
20
26.5
40
1
50
180
51
221.8103146
0
ARC
8
0
10
134
20
43.5
40
1
50
318.1896854
51
360
0
ARC
8
0
10
134
20
58.5
40
1
50
0
51
41.8103146
0
ARC
8
0
10
118
20
58.5
40
1
50
138.1896854
51
180
0
ARC
8
0
10
118
20
43.5
40
1
50
180
51
221.8103146
0
ARC
8
0
10
134
20
60.5
40
1
50
318.1896854
51
360
0
ARC
8
0
10
134
20
75.5
40
1
50
48.1896854
51
90
0
LINE
8
0
10
134
20
76.5
11
118
21
76.5
0
ARC
8
0
10
118
20
75.5
40
1
50
90
51
131.8103146
0
ARC
8
0
10
118
20
60.5
40
1
50
180
51
221.8103146
0
LINE
8
0
10
136
20
8.5
11
152
21
8.5
0
ARC
8
0
10
152
20
9.5
40
1
50
270
51
311.8103146
0
ARC
8
0
10
152
20
24.5
40
1
50
0
51
41.8103146
0
ARC
8
0
10
136
20
24.5
40
1
50
138.1896854
51
180
0
ARC
8
0
10
136
20
9.5
40
1
50
228.1896854
51
270
0
ARC
8
0
10
152
20
26.5
40
1
50
318.1896854
51
360
0
ARC
8
0
10
152
20
41.5
40
1
50
0
51
41.8103146
0
ARC
8
0
10
136
20
41.5
40
1
50
138.1896854
51
180
0
ARC
8
0
10
136
20
26.5
40
1
50
180
51
221.8103146
0
ARC
8
0
10
152
20
43.5
40
1
50
318.1896854
51
360
0
ARC
8
0
10
152
20
58.5
40
1
50
0
51
41.8103146
0
ARC
8
0
10
136
20
58.5
40
1
50
138.1896854
51
180
0
ARC
8
0
10
136
20
43.5
40
1
50
180
51
221.8103146
0
ARC
8
0
10
152
20
60.5
40
1
50
318.1896854
51
360
0
ARC
8
0
10
152
20
75.5
40
1
50
48.1896854
51
90
0
LINE
8
0
10
152
20
76.5
11
136
21
76.5
0
ARC
8
0
10
136
20
75.5
40
1
50
90
51
131.8103146
0
ARC
8
0
10
136
20
60.5
40
1
50
180
51
221.8103146
0
LINE
8
0
10
154
20
8.5
11
170
21
8.5
0
ARC
8
0
10
170
20
9.5
40
1
50
270
51
311.8103146
0
ARC
8
0
10
170
20
24.5
40
1
50
0
51
41.8103146
0
ARC
8
0
10
154
20
24.5
40
1
50
138.1896854
51
180
0
ARC
8
0
10
154
20
9.5
40
1
50
228.1896854
51
270
0
ARC
8
0
10
170
20
26.5
40
1
50
318.1896854
51
360
0
ARC
8
0
10
170
20
41.5
40
1
50
0
51
41.8103146
0
ARC
8
0
10
154
20
41.5
40
1
50
138.1896854
51
180
0
ARC
8
0
10
154
20
26.5
40
1
50
180
51
221.8103146
0
ARC
8
0
10
170
20
43.5
40
1
50
318.1896854
51
360
0
ARC
8
0
10
170
20
58.5
40
1
50
0
51
41.8103146
0
ARC
8
0
10
154
20
58.5
40
1
50
138.1896854
51
180
0
ARC
8
0
10
154
20
43.5
40
1
50
180
51
221.8103146
0
ARC
8
0
10
170
20
60.5
40
1
50
318.1896854
51
360
0
ARC
8
0
10
170
20
75.5
40
1
50
48.1896854
51
90
0
LINE
8
0
10
170
20
76.5
11
154
21
76.5
0
ARC
8
0
10
154
20
75.5
40
1
50
90
51
131.8103146
0
ARC
8
0
10
154
20
60.5
40
1
50
180
51
221.8103146
0
LINE
8
0
10
172
20
8.5
11
188
21
8.5
0
ARC
8
0
10
188
20
9.5
40
1
50
270
51
311.8103146
0
ARC
8
0
10
188
20
24.5
40
1
50
0
51
41.8103146
0
ARC
8
0
10
172
20
24.5
40
1
50
138.1896854
51
180
0
ARC
8
0
10
172
20
9.5
40
1
50
228.1896854
51
270
0
ARC
8
0
10
188
20
26.5
40
1
50
318.1896854
51
360
0
ARC
8
0
10
188
20
41.5
40
1
50
0
51
41.8103146
0
ARC
8
0
10
172
20
41.5
40
1
50
138.1896854
51
180
0
ARC
8
0
10
172
20
26.5
40
1
50
180
51
221.8103146
0
ARC
8
0
10
188
20
43.5
40
1
50
318.1896854
51
360
0
ARC
8
0
10
188
20
58.5
40
1
50
0
51
41.8103146
0
ARC
8
0
10
172
20
58.5
40
1
50
138.1896854
51
180
0
ARC
8
0
10
172
20
43.5
40
1
50
180
51
221.8103146
0
ARC
8
0
10
188
20
60.5
40
1
50
318.1896854
51
360
0
ARC
8
0
10
188
20
75.5
40
1
50
48.1896854
51
90
0
LINE
8
0
10
188
20
76.5
11
172
21
76.5
0
ARC
8
0
10
172
20
75.5
40
1
50
90
51
131.8103146
0
ARC
8
0
10
172
20
60.5
40
1
50
180
51
221.8103146
0
LINE
8
0
10
190
20
8.5
11
206
21
8.5
0
ARC
8
0
10
206
20
9.5
40
1
50
270
51
360
0
LINE
8
0
10
207
20
9.5
11
207
21
24.5
0
ARC
8
0
10
206
20
24.5
40
1
50
0
51
41.8103146
0
ARC
8
0
10
190
20
24.5
40
1
50
138.1896854
51
180
0
ARC
8
0
10
190
20
9.5
40
1
50
228.1896854
51
270
0
ARC
8
0
10
206
20
26.5
40
1
50
318.1896854
51
360
0
LINE
8
0
10
207
20
26.5
11
207
21
41.5
0
ARC
8
0
10
206
20
41.5
40
1
50
0
51
41.8103146
0
ARC
8
0
10
190
20
41.5
40
1
50
138.1896854
51
180
0
ARC
8
0
10
190
20
26.5
40
1
50
180
51
221.8103146
0
ARC
8
0
10
206
20
43.5
40
1
50
318.1896854
51
360
0
LINE
8
0
10
207
20
43.5
11
207
21
58.5
0
ARC
8
0
10
206
20
58.5
40
1
50
0
51
41.8103146
0
ARC
8
0
10
190
20
58.5
40
1
50
138.1896854
51
180
0
ARC
8
0
10
190
20
43.5
40
1
50
180
51
221.8103146
0
ARC
8
0
10
206
20
60.5
40
1
50
318.1896854
51
360
0
LINE
8
0
10
207
20
60.5
11
207
21
75.5
0
ARC
8
0
10
206
20
75.5
40
1
50
0
51
90
0
LINE
8
0
10
206
20
76.5
11
190
21
76.5
0
ARC
8
0
10
190
20
75.5
40
1
50
90
51
131.8103146
0
ARC
8
0
10
190
20
60.5
40
1
50
180
51
221.8103146
0
ARC
8
0
10
9
20
8.381966
40
0.5
50
48.1896854
51
131.8103146
0
ARC
8
0
10
27
20
8.381966
40
0.5
50
48.1896854
51
131.8103146
0
ARC
8
0
10
45
20
8.381966
40
0.5
50
48.1896854
51
131.8103146
0
ARC
8
0
10
63
20
8.381966
40
0.5
50
48.1896854
51
131.8103146
0
ARC
8
0
10
81
20
8.381966
40
0.5
50
48.1896854
51
131.8103146
0
ARC
8
0
10
117
20
8.381966
40
0.5
50
48.1896854
51
131.8103146
0
ARC
8
0
10
135
20
8.381966
40
0.5
50
48.1896854
51
131.8103146
0
ARC
8
0
10
153
20
8.381966
40
0.5
50
48.1896854
51
131.8103146
0
ARC
8
0
10
171
20
8.381966
40
0.5
50
48.1896854
51
131.8103146
0
ARC
8
0
10
189
20
8.381966
40
0.5
50
48.1896854
51
131.8103146
0
ARC
8
0
10
207.118034
20
25.5
40
0.5
50
138.1896854
51
221.8103146
0
ARC
8
0
10
207.118034
20
42.5
40
0.5
50
138.1896854
51
221.8103146
0
ARC
8
0
10
207.118034
20
59.5
40
0.5
50
138.1896854
51
221.8103146
0
ARC
8
0
10
189
20
76.618034
40
0.5
50
228.1896854
51
311.8103146
0
ARC
8
0
10
171
20
76.618034
40
0.5
50
228.1896854
51
311.8103146
0
ARC
8
0
10
153
20
76.618034
40
0.5
50
228.1896854
51
311.8103146
0
ARC
8
0
10
135
20
76.618034
40
0.5
50
228.1896854
51
311.8103146
0
ARC
8
0
10
117
20
76.618034
40
0.5
50
228.1896854
51
311.8103146
0
ARC
8
0
10
99
20
76.618034
40
0.5
50
228.1896854
51
311.8103146
0
ARC
8
0
10
81
20
76.618034
40
0.5
50
228.1896854
51
311.8103146
0
ARC
8
0
10
63
20
76.618034
40
0.5
50
228.1896854
51
311.8103146
0
ARC
8
0
10
45
20
76.618034
40
0.5
50
228.1896854
51
311.8103146
0
ARC
8
0
10
27
20
76.618034
40
0.5
50
228.1896854
51
311.8103146
0
ARC
8
0
10
9
20
76.618034
40
0.5
50
228.1896854
51
311.8103146
0
ARC
8
0
10
-9.118034
20
59.5
40
0.5
50
318.1896854
51
41.8103146
0
ARC
8
0
10
-9.118034
20
42.5
40
0.5
50
318.1896854
51
41.8103146
0
ARC
8
0
10
-9.118034
20
25.5
40
0.5
50
318.1896854
51
41.8103146
0
ARC
8
0
10
9.118034
20
25.5
40
0.5
50
138.1896854
51
221.8103146
0
ARC
8
0
10
8.881966
20
25.5
40
0.5
50
318.1896854
51
41.8103146
0
ARC
8
0
10
9.118034
20
42.5
40
0.5
50
138.1896854
51
221.8103146
0
ARC
8
0
10
8.881966
20
42.5
40
0.5
50
318.1896854
51
41.8103146
0
ARC
8
0
10
9.118034
20
59.5
40
0.5
50
138.1896854
51
221.8103146
0
ARC
8
0
10
8.881966
20
59.5
40
0.5
50
318.1896854
51
41.8103146
0
ARC
8
0
10
27.118034
20
25.5
40
0.5
50
138.1896854
51
221.8103146
0
ARC
8
0
10
26.881966
20
25.5
40
0.5
50
318.1896854
51
41.8103146
0
ARC
8
0
10
27.118034
20
42.5
40
0.5
50
138.1896854
51
221.8103146
0
ARC
8
0
10
26.881966
20
42.5
40
0.5
50
318.1896854
51
41.8103146
0
ARC
8
0
10
27.118034
20
59.5
40
0.5
50
138.1896854
51
221.8103146
0
ARC
8
0
10
26.881966
20
59.5
40
0.5
50
318.1896854
51
41.8103146
0
ARC
8
0
10
45.118034
20
25.5
40
0.5
50
138.1896854
51
221.8103146
0
ARC
8
0
10
44.881966
20
25.5
40
0.5
50
318.1896854
51
41.8103146
0
ARC
8
0
10
45.118034
20
42.5
40
0.5
50
138.1896854
51
221.8103146
0
ARC
8
0
10
44.881966
20
42.5
40
0.5
50
318.1896854
51
41.8103146
0
ARC
8
0
10
45.118034
20
59.5
40
0.5
50
138.1896854
51
221.8103146
0
ARC
8
0
10
44.881966
20
59.5
40
0.5
50
318.1896854
51
41.8103146
0
ARC
8
0
10
63.118034
20
25.5
40
0.5
50
138.1896854
51
221.8103146
0
ARC
8
0
10
62.881966
20
25.5
40
0.5
50
318.1896854
51
41.8103146
0
ARC
8
0
10
63.118034
20
42.5
40
0.5
50
138.1896854
51
221.8103146
0
ARC
8
0
10
62.881966
20
42.5
40
0.5
50
318.1896854
51
41.8103146
0
ARC
8
0
10
63.118034
20
59.5
40
0.5
50
138.1896854
51
221.8103146
0
ARC
8
0
10
62.881966
20
59.5
40
0.5
50
318.1896854
51
41.8103146
0
ARC
8
0
10
81.118034
20
25.5
40
0.5
50
138.1896854
51
221.8103146
0
ARC
8
0
10
80.881966
20
25.5
40
0.5
50
318.1896854
51
41.8103146
0
ARC
8
0
10
81.118034
20
42.5
40
0.5
50
138.1896854
51
221.8103146
0
ARC
8
0
10
80.881966
20
42.5
40
0.5
50
318.1896854
51
41.8103146
0
ARC
8
0
10
81.118034
20
59.5
40
0.5
50
138.1896854
51
221.8103146
0
ARC
8
0
10
80.881966
20
59.5
40
0.5
50
318.1896854
51
41.8103146
0
ARC
8
0
10
99.118034
20
42.5
40
0.5
50
138.1896854
51
221.8103146
0
ARC
8
0
10
98.881966
20
42.5
40
0.5
50
318.1896854
51
41.8103146
0
ARC
8
0
10
99.118034
20
59.5
40
0.5
50
138.1896854
51
221.8103146
0
ARC
8
0
10
98.881966
20
59.5
40
0.5
50
318.1896854
51
41.8103146
0
ARC
8
0
10
117.118034
20
25.5
40
0.5
50
138.1896854
51
221.8103146
0
ARC
8
0
10
116.881966
20
25.5
40
0.5
50
318.1896854
51
41.8103146
0
ARC
8
0
10
117.118034
20
42.5
40
0.5
50
138.1896854
51
221.8103146
0
ARC
8
0
10
116.881966
20
42.5
40
0.5
50
318.1896854
51
41.8103146
0
ARC
8
0
10
117.118034
20
59.5
40
0.5
50
138.1896854
51
221.8103146
0
ARC
8
0
10
116.881966
20
59.5
40
0.5
50
318.1896854
51
41.8103146
0
ARC
8
0
10
135.118034
20
25.5
40
0.5
50
138.1896854
51
221.8103146
0
ARC
8
0
10
134.881966
20
25.5
40
0.5
50
318.1896854
51
41.8103146
0
ARC
8
0
10
135.118034
20
42.5
40
0.5
50
138.1896854
51
221.8103146
0
ARC
8
0
10
134.881966
20
42.5
40
0.5
50
318.1896854
51
41.8103146
0
ARC
8
0
10
135.118034
20
59.5
40
0.5
50
138.1896854
51
221.8103146
0
ARC
8
0
10
134.881966
20
59.5
40
0.5
50
318.1896854
51
41.8103146
0
ARC
8
0
10
153.118034
20
25.5
40
0.5
50
138.1896854
51
221.8103146
0
ARC
8
0
10
152.881966
20
25.5
40
0.5
50
318.1896854
51
41.8103146
0
ARC
8
0
10
153.118034
20
42.5
40
0.5
50
138.1896854
51
221.8103146
0
ARC
8
0
10
152.881966
20
42.5
40
0.5
50
318.1896854
51
41.8103146
0
ARC
8
0
10
153.118034
20
59.5
40
0.5
50
138.1896854
51
221.8103146
0
ARC
8
0
10
152.881966
20
59.5
40
0.5
50
318.1896854
51
41.8103146
0
ARC
8
0
10
171.118034
20
25.5
40
0.5
50
138.1896854
51
221.8103146
0
ARC
8
0
10
170.881966
20
25.5
40
0.5
50
318.1896854
51
41.8103146
0
ARC
8
0
10
171.118034
20
42.5
40
0.5
50
138.1896854
51
221.8103146
0
ARC
8
0
10
170.881966
20
42.5
40
0.5
50
318.1896854
51
41.8103146
0
ARC
8
0
10
171.118034
20
59.5
40
0.5
50
138.1896854
51
221.8103146
0
ARC
8
0
10
170.881966
20
59.5
40
0.5
50
318.1896854
51
41.8103146
0
ARC
8
0
10
189.118034
20
25.5
40
0.5
50
138.1896854
51
221.8103146
0
ARC
8
0
10
188.881966
20
25.5
40
0.5
50
318.1896854
51
41.8103146
0
ARC
8
0
10
189.118034
20
42.5
40
0.5
50
138.1896854
51
221.8103146
0
ARC
8
0
10
188.881966
20
42.5
40
0.5
50
318.1896854
51
41.8103146
0
ARC
8
0
10
189.118034
20
59.5
40
0.5
50
138.1896854
51
221.8103146
0
ARC
8
0
10
188.881966
20
59.5
40
0.5
50
318.1896854
51
41.8103146
0
ARC
8
0
10
99
20
25.381966
40
0.5
50
48.1896854
51
131.8103146
0
LINE
8
0
10
-7
20
10
11
7
21
10
0
LINE
8
0
10
7
20
10
11
7
21
24
0
LINE
8
0
10
7
20
24
11
-7
21
24
0
LINE
8
0
10
-7
20
24
11
-7
21
10
0
LINE
8
0
10
-7
20
27
11
7
21
27
0
LINE
8
0
10
7
20
27
11
7
21
41
0
LINE
8
0
10
7
20
41
11
-7
21
41
0
LINE
8
0
10
-7
20
41
11
-7
21
27
0
LINE
8
0
10
-7
20
44
11
7
21
44
0
LINE
8
0
10
7
20
44
11
7
21
58
0
LINE
8
0
10
7
20
58
11
-7
21
58
0
LINE
8
0
10
-7
20
58
11
-7
21
44
0
LINE
8
0
10
-7
20
61
11
7
21
61
0
LINE
8
0
10
7
20
61
11
7
21
75
0
LINE
8
0
10
7
20
75
11
-7
21
75
0
LINE
8
0
10
-7
20
75
11
-7
21
61
0
LINE
8
0
10
11
20
10
11
25
21
10
0
LINE
8
0
10
25
20
10
11
25
21
24
0
LINE
8
0
10
25
20
24
11
11
21
24
0
LINE
8
0
10
11
20
24
11
11
21
10
0
LINE
8
0
10
11
20
27
11
25
21
27
0
LINE
8
0
10
25
20
27
11
25
21
41
0
LINE
8
0
10
25
20
41
11
11
21
41
0
LINE
8
0
10
11
20
41
11
11
21
27
0
LINE
8
0
10
11
20
44
11
25
21
44
0
LINE
8
0
10
25
20
44
11
25
21
58
0
LINE
8
0
10
25
20
58
11
11
21
58
0
LINE
8
0
10
11
20
58
11
11
21
44
0
LINE
8
0
10
11
20
61
11
25
21
61
0
LINE
8
0
10
25
20
61
11
25
21
75
0
LINE
8
0
10
25
20
75
11
11
21
75
0
LINE
8
0
10
11
20
75
11
11
21
61
0
LINE
8
0
10
29
20
10
11
43
21
10
0
LINE
8
0
10
43
20
10
11
43
21
24
0
LINE
8
0
10
43
20
24
11
29
21
24
0
LINE
8
0
10
29
20
24
11
29
21
10
0
LINE
8
0
10
29
20
27
11
43
21
27
0
LINE
8
0
10
43
20
27
11
43
21
41
0
LINE
8
0
10
43
20
41
11
29
21
41
0
LINE
8
0
10
29
20
41
11
29
21
27
0
LINE
8
0
10
29
20
44
11
43
21
44
0
LINE
8
0
10
43
20
44
11
43
21
58
0
LINE
8
0
10
43
20
58
11
29
21
58
0
LINE
8
0
10
29
20
58
11
29
21
44
0
LINE
8
0
10
29
20
61
11
43
21
61
0
LINE
8
0
10
43
20
61
11
43
21
75
0
LINE
8
0
10
43
20
75
11
29
21
75
0
LINE
8
0
10
29
20
75
11
29
21
61
0
LINE
8
0
10
47
20
10
11
61
21
10
0
LINE
8
0
10
61
20
10
11
61
21
24
0
LINE
8
0
10
61
20
24
11
47
21
24
0
LINE
8
0
10
47
20
24
11
47
21
10
0
LINE
8
0
10
47
20
27
11
61
21
27
0
LINE
8
0
10
61
20
27
11
61
21
41
0
LINE
8
0
10
61
20
41
11
47
21
41
0
LINE
8
0
10
47
20
41
11
47
21
27
0
LINE
8
0
10
47
20
44
11
61
21
44
0
LINE
8
0
10
61
20
44
11
61
21
58
0
LINE
8
0
10
61
20
58
11
47
21
58
0
LINE
8
0
10
47
20
58
11
47
21
44
0
LINE
8
0
10
47
20
61
11
61
21
61
0
LINE
8
0
10
61
20
61
11
61
21
75
0
LINE
8
0
10
61
20
75
11
47
21
75
0
LINE
8
0
10
47
20
75
11
47
21
61
0
LINE
8
0
10
65
20
10
11
79
21
10
0
LINE
8
0
10
79
20
10
11
79
21
24
0
LINE
8
0
10
79
20
24
11
65
21
24
0
LINE
8
0
10
65
20
24
11
65
21
10
0
LINE
8
0
10
65
20
27
11
79
21
27
0
LINE
8
0
10
79
20
27
11
79
21
41
0
LINE
8
0
10
79
20
41
11
65
21
41
0
LINE
8
0
10
65
20
41
11
65
21
27
0
LINE
8
0
10
65
20
44
11
79
21
44
0
LINE
8
0
10
79
20
44
11
79
21
58
0
LINE
8
0
10
79
20
58
11
65
21
58
0
LINE
8
0
10
65
20
58
11
65
21
44
0
LINE
8
0
10
65
20
61
11
79
21
61
0
LINE
8
0
10
79
20
61
11
79
21
75
0
LINE
8
0
10
79
20
75
11
65
21
75
0
LINE
8
0
10
65
20
75
11
65
21
61
0
LINE
8
0
10
83
20
10
11
115
21
10
0
LINE
8
0
10
83
20
24
11
115
21
24
0
LINE
8
0
10
83
20
24
11
83
21
10
0
LINE
8
0
10
83
20
27
11
97
21
27
0
LINE
8
0
10
97
20
27
11
97
21
41
0
LINE
8
0
10
97
20
41
11
83
21
41
0
LINE
8
0
10
83
20
41
11
83
21
27
0
LINE
8
0
10
83
20
44
11
97
21
44
0
LINE
8
0
10
97
20
44
11
97
21
58
0
LINE
8
0
10
97
20
58
11
83
21
58
0
LINE
8
0
10
83
20
58
11
83
21
44
0
LINE
8
0
10
83
20
61
11
97
21
61
0
LINE
8
0
10
97
20
61
11
97
21
75
0
LINE
8
0
10
97
20
75
11
83
21
75
0
LINE
8
0
10
83
20
75
11
83
21
61
0
LINE
8
0
10
115
20
10
11
115
21
24
0
LINE
8
0
10
101
20
27
11
115
21
27
0
LINE
8
0
10
115
20
27
11
115
21
41
0
LINE
8
0
10
115
20
41
11
101
21
41
0
LINE
8
0
10
101
20
41
11
101
21
27
0
LINE
8
0
10
101
20
44
11
115
21
44
0
LINE
8
0
10
115
20
44
11
115
21
58
0
LINE
8
0
10
115
20
58
11
101
21
58
0
LINE
8
0
10
101
20
58
11
101
21
44
0
LINE
8
0
10
101
20
61
11
115
21
61
0
LINE
8
0
10
115
20
61
11
115
21
75
0
LINE
8
0
10
115
20
75
11
101
21
75
0
LINE
8
0
10
101
20
75
11
101
21
61
0
LINE
8
0
10
119
20
10
11
133
21
10
0
LINE
8
0
10
133
20
10
11
133
21
24
0
LINE
8
0
10
133
20
24
11
119
21
24
0
LINE
8
0
10
119
20
24
11
119
21
10
0
LINE
8
0
10
119
20
27
11
133
21
27
0
LINE
8
0
10
133
20
27
11
133
21
41
0
LINE
8
0
10
133
20
41
11
119
21
41
0
LINE
8
0
10
119
20
41
11
119
21
27
0
LINE
8
0
10
119
20
44
11
133
21
44
0
LINE
8
0
10
133
20
44
11
133
21
58
0
LINE
8
0
10
133
20
58
11
119
21
58
0
LINE
8
0
10
119
20
58
11
119
21
44
0
LINE
8
0
10
119
20
61
11
133
21
61
0
LINE
8
0
10
133
20
61
11
133
21
75
0
LINE
8
0
10
133
20
75
11
119
21
75
0
LINE
8
0
10
119
20
75
11
119
21
61
0
LINE
8
0
10
137
20
10
11
151
21
10
0
LINE
8
0
10
151
20
10
11
151
21
24
0
LINE
8
0
10
151
20
24
11
137
21
24
0
LINE
8
0
10
137
20
24
11
137
21
10
0
LINE
8
0
10
137
20
27
11
151
21
27
0
LINE
8
0
10
151
20
27
11
151
21
41
0
LINE
8
0
10
151
20
41
11
137
21
41
0
LINE
8
0
10
137
20
41
11
137
21
27
0
LINE
8
0
10
137
20
44
11
151
21
44
0
LINE
8
0
10
151
20
44
11
151
21
58
0
LINE
8
0
10
151
20
58
11
137
21
58
0
LINE
8
0
10
137
20
58
11
137
21
44
0
LINE
8
0
10
137
20
61
11
151
21
61
0
LINE
8
0
10
151
20
61
11
151
21
75
0
LINE
8
0
10
151
20
75
11
137
21
75
0
LINE
8
0
10
137
20
75
11
137
21
61
0
LINE
8
0
10
155
20
10
11
169
21
10
0
LINE
8
0
10
169
20
10
11
169
21
24
0
LINE
8
0
10
169
20
24
11
155
21
24
0
LINE
8
0
10
155
20
24
11
155
21
10
0
LINE
8
0
10
155
20
27
11
169
21
27
0
LINE
8
0
10
169
20
27
11
169
21
41
0
LINE
8
0
10
169
20
41
11
155
21
41
0
LINE
8
0
10
155
20
41
11
155
21
27
0
LINE
8
0
10
155
20
44
11
169
21
44
0
LINE
8
0
10
169
20
44
11
169
21
58
0
LINE
8
0
10
169
20
58
11
155
21
58
0
LINE
8
0
10
155
20
58
11
155
21
44
0
LINE
8
0
10
155
20
61
11
169
21
61
0
LINE
8
0
10
169
20
61
11
169
21
75
0
LINE
8
0
10
169
20
75
11
155
21
75
0
LINE
8
0
10
155
20
75
11
155
21
61
0
LINE
8
0
10
173
20
10
11
187
21
10
0
LINE
8
0
10
187
20
10
11
187
21
24
0
LINE
8
0
10
187
20
24
11
173
21
24
0
LINE
8
0
10
173
20
24
11
173
21
10
0
LINE
8
0
10
173
20
27
11
187
21
27
0
LINE
8
0
10
187
20
27
11
187
21
41
0
LINE
8
0
10
187
20
41
11
173
21
41
0
LINE
8
0
10
173
20
41
11
173
21
27
0
LINE
8
0
10
173
20
44
11
187
21
44
0
LINE
8
0
10
187
20
44
11
187
21
58
0
LINE
8
0
10
187
20
58
11
173
21
58
0
LINE
8
0
10
173
20
58
11
173
21
44
0
LINE
8
0
10
173
20
61
11
187
21
61
0
LINE
8
0
10
187
20
61
11
187
21
75
0
LINE
8
0
10
187
20
75
11
173
21
75
0
LINE
8
0
10
173
20
75
11
173
21
61
0
LINE
8
0
10
191
20
10
11
205
21
10
0
LINE
8
0
10
205
20
10
11
205
21
24
0
LINE
8
0
10
205
20
24
11
191
21
24
0
LINE
8
0
10
191
20
24
11
191
21
10
0
LINE
8
0
10
191
20
27
11
205
21
27
0
LINE
8
0
10
205
20
27
11
205
21
41
0
LINE
8
0
10
205
20
41
11
191
21
41
0
LINE
8
0
10
191
20
41
11
191
21
27
0
LINE
8
0
10
191
20
44
11
205
21
44
0
LINE
8
0
10
205
20
44
11
205
21
58
0
LINE
8
0
10
205
20
58
11
191
21
58
0
LINE
8
0
10
191
20
58
11
191
21
44
0
LINE
8
0
10
191
20
61
11
205
21
61
0
LINE
8
0
10
205
20
61
11
205
21
75
0
LINE
8
0
10
205
20
75
11
191
21
75
0
LINE
8
0
10
191
20
75
11
191
21
61
0
ENDSEC
0
EOF