0
SECTION
2
HEADER
9
$INSUNITS
70
4
0
ENDSEC
0
SECTION
2
TABLES
0
TABLE
2
LTYPE
0
LTYPE
72
65
70
64
2
CONTINUOUS
3
______
73
0
40
0
0
ENDTAB
0
TABLE
2
LAYER
0
ENDTAB
0
ENDSEC
0
SECTION
2
ENTITIES
0
LINE
8
0
10
63.4582946
20
-126.5609333
11
80.4747683
21
-130.6462272
0
LINE
8
0
10
80.4747683
20
-130.6462272
11
84.3266168
21
-114.6021235
0
LINE
8
0
10
84.3266168
20
-114.6021235
11
67.3101431
21
-110.5168296
0
LINE
8
0
10
67.3101431
20
-110.5168296
11
63.4582946
21
-126.5609333
0
LINE
8
0
10
67.4268657
20
-110.0306447
11
84.4433394
21
-114.1159386
0
LINE
8
0
10
84.4433394
20
-114.1159386
11
88.2951879
21
-98.0718349
0
LINE
8
0
10
88.2951879
20
-98.0718349
11
71.2787142
21
-93.986541
0
LINE
8
0
10
71.2787142
20
-93.986541
11
67.4268657
21
-110.0306447
0
LINE
8
0
10
71.3954369
20
-93.500356
11
88.4119106
21
-97.5856499
0
LINE
8
0
10
88.4119106
20
-97.5856499
11
92.2637591
21
-81.5415462
0
LINE
8
0
10
92.2637591
20
-81.5415462
11
75.2472854
21
-77.4562523
0
LINE
8
0
10
75.2472854
20
-77.4562523
11
71.3954369
21
-93.500356
0
LINE
8
0
10
80.9609531
20
-130.7629499
11
97.9774268
21
-134.8482438
0
LINE
8
0
10
97.9774268
20
-134.8482438
11
101.8292753
21
-118.8041401
0
LINE
8
0
10
101.8292753
20
-118.8041401
11
84.8128016
21
-114.7188462
0
LINE
8
0
10
84.8128016
20
-114.7188462
11
80.9609531
21
-130.7629499
0
LINE
8
0
10
84.9295243
20
-114.2326612
11
101.945998
21
-118.3179551
0
LINE
8
0
10
101.945998
20
-118.3179551
11
105.7978465
21
-102.2738514
0
LINE
8
0
10
105.7978465
20
-102.2738514
11
88.7813728
21
-98.1885575
0
LINE
8
0
10
88.7813728
20
-98.1885575
11
84.9295243
21
-114.2326612
0
LINE
8
0
10
88.8980955
20
-97.7023726
11
105.9145692
21
-101.7876665
0
LINE
8
0
10
105.9145692
20
-101.7876665
11
109.7664177
21
-85.7435628
0
LINE
8
0
10
109.7664177
20
-85.7435628
11
92.749944
21
-81.6582689
0
LINE
8
0
10
92.749944
20
-81.6582689
11
88.8980955
21
-97.7023726
0
LINE
8
0
10
99.4359816
20
-135.1984118
11
116.4524553
21
-139.2837057
0
LINE
8
0
10
116.4524553
20
-139.2837057
11
120.3043038
21
-123.239602
0
LINE
8
0
10
120.3043038
20
-123.239602
11
103.2878301
21
-119.1543081
0
LINE
8
0
10
103.2878301
20
-119.1543081
11
99.4359816
21
-135.1984118
0
LINE
8
0
10
103.4045528
20
-118.6681231
11
120.4210265
21
-122.753417
0
LINE
8
0
10
120.4210265
20
-122.753417
11
124.272875
21
-106.7093133
0
LINE
8
0
10
124.272875
20
-106.7093133
11
107.2564013
21
-102.6240194
0
LINE
8
0
10
107.2564013
20
-102.6240194
11
103.4045528
21
-118.6681231
0
LINE
8
0
10
107.373124
20
-102.1378345
11
124.3895977
21
-106.2231284
0
LINE
8
0
10
124.3895977
20
-106.2231284
11
128.2414462
21
-90.1790247
0
LINE
8
0
10
128.2414462
20
-90.1790247
11
111.2249725
21
-86.0937308
0
LINE
8
0
10
111.2249725
20
-86.0937308
11
107.373124
21
-102.1378345
0
LINE
8
0
10
117.9110101
20
-139.6338737
11
134.9274838
21
-143.7191676
0
LINE
8
0
10
134.9274838
20
-143.7191676
11
138.7793323
21
-127.6750639
0
LINE
8
0
10
138.7793323
20
-127.6750639
11
121.7628586
21
-123.58977
0
LINE
8
0
10
121.7628586
20
-123.58977
11
117.9110101
21
-139.6338737
0
LINE
8
0
10
121.8795813
20
-123.1035851
11
138.896055
21
-127.188879
0
LINE
8
0
10
138.896055
20
-127.188879
11
142.7479035
21
-111.1447753
0
LINE
8
0
10
142.7479035
20
-111.1447753
11
125.7314298
21
-107.0594814
0
LINE
8
0
10
125.7314298
20
-107.0594814
11
121.8795813
21
-123.1035851
0
LINE
8
0
10
125.8481525
20
-106.5732964
11
142.8646262
21
-110.6585903
0
LINE
8
0
10
142.8646262
20
-110.6585903
11
146.7164747
21
-94.6144866
0
LINE
8
0
10
146.7164747
20
-94.6144866
11
129.700001
21
-90.5291927
0
LINE
8
0
10
129.700001
20
-90.5291927
11
125.8481525
21
-106.5732964
0
LINE
8
0
10
136.3860386
20
-144.0693356
11
153.4025123
21
-148.1546295
0
LINE
8
0
10
153.4025123
20
-148.1546295
11
157.2543608
21
-132.1105258
0
LINE
8
0
10
157.2543608
20
-132.1105258
11
140.2378871
21
-128.0252319
0
LINE
8
0
10
140.2378871
20
-128.0252319
11
136.3860386
21
-144.0693356
0
LINE
8
0
10
140.3546098
20
-127.539047
11
157.3710835
21
-131.6243409
0
LINE
8
0
10
157.3710835
20
-131.6243409
11
161.222932
21
-115.5802372
0
LINE
8
0
10
161.222932
20
-115.5802372
11
144.2064583
21
-111.4949433
0
LINE
8
0
10
144.2064583
20
-111.4949433
11
140.3546098
21
-127.539047
0
LINE
8
0
10
144.323181
20
-111.0087583
11
161.3396547
21
-115.0940522
0
LINE
8
0
10
161.3396547
20
-115.0940522
11
165.1915032
21
-99.0499485
0
LINE
8
0
10
165.1915032
20
-99.0499485
11
148.1750295
21
-94.9646546
0
LINE
8
0
10
148.1750295
20
-94.9646546
11
144.323181
21
-111.0087583
0
LINE
8
0
10
153.8886972
20
-148.2713522
11
170.9051709
21
-152.3566461
0
LINE
8
0
10
170.9051709
20
-152.3566461
11
174.7570194
21
-136.3125424
0
LINE
8
0
10
174.7570194
20
-136.3125424
11
157.7405457
21
-132.2272485
0
LINE
8
0
10
157.7405457
20
-132.2272485
11
153.8886972
21
-148.2713522
0
LINE
8
0
10
157.8572683
20
-131.7410635
11
174.873742
21
-135.8263574
0
LINE
8
0
10
174.873742
20
-135.8263574
11
178.7255905
21
-119.7822537
0
LINE
8
0
10
178.7255905
20
-119.7822537
11
161.7091168
21
-115.6969598
0
LINE
8
0
10
161.7091168
20
-115.6969598
11
157.8572683
21
-131.7410635
0
LINE
8
0
10
161.8258395
20
-115.2107749
11
178.8423132
21
-119.2960688
0
LINE
8
0
10
178.8423132
20
-119.2960688
11
182.6941617
21
-103.2519651
0
LINE
8
0
10
182.6941617
20
-103.2519651
11
165.677688
21
-99.1666712
0
LINE
8
0
10
165.677688
20
-99.1666712
11
161.8258395
21
-115.2107749
0
LINE
8
0
10
85.7437112
20
-149.3942468
11
102.7601849
21
-153.4795407
0
LINE
8
0
10
102.7601849
20
-153.4795407
11
106.6120334
21
-137.435437
0
LINE
8
0
10
106.6120334
20
-137.435437
11
89.5955597
21
-133.3501431
0
LINE
8
0
10
89.5955597
20
-133.3501431
11
85.7437112
21
-149.3942468
0
LINE
8
0
10
103.2463698
20
-153.5962633
11
120.2628435
21
-157.6815572
0
LINE
8
0
10
120.2628435
20
-157.6815572
11
124.114692
21
-141.6374535
0
LINE
8
0
10
124.114692
20
-141.6374535
11
107.0982183
21
-137.5521596
0
LINE
8
0
10
107.0982183
20
-137.5521596
11
103.2463698
21
-153.5962633
0
LINE
8
0
10
120.7490284
20
-157.7982799
11
137.7655021
21
-161.8835738
0
LINE
8
0
10
137.7655021
20
-161.8835738
11
141.6173506
21
-145.8394701
0
LINE
8
0
10
141.6173506
20
-145.8394701
11
124.6008769
21
-141.7541762
0
LINE
8
0
10
124.6008769
20
-141.7541762
11
120.7490284
21
-157.7982799
0
LINE
8
0
10
138.8497416
20
-162.5092134
11
154.8982929
21
-169.4873221
0
LINE
8
0
10
154.8982929
20
-169.4873221
11
161.4776526
21
-154.3558308
0
LINE
8
0
10
161.4776526
20
-154.3558308
11
145.4291013
21
-147.3777221
0
LINE
8
0
10
145.4291013
20
-147.3777221
11
138.8497416
21
-162.5092134
0
LINE
8
0
10
171.6160639
20
-178.7126416
11
183.662269
21
-166.0185901
0
LINE
8
0
10
183.662269
20
-166.0185901
11
171.6935919
21
-154.6607396
0
LINE
8
0
10
171.6935919
20
-154.6607396
11
159.6473868
21
-167.3547911
0
LINE
8
0
10
159.6473868
20
-167.3547911
11
171.6160639
21
-178.7126416
0
LINE
8
0
10
191.1792056
20
-154.1309906
11
195.2644995
21
-137.1145169
0
LINE
8
0
10
195.2644995
20
-137.1145169
11
179.2203958
21
-133.2626684
0
LINE
8
0
10
179.2203958
20
-133.2626684
11
175.1351019
21
-150.2791421
0
LINE
8
0
10
175.1351019
20
-150.2791421
11
191.1792056
21
-154.1309906
0
LINE
8
0
10
311.9248331
20
-130.6462272
11
328.9413068
21
-126.5609333
0
LINE
8
0
10
328.9413068
20
-126.5609333
11
325.0894583
21
-110.5168296
0
LINE
8
0
10
325.0894583
20
-110.5168296
11
308.0729846
21
-114.6021235
0
LINE
8
0
10
308.0729846
20
-114.6021235
11
311.9248331
21
-130.6462272
0
LINE
8
0
10
307.956262
20
-114.1159386
11
324.9727357
21
-110.0306447
0
LINE
8
0
10
324.9727357
20
-110.0306447
11
321.1208872
21
-93.986541
0
LINE
8
0
10
321.1208872
20
-93.986541
11
304.1044135
21
-98.0718349
0
LINE
8
0
10
304.1044135
20
-98.0718349
11
307.956262
21
-114.1159386
0
LINE
8
0
10
303.9876908
20
-97.5856499
11
321.0041645
21
-93.500356
0
LINE
8
0
10
321.0041645
20
-93.500356
11
317.152316
21
-77.4562523
0
LINE
8
0
10
317.152316
20
-77.4562523
11
300.1358423
21
-81.5415462
0
LINE
8
0
10
300.1358423
20
-81.5415462
11
303.9876908
21
-97.5856499
0
LINE
8
0
10
294.4221746
20
-134.8482438
11
311.4386483
21
-130.7629499
0
LINE
8
0
10
311.4386483
20
-130.7629499
11
307.5867998
21
-114.7188462
0
LINE
8
0
10
307.5867998
20
-114.7188462
11
290.5703261
21
-118.8041401
0
LINE
8
0
10
290.5703261
20
-118.8041401
11
294.4221746
21
-134.8482438
0
LINE
8
0
10
290.4536034
20
-118.3179551
11
307.4700771
21
-114.2326612
0
LINE
8
0
10
307.4700771
20
-114.2326612
11
303.6182286
21
-98.1885575
0
LINE
8
0
10
303.6182286
20
-98.1885575
11
286.6017549
21
-102.2738514
0
LINE
8
0
10
286.6017549
20
-102.2738514
11
290.4536034
21
-118.3179551
0
LINE
8
0
10
286.4850322
20
-101.7876665
11
303.5015059
21
-97.7023726
0
LINE
8
0
10
303.5015059
20
-97.7023726
11
299.6496574
21
-81.6582689
0
LINE
8
0
10
299.6496574
20
-81.6582689
11
282.6331837
21
-85.7435628
0
LINE
8
0
10
282.6331837
20
-85.7435628
11
286.4850322
21
-101.7876665
0
LINE
8
0
10
275.9471461
20
-139.2837057
11
292.9636198
21
-135.1984118
0
LINE
8
0
10
292.9636198
20
-135.1984118
11
289.1117713
21
-119.1543081
0
LINE
8
0
10
289.1117713
20
-119.1543081
11
272.0952976
21
-123.239602
0
LINE
8
0
10
272.0952976
20
-123.239602
11
275.9471461
21
-139.2837057
0
LINE
8
0
10
271.9785749
20
-122.753417
11
288.9950486
21
-118.6681231
0
LINE
8
0
10
288.9950486
20
-118.6681231
11
285.1432001
21
-102.6240194
0
LINE
8
0
10
285.1432001
20
-102.6240194
11
268.1267264
21
-106.7093133
0
LINE
8
0
10
268.1267264
20
-106.7093133
11
271.9785749
21
-122.753417
0
LINE
8
0
10
268.0100037
20
-106.2231284
11
285.0264774
21
-102.1378345
0
LINE
8
0
10
285.0264774
20
-102.1378345
11
281.1746289
21
-86.0937308
0
LINE
8
0
10
281.1746289
20
-86.0937308
11
264.1581552
21
-90.1790247
0
LINE
8
0
10
264.1581552
20
-90.1790247
11
268.0100037
21
-106.2231284
0
LINE
8
0
10
257.4721176
20
-143.7191676
11
274.4885913
21
-139.6338737
0
LINE
8
0
10
274.4885913
20
-139.6338737
11
270.6367428
21
-123.58977
0
LINE
8
0
10
270.6367428
20
-123.58977
11
253.6202691
21
-127.6750639
0
LINE
8
0
10
253.6202691
20
-127.6750639
11
257.4721176
21
-143.7191676
0
LINE
8
0
10
253.5035464
20
-127.188879
11
270.5200201
21
-123.1035851
0
LINE
8
0
10
270.5200201
20
-123.1035851
11
266.6681716
21
-107.0594814
0
LINE
8
0
10
266.6681716
20
-107.0594814
11
249.6516979
21
-111.1447753
0
LINE
8
0
10
249.6516979
20
-111.1447753
11
253.5035464
21
-127.188879
0
LINE
8
0
10
249.5349752
20
-110.6585903
11
266.5514489
21
-106.5732964
0
LINE
8
0
10
266.5514489
20
-106.5732964
11
262.6996004
21
-90.5291927
0
LINE
8
0
10
262.6996004
20
-90.5291927
11
245.6831267
21
-94.6144866
0
LINE
8
0
10
245.6831267
20
-94.6144866
11
249.5349752
21
-110.6585903
0
LINE
8
0
10
238.9970891
20
-148.1546295
11
256.0135628
21
-144.0693356
0
LINE
8
0
10
256.0135628
20
-144.0693356
11
252.1617143
21
-128.0252319
0
LINE
8
0
10
252.1617143
20
-128.0252319
11
235.1452406
21
-132.1105258
0
LINE
8
0
10
235.1452406
20
-132.1105258
11
238.9970891
21
-148.1546295
0
LINE
8
0
10
235.0285179
20
-131.6243409
11
252.0449916
21
-127.539047
0
LINE
8
0
10
252.0449916
20
-127.539047
11
248.1931431
21
-111.4949433
0
LINE
8
0
10
248.1931431
20
-111.4949433
11
231.1766694
21
-115.5802372
0
LINE
8
0
10
231.1766694
20
-115.5802372
11
235.0285179
21
-131.6243409
0
LINE
8
0
10
231.0599467
20
-115.0940522
11
248.0764204
21
-111.0087583
0
LINE
8
0
10
248.0764204
20
-111.0087583
11
244.2245719
21
-94.9646546
0
LINE
8
0
10
244.2245719
20
-94.9646546
11
227.2080982
21
-99.0499485
0
LINE
8
0
10
227.2080982
20
-99.0499485
11
231.0599467
21
-115.0940522
0
LINE
8
0
10
221.4944305
20
-152.3566461
11
238.5109042
21
-148.2713522
0
LINE
8
0
10
238.5109042
20
-148.2713522
11
234.6590557
21
-132.2272485
0
LINE
8
0
10
234.6590557
20
-132.2272485
11
217.642582
21
-136.3125424
0
LINE
8
0
10
217.642582
20
-136.3125424
11
221.4944305
21
-152.3566461
0
LINE
8
0
10
217.5258594
20
-135.8263574
11
234.5423331
21
-131.7410635
0
LINE
8
0
10
234.5423331
20
-131.7410635
11
230.6904846
21
-115.6969598
0
LINE
8
0
10
230.6904846
20
-115.6969598
11
213.6740109
21
-119.7822537
0
LINE
8
0
10
213.6740109
20
-119.7822537
11
217.5258594
21
-135.8263574
0
LINE
8
0
10
213.5572882
20
-119.2960688
11
230.5737619
21
-115.2107749
0
LINE
8
0
10
230.5737619
20
-115.2107749
11
226.7219134
21
-99.1666712
0
LINE
8
0
10
226.7219134
20
-99.1666712
11
209.7054397
21
-103.2519651
0
LINE
8
0
10
209.7054397
20
-103.2519651
11
213.5572882
21
-119.2960688
0
LINE
8
0
10
289.6394165
20
-153.4795407
11
306.6558902
21
-149.3942468
0
LINE
8
0
10
306.6558902
20
-149.3942468
11
302.8040417
21
-133.3501431
0
LINE
8
0
10
302.8040417
20
-133.3501431
11
285.787568
21
-137.435437
0
LINE
8
0
10
285.787568
20
-137.435437
11
289.6394165
21
-153.4795407
0
LINE
8
0
10
272.1367579
20
-157.6815572
11
289.1532316
21
-153.5962633
0
LINE
8
0
10
289.1532316
20
-153.5962633
11
285.3013831
21
-137.5521596
0
LINE
8
0
10
285.3013831
20
-137.5521596
11
268.2849094
21
-141.6374535
0
LINE
8
0
10
268.2849094
20
-141.6374535
11
272.1367579
21
-157.6815572
0
LINE
8
0
10
254.6340993
20
-161.8835738
11
271.650573
21
-157.7982799
0
LINE
8
0
10
271.650573
20
-157.7982799
11
267.7987245
21
-141.7541762
0
LINE
8
0
10
267.7987245
20
-141.7541762
11
250.7822508
21
-145.8394701
0
LINE
8
0
10
250.7822508
20
-145.8394701
11
254.6340993
21
-161.8835738
0
LINE
8
0
10
237.5013085
20
-169.4873221
11
253.5498598
21
-162.5092134
0
LINE
8
0
10
253.5498598
20
-162.5092134
11
246.9705001
21
-147.3777221
0
LINE
8
0
10
246.9705001
20
-147.3777221
11
230.9219488
21
-154.3558308
0
LINE
8
0
10
230.9219488
20
-154.3558308
11
237.5013085
21
-169.4873221
0
LINE
8
0
10
208.7373324
20
-166.0185901
11
220.7835375
21
-178.7126416
0
LINE
8
0
10
220.7835375
20
-178.7126416
11
232.7522146
21
-167.3547911
0
LINE
8
0
10
232.7522146
20
-167.3547911
11
220.7060095
21
-154.6607396
0
LINE
8
0
10
220.7060095
20
-154.6607396
11
208.7373324
21
-166.0185901
0
LINE
8
0
10
197.1351019
20
-137.1145169
11
201.2203958
21
-154.1309906
0
LINE
8
0
10
201.2203958
20
-154.1309906
11
217.2644995
21
-150.2791421
0
LINE
8
0
10
217.2644995
20
-150.2791421
11
213.1792056
21
-133.2626684
0
LINE
8
0
10
213.1792056
20
-133.2626684
11
197.1351019
21
-137.1145169
0
ENDSEC
0
EOF