0
SECTION
2
HEADER
9
$INSUNITS
70
4
0
ENDSEC
0
SECTION
2
TABLES
0
TABLE
2
LTYPE
0
LTYPE
72
65
70
64
2
CONTINUOUS
3
______
73
0
40
0
0
ENDTAB
0
TABLE
2
LAYER
0
ENDTAB
0
ENDSEC
0
SECTION
2
ENTITIES
0
LINE
8
0
10
61.9510255
20
-127.484589
11
88.2050134
21
-133.7876139
0
LINE
8
0
10
61.9510255
20
-127.484589
11
74.3236298
21
-75.9489832
0
LINE
8
0
10
74.3236298
20
-75.9489832
11
184.2014308
21
-102.3283094
0
LINE
8
0
10
142.657729
20
-146.8605543
11
144.1365481
21
-147.2155873
0
LINE
8
0
10
153.1896059
20
-149.3890342
11
170.931041
21
-153.648376
0
LINE
8
0
10
171.9848784
20
-153.2139121
11
184.2014308
21
-102.3283094
0
LINE
8
0
10
84.2364421
20
-150.3179025
11
137.253241
21
-163.0461098
0
LINE
8
0
10
88.2050134
20
-133.7876139
11
84.2364421
21
-150.3179025
0
LINE
8
0
10
140.6442363
20
-155.2473546
11
142.657729
21
-146.8605543
0
LINE
8
0
10
137.2049802
20
-163.1571021
11
155.5461817
21
-171.1320835
0
LINE
8
0
10
155.5461817
20
-171.1320835
11
163.122414
21
-153.7079421
0
LINE
8
0
10
163.122414
20
-153.7079421
11
153.1896059
21
-149.3890342
0
LINE
8
0
10
144.1365481
20
-147.2155873
11
140.6442363
21
-155.2473546
0
LINE
8
0
10
137.253241
20
-163.0461098
11
137.2049802
21
-163.1571021
0
LINE
8
0
10
171.6623387
20
-180.4798028
11
185.4294302
21
-165.9723154
0
LINE
8
0
10
185.4294302
20
-165.9723154
11
171.9848784
21
-153.2139121
0
LINE
8
0
10
170.931041
20
-153.648376
11
157.8802256
21
-167.4010658
0
LINE
8
0
10
157.8802256
20
-167.4010658
11
171.6623387
21
-180.4798028
0
LINE
8
0
10
192.1028613
20
-155.6382597
11
196.1998007
21
-138.573279
0
LINE
8
0
10
196.1998007
20
-136.053544
11
178.2967401
21
-131.7553993
0
LINE
8
0
10
178.2967401
20
-131.7553993
11
173.6278328
21
-151.2027977
0
LINE
8
0
10
173.6278328
20
-151.2027977
11
192.1028613
21
-155.6382597
0
LINE
8
0
10
304.194588
20
-133.7876139
11
330.4485759
21
-127.484589
0
LINE
8
0
10
318.0759716
20
-75.9489832
11
330.4485759
21
-127.484589
0
LINE
8
0
10
208.1981706
20
-102.3283094
11
318.0759716
21
-75.9489832
0
LINE
8
0
10
221.4685604
20
-153.648376
11
239.2099955
21
-149.3890342
0
LINE
8
0
10
248.2630533
20
-147.2155873
11
249.7418724
21
-146.8605543
0
LINE
8
0
10
208.1981706
20
-102.3283094
11
220.414723
21
-153.2139121
0
LINE
8
0
10
255.1463604
20
-163.0461098
11
308.1631593
21
-150.3179025
0
LINE
8
0
10
308.1631593
20
-150.3179025
11
304.194588
21
-133.7876139
0
LINE
8
0
10
249.7418724
20
-146.8605543
11
251.7553651
21
-155.2473546
0
LINE
8
0
10
236.8534197
20
-171.1320835
11
255.1946212
21
-163.1571021
0
LINE
8
0
10
255.1946212
20
-163.1571021
11
255.1463604
21
-163.0461098
0
LINE
8
0
10
251.7553651
20
-155.2473546
11
248.2630533
21
-147.2155873
0
LINE
8
0
10
239.2099955
20
-149.3890342
11
229.2771874
21
-153.7079421
0
LINE
8
0
10
229.2771874
20
-153.7079421
11
236.8534197
21
-171.1320835
0
LINE
8
0
10
206.9701712
20
-165.9723154
11
220.7372627
21
-180.4798028
0
LINE
8
0
10
220.7372627
20
-180.4798028
11
234.5193758
21
-167.4010658
0
LINE
8
0
10
234.5193758
20
-167.4010658
11
221.4685604
21
-153.648376
0
LINE
8
0
10
220.414723
20
-153.2139121
11
206.9701712
21
-165.9723154
0
LINE
8
0
10
196.1998007
20
-138.573279
11
200.2967401
21
-155.6382597
0
LINE
8
0
10
200.2967401
20
-155.6382597
11
218.7717686
21
-151.2027977
0
LINE
8
0
10
218.7717686
20
-151.2027977
11
214.1028613
21
-131.7553993
0
LINE
8
0
10
214.1028613
20
-131.7553993
11
196.1998007
21
-136.053544
0
ENDSEC
0
EOF