solid csg.js
facet normal 0 0 -1
outer loop
vertex 74.8500136786434 -74.55805722212027 0
vertex 75.1599828000002 -74.60715054978479 0
vertex 145.9128120779542 -91.5934024 0
endloop
endfacet
facet normal 0 0 -1
outer loop
vertex 74.8500136786434 -74.55805722212027 0
vertex 145.9128120779542 -91.5934024 0
vertex 69.02510940525556 -91.5934024 0
endloop
endfacet
facet normal 0 0 -1
outer loop
vertex 74.8500136786434 -74.55805722212027 0
vertex 69.02510940525556 -91.5934024 0
vertex 72.74834639999999 -76.08499550000005 0
endloop
endfacet
facet normal 0 0 -1
outer loop
vertex 74.8500136786434 -74.55805722212027 0
vertex 72.74834639999999 -76.08499550000005 0
vertex 72.84532834714655 -75.7865192573372 0
endloop
endfacet
facet normal 0 0 -1
outer loop
vertex 74.8500136786434 -74.55805722212027 0
vertex 72.84532834714655 -75.7865192573372 0
vertex 72.98780832179695 -75.50688910458187 0
endloop
endfacet
facet normal 0 0 -1
outer loop
vertex 74.8500136786434 -74.55805722212027 0
vertex 72.98780832179695 -75.50688910458187 0
vertex 73.17227798377206 -75.25299048442588 0
endloop
endfacet
facet normal 0 0 -1
outer loop
vertex 74.8500136786434 -74.55805722212027 0
vertex 73.17227798377206 -75.25299048442588 0
vertex 73.3941950643881 -75.03107524196318 0
endloop
endfacet
facet normal 0 0 -1
outer loop
vertex 74.8500136786434 -74.55805722212027 0
vertex 73.3941950643881 -75.03107524196318 0
vertex 73.64809521251593 -74.8466076830614 0
endloop
endfacet
facet normal 0 0 -1
outer loop
vertex 74.8500136786434 -74.55805722212027 0
vertex 73.64809521251593 -74.8466076830614 0
vertex 73.92772654543703 -74.70413002462001 0
endloop
endfacet
facet normal 0 0 -1
outer loop
vertex 74.8500136786434 -74.55805722212027 0
vertex 73.92772654543703 -74.70413002462001 0
vertex 74.22620359140059 -74.60715054978479 0
endloop
endfacet
facet normal 0 0 -1
outer loop
vertex 74.8500136786434 -74.55805722212027 0
vertex 74.22620359140059 -74.60715054978479 0
vertex 74.53617683328662 -74.55805722212027 0
endloop
endfacet
facet normal 0 0 -1
outer loop
vertex 317.93291762750897 -74.56475346430821 0
vertex 318.2745396815571 -74.63425774389182 0
vertex 318.59890257575233 -74.76202779344213 0
endloop
endfacet
facet normal 0 0 -1
outer loop
vertex 317.93291762750897 -74.56475346430821 0
vertex 318.59890257575233 -74.76202779344213 0
vertex 318.89615082958545 -74.94418143267417 0
endloop
endfacet
facet normal 0 0 -1
outer loop
vertex 317.93291762750897 -74.56475346430821 0
vertex 318.89615082958545 -74.94418143267417 0
vertex 319.157252816986 -75.17518408388818 0
endloop
endfacet
facet normal 0 0 -1
outer loop
vertex 317.93291762750897 -74.56475346430821 0
vertex 319.157252816986 -75.17518408388818 0
vertex 319.37427518431383 -75.44801693523179 0
endloop
endfacet
facet normal 0 0 -1
outer loop
vertex 317.93291762750897 -74.56475346430821 0
vertex 319.37427518431383 -75.44801693523179 0
vertex 319.5406238983131 -75.75439020110743 0
endloop
endfacet
facet normal 0 0 -1
outer loop
vertex 317.93291762750897 -74.56475346430821 0
vertex 319.5406238983131 -75.75439020110743 0
vertex 319.6512492 -76.08499999999992 0
endloop
endfacet
facet normal 0 0 -1
outer loop
vertex 317.93291762750897 -74.56475346430821 0
vertex 319.6512492 -76.08499999999992 0
vertex 323.3744872503263 -91.5934024 0
endloop
endfacet
facet normal 0 0 -1
outer loop
vertex 317.93291762750897 -74.56475346430821 0
vertex 323.3744872503263 -91.5934024 0
vertex 246.4867898 -91.5934024 0
endloop
endfacet
facet normal 0 0 -1
outer loop
vertex 317.93291762750897 -74.56475346430821 0
vertex 246.4867898 -91.5934024 0
vertex 317.2396246 -74.60715499999999 0
endloop
endfacet
facet normal 0 0 -1
outer loop
vertex 317.93291762750897 -74.56475346430821 0
vertex 317.2396246 -74.60715499999999 0
vertex 317.5844162984683 -74.55562678093555 0
endloop
endfacet
facet normal 0 0 1
outer loop
vertex 145.9128120779542 -91.5934024 0
vertex 146.06682139809536 -91.62403742750445 0
vertex 146.0668310545847 -91.62403742750445 0
endloop
endfacet
facet normal 0 0 1
outer loop
vertex 145.9128120779542 -91.5934024 0
vertex 146.0668310545847 -91.62403742750445 0
vertex 146.06682139809536 -91.62403742750445 0
endloop
endfacet
facet normal 0 0 1
outer loop
vertex 145.9128120779542 -91.5934024 0
vertex 146.06682139809536 -91.62403742750445 0
vertex 69.01775458999471 -91.62403742750445 0
endloop
endfacet
facet normal 0 0 1
outer loop
vertex 145.9128120779542 -91.5934024 0
vertex 69.01775458999471 -91.62403742750445 0
vertex 69.02510940525556 -91.5934024 0
endloop
endfacet
facet normal 0 0 -1
outer loop
vertex 323.3744872503263 -91.5934024 0
vertex 323.38184206980645 -91.62403742750445 0
vertex 246.33276663000476 -91.62403742750445 0
endloop
endfacet
facet normal 0 0 -1
outer loop
vertex 323.3744872503263 -91.5934024 0
vertex 246.33276663000476 -91.62403742750445 0
vertex 246.4867898 -91.5934024 0
endloop
endfacet
facet normal 0 0 -1
outer loop
vertex 146.06682139809536 -91.62403742750445 0
vertex 146.22278490294383 -91.64249650498982 0
vertex 69.01332296006485 -91.64249650498982 0
endloop
endfacet
facet normal 0 0 -1
outer loop
vertex 146.06682139809536 -91.62403742750445 0
vertex 69.01332296006485 -91.64249650498982 0
vertex 69.01775458999471 -91.62403742750445 0
endloop
endfacet
facet normal 0 0 -1
outer loop
vertex 323.38184206980645 -91.62403742750445 0
vertex 323.38627370227863 -91.64249650498982 0
vertex 246.17681948928742 -91.64249650498982 0
endloop
endfacet
facet normal 0 0 -1
outer loop
vertex 323.38184206980645 -91.62403742750445 0
vertex 246.17681948928742 -91.64249650498982 0
vertex 246.17680980596626 -91.64249650498982 0
endloop
endfacet
facet normal 0 0 -1
outer loop
vertex 323.38184206980645 -91.62403742750445 0
vertex 246.17680980596626 -91.64249650498982 0
vertex 246.17681948928742 -91.64249650498982 0
endloop
endfacet
facet normal 0 0 -1
outer loop
vertex 323.38184206980645 -91.62403742750445 0
vertex 246.17681948928742 -91.64249650498982 0
vertex 246.33276663000476 -91.62403742750445 0
endloop
endfacet
facet normal 0 0 -1
outer loop
vertex 146.22278490294383 -91.64249650498982 0
vertex 146.37970240000007 -91.64866180151012 0
vertex 69.01184280415742 -91.64866180151012 0
endloop
endfacet
facet normal 0 0 -1
outer loop
vertex 146.22278490294383 -91.64249650498982 0
vertex 69.01184280415742 -91.64866180151012 0
vertex 69.01332296006485 -91.64249650498982 0
endloop
endfacet
facet normal 0 0 -1
outer loop
vertex 146.37970240000007 -91.64866180151012 0
vertex 246.01990489999977 -91.64866180151012 0
vertex 187.9379916445974 -93.93094643092552 0
endloop
endfacet
facet normal 0 0 -1
outer loop
vertex 146.37970240000007 -91.64866180151012 0
vertex 187.9379916445974 -93.93094643092552 0
vertex 68.4639150499033 -93.93094643092552 0
endloop
endfacet
facet normal 0 0 -1
outer loop
vertex 146.37970240000007 -91.64866180151012 0
vertex 68.4639150499033 -93.93094643092552 0
vertex 69.01184280415742 -91.64866180151012 0
endloop
endfacet
facet normal 0 0 -1
outer loop
vertex 323.38627370227863 -91.64249650498982 0
vertex 323.93568192762297 -93.93094643092552 0
vertex 187.9379916445974 -93.93094643092552 0
endloop
endfacet
facet normal 0 0 -1
outer loop
vertex 323.38627370227863 -91.64249650498982 0
vertex 187.9379916445974 -93.93094643092552 0
vertex 246.01990489999977 -91.64866180151012 0
endloop
endfacet
facet normal 0 0 -1
outer loop
vertex 323.38627370227863 -91.64249650498982 0
vertex 246.01990489999977 -91.64866180151012 0
vertex 246.17681948928742 -91.64249650498982 0
endloop
endfacet
facet normal 0 0 -1
outer loop
vertex 187.9379916445974 -93.93094643092552 0
vertex 323.93568192762297 -93.93094643092552 0
vertex 331.99954010000005 -127.51933260000006 0
endloop
endfacet
facet normal 0 0 -1
outer loop
vertex 187.9379916445974 -93.93094643092552 0
vertex 331.99954010000005 -127.51933260000006 0
vertex 332.04643363271833 -127.8034885841708 0
endloop
endfacet
facet normal 0 0 -1
outer loop
vertex 187.9379916445974 -93.93094643092552 0
vertex 332.04643363271833 -127.8034885841708 0
vertex 332.05202880357103 -128.09143358033168 0
endloop
endfacet
facet normal 0 0 -1
outer loop
vertex 187.9379916445974 -93.93094643092552 0
vertex 332.05202880357103 -128.09143358033168 0
vertex 332.01620959161744 -128.37719678790975 0
endloop
endfacet
facet normal 0 0 -1
outer loop
vertex 187.9379916445974 -93.93094643092552 0
vertex 332.01620959161744 -128.37719678790975 0
vertex 331.939718740694 -128.6548526477007 0
endloop
endfacet
facet normal 0 0 -1
outer loop
vertex 187.9379916445974 -93.93094643092552 0
vertex 331.939718740694 -128.6548526477007 0
vertex 331.82414235794823 -128.91864371370227 0
endloop
endfacet
facet normal 0 0 -1
outer loop
vertex 187.9379916445974 -93.93094643092552 0
vertex 331.82414235794823 -128.91864371370227 0
vertex 331.67187702446785 -129.16310003898568 0
endloop
endfacet
facet normal 0 0 -1
outer loop
vertex 187.9379916445974 -93.93094643092552 0
vertex 331.67187702446785 -129.16310003898568 0
vertex 331.4860802000001 -129.3831551999999 0
endloop
endfacet
facet normal 0 0 -1
outer loop
vertex 187.9379916445974 -93.93094643092552 0
vertex 331.4860802000001 -129.3831551999999 0
vertex 310.37732355 -151.01088389999995 0
endloop
endfacet
facet normal 0 0 -1
outer loop
vertex 187.9379916445974 -93.93094643092552 0
vertex 310.37732355 -151.01088389999995 0
vertex 310.16642702789585 -151.19845205999502 0
endloop
endfacet
facet normal 0 0 -1
outer loop
vertex 187.9379916445974 -93.93094643092552 0
vertex 310.16642702789585 -151.19845205999502 0
vertex 309.9312271143693 -151.3544632664179 0
endloop
endfacet
facet normal 0 0 -1
outer loop
vertex 187.9379916445974 -93.93094643092552 0
vertex 309.9312271143693 -151.3544632664179 0
vertex 309.6764077398493 -151.4758137559085 0
endloop
endfacet
facet normal 0 0 -1
outer loop
vertex 187.9379916445974 -93.93094643092552 0
vertex 309.6764077398493 -151.4758137559085 0
vertex 309.4070471000004 -151.56008929999987 0
endloop
endfacet
facet normal 0 0 -1
outer loop
vertex 187.9379916445974 -93.93094643092552 0
vertex 309.4070471000004 -151.56008929999987 0
vertex 257.56014620000127 -163.84175189999968 0
endloop
endfacet
facet normal 0 0 -1
outer loop
vertex 187.9379916445974 -93.93094643092552 0
vertex 257.56014620000127 -163.84175189999968 0
vertex 134.83944201272595 -163.84175189999968 0
endloop
endfacet
facet normal 0 0 -1
outer loop
vertex 187.9379916445974 -93.93094643092552 0
vertex 134.83944201272595 -163.84175189999968 0
vertex 82.99254585000025 -151.56008695000006 0
endloop
endfacet
facet normal 0 0 -1
outer loop
vertex 187.9379916445974 -93.93094643092552 0
vertex 82.99254585000025 -151.56008695000006 0
vertex 82.7231870045782 -151.4758137559085 0
endloop
endfacet
facet normal 0 0 -1
outer loop
vertex 187.9379916445974 -93.93094643092552 0
vertex 82.7231870045782 -151.4758137559085 0
vertex 82.46837292029383 -151.3544632664179 0
endloop
endfacet
facet normal 0 0 -1
outer loop
vertex 187.9379916445974 -93.93094643092552 0
vertex 82.46837292029383 -151.3544632664179 0
vertex 82.23317797494047 -151.19845205999502 0
endloop
endfacet
facet normal 0 0 -1
outer loop
vertex 187.9379916445974 -93.93094643092552 0
vertex 82.23317797494047 -151.19845205999502 0
vertex 82.02228169999992 -151.01088389999995 0
endloop
endfacet
facet normal 0 0 -1
outer loop
vertex 187.9379916445974 -93.93094643092552 0
vertex 82.02228169999992 -151.01088389999995 0
vertex 60.913521399999894 -129.38316359999988 0
endloop
endfacet
facet normal 0 0 -1
outer loop
vertex 187.9379916445974 -93.93094643092552 0
vertex 60.913521399999894 -129.38316359999988 0
vertex 60.72772201698976 -129.16310900752535 0
endloop
endfacet
facet normal 0 0 -1
outer loop
vertex 187.9379916445974 -93.93094643092552 0
vertex 60.72772201698976 -129.16310900752535 0
vertex 60.57545492681376 -128.91865007918437 0
endloop
endfacet
facet normal 0 0 -1
outer loop
vertex 187.9379916445974 -93.93094643092552 0
vertex 60.57545492681376 -128.91865007918437 0
vertex 60.4598775944568 -128.6548560029781 0
endloop
endfacet
facet normal 0 0 -1
outer loop
vertex 187.9379916445974 -93.93094643092552 0
vertex 60.4598775944568 -128.6548560029781 0
vertex 60.38338667292862 -128.37719678790975 0
endloop
endfacet
facet normal 0 0 -1
outer loop
vertex 187.9379916445974 -93.93094643092552 0
vertex 60.38338667292862 -128.37719678790975 0
vertex 60.34756830540755 -128.09143043122413 0
endloop
endfacet
facet normal 0 0 -1
outer loop
vertex 187.9379916445974 -93.93094643092552 0
vertex 60.34756830540755 -128.09143043122413 0
vertex 60.35316523440693 -127.80348233037599 0
endloop
endfacet
facet normal 0 0 -1
outer loop
vertex 187.9379916445974 -93.93094643092552 0
vertex 60.35316523440693 -127.80348233037599 0
vertex 60.40006279999997 -127.51932720000022 0
endloop
endfacet
facet normal 0 0 -1
outer loop
vertex 187.9379916445974 -93.93094643092552 0
vertex 60.40006279999997 -127.51932720000022 0
vertex 68.4639150499033 -93.93094643092552 0
endloop
endfacet
facet normal 0 0 -1
outer loop
vertex 257.56014620000127 -163.84175189999968 0
vertex 257.3694154774854 -163.89706641318423 0
vertex 135.03018585526664 -163.89706641318423 0
endloop
endfacet
facet normal 0 0 -1
outer loop
vertex 257.56014620000127 -163.84175189999968 0
vertex 135.03018585526664 -163.89706641318423 0
vertex 134.83944201272595 -163.84175189999968 0
endloop
endfacet
facet normal 0 0 -1
outer loop
vertex 257.3694154774854 -163.89706641318423 0
vertex 257.1851106829218 -163.97102362221307 0
vertex 135.21449153934125 -163.97102362221307 0
endloop
endfacet
facet normal 0 0 -1
outer loop
vertex 257.3694154774854 -163.89706641318423 0
vertex 135.21449153934125 -163.97102362221307 0
vertex 135.03018585526664 -163.89706641318423 0
endloop
endfacet
facet normal 0 0 -1
outer loop
vertex 257.1851106829218 -163.97102362221307 0
vertex 257.00904896500117 -164.0628938992408 0
vertex 135.39055259753678 -164.0628938992408 0
endloop
endfacet
facet normal 0 0 -1
outer loop
vertex 257.1851106829218 -163.97102362221307 0
vertex 135.39055259753678 -164.0628938992408 0
vertex 135.21449153934125 -163.97102362221307 0
endloop
endfacet
facet normal 0 0 -1
outer loop
vertex 257.00904896500117 -164.0628938992408 0
vertex 256.84296239999935 -164.17177380000047 0
vertex 135.55663854491848 -164.17177380000047 0
endloop
endfacet
facet normal 0 0 -1
outer loop
vertex 257.00904896500117 -164.0628938992408 0
vertex 135.55663854491848 -164.17177380000047 0
vertex 135.39055259753678 -164.0628938992408 0
endloop
endfacet
facet normal 0 0 -1
outer loop
vertex 256.84296239999935 -164.17177380000047 0
vertex 221.17677374999957 -190.17336950000032 0
vertex 220.96436020842236 -190.30860776557432 0
endloop
endfacet
facet normal 0 0 -1
outer loop
vertex 256.84296239999935 -164.17177380000047 0
vertex 220.96436020842236 -190.30860776557432 0
vertex 220.73663679623994 -190.41608455537664 0
endloop
endfacet
facet normal 0 0 -1
outer loop
vertex 256.84296239999935 -164.17177380000047 0
vertex 220.73663679623994 -190.41608455537664 0
vertex 220.49721343628542 -190.4940917961077 0
endloop
endfacet
facet normal 0 0 -1
outer loop
vertex 256.84296239999935 -164.17177380000047 0
vertex 220.49721343628542 -190.4940917961077 0
vertex 220.24988552159851 -190.54139867642826 0
endloop
endfacet
facet normal 0 0 -1
outer loop
vertex 256.84296239999935 -164.17177380000047 0
vertex 220.24988552159851 -190.54139867642826 0
vertex 219.9985774999996 -190.55725095000003 0
endloop
endfacet
facet normal 0 0 -1
outer loop
vertex 256.84296239999935 -164.17177380000047 0
vertex 219.9985774999996 -190.55725095000003 0
vertex 172.4010237000001 -190.55725095000003 0
endloop
endfacet
facet normal 0 0 -1
outer loop
vertex 256.84296239999935 -164.17177380000047 0
vertex 172.4010237000001 -190.55725095000003 0
vertex 172.14971192840187 -190.54139867642826 0
endloop
endfacet
facet normal 0 0 -1
outer loop
vertex 256.84296239999935 -164.17177380000047 0
vertex 172.14971192840187 -190.54139867642826 0
vertex 171.9023840137139 -190.49409324610752 0
endloop
endfacet
facet normal 0 0 -1
outer loop
vertex 256.84296239999935 -164.17177380000047 0
vertex 171.9023840137139 -190.49409324610752 0
vertex 171.66296065375997 -190.41608455537664 0
endloop
endfacet
facet normal 0 0 -1
outer loop
vertex 256.84296239999935 -164.17177380000047 0
vertex 171.66296065375997 -190.41608455537664 0
vertex 171.4352372415781 -190.3086092155746 0
endloop
endfacet
facet normal 0 0 -1
outer loop
vertex 256.84296239999935 -164.17177380000047 0
vertex 171.4352372415781 -190.3086092155746 0
vertex 171.22282739999983 -190.1733718999999 0
endloop
endfacet
facet normal 0 0 -1
outer loop
vertex 256.84296239999935 -164.17177380000047 0
vertex 171.22282739999983 -190.1733718999999 0
vertex 135.55663854491848 -164.17177380000047 0
endloop
endfacet
facet normal 0 0 1
outer loop
vertex 219.9985775000001 -190.55724950641363 1
vertex 220.24988552159837 -190.5413986764282 1
vertex 220.49721343628545 -190.49409179610768 1
endloop
endfacet
facet normal 0 0 1
outer loop
vertex 219.9985775000001 -190.55724950641363 1
vertex 220.49721343628545 -190.49409179610768 1
vertex 220.7366367962401 -190.41608455537656 1
endloop
endfacet
facet normal 0 0 1
outer loop
vertex 219.9985775000001 -190.55724950641363 1
vertex 220.7366367962401 -190.41608455537656 1
vertex 220.9643602084223 -190.30860776557438 1
endloop
endfacet
facet normal 0 0 1
outer loop
vertex 219.9985775000001 -190.55724950641363 1
vertex 220.9643602084223 -190.30860776557438 1
vertex 221.17677375000002 -190.17336950000004 1
endloop
endfacet
facet normal 0 0 1
outer loop
vertex 219.9985775000001 -190.55724950641363 1
vertex 221.17677375000002 -190.17336950000004 1
vertex 256.84296239999986 -164.1717738000001 1
endloop
endfacet
facet normal 0 0 1
outer loop
vertex 219.9985775000001 -190.55724950641363 1
vertex 256.84296239999986 -164.1717738000001 1
vertex 135.55663564999978 -164.1717738000001 1
endloop
endfacet
facet normal 0 0 1
outer loop
vertex 219.9985775000001 -190.55724950641363 1
vertex 135.55663564999978 -164.1717738000001 1
vertex 171.22282740000006 -190.17337190000006 1
endloop
endfacet
facet normal 0 0 1
outer loop
vertex 219.9985775000001 -190.55724950641363 1
vertex 171.22282740000006 -190.17337190000006 1
vertex 171.43523724157808 -190.3086092155746 1
endloop
endfacet
facet normal 0 0 1
outer loop
vertex 219.9985775000001 -190.55724950641363 1
vertex 171.43523724157808 -190.3086092155746 1
vertex 171.6629606537598 -190.41608455537656 1
endloop
endfacet
facet normal 0 0 1
outer loop
vertex 219.9985775000001 -190.55724950641363 1
vertex 171.6629606537598 -190.41608455537656 1
vertex 171.90238401371428 -190.49409324610764 1
endloop
endfacet
facet normal 0 0 1
outer loop
vertex 219.9985775000001 -190.55724950641363 1
vertex 171.90238401371428 -190.49409324610764 1
vertex 172.14971192840144 -190.5413986764282 1
endloop
endfacet
facet normal 0 0 1
outer loop
vertex 219.9985775000001 -190.55724950641363 1
vertex 172.14971192840144 -190.5413986764282 1
vertex 172.40102370000028 -190.55724950641363 1
endloop
endfacet
facet normal 0 0 1
outer loop
vertex 256.84296239999986 -164.1717738000001 1
vertex 257.0090489650006 -164.06289389924115 1
vertex 135.3905528849992 -164.06289389924115 1
endloop
endfacet
facet normal 0 0 1
outer loop
vertex 256.84296239999986 -164.1717738000001 1
vertex 135.3905528849992 -164.06289389924115 1
vertex 135.55663564999978 -164.1717738000001 1
endloop
endfacet
facet normal 0 0 1
outer loop
vertex 257.0090489650006 -164.06289389924115 1
vertex 257.1851103954599 -163.9710236222131 1
vertex 135.21449116707814 -163.9710236222131 1
endloop
endfacet
facet normal 0 0 1
outer loop
vertex 257.0090489650006 -164.06289389924115 1
vertex 135.21449116707814 -163.9710236222131 1
vertex 135.3905528849992 -164.06289389924115 1
endloop
endfacet
facet normal 0 0 1
outer loop
vertex 257.1851103954599 -163.9710236222131 1
vertex 257.3694158502595 -163.89706641318423 1
vertex 135.03018637251418 -163.89706641318423 1
endloop
endfacet
facet normal 0 0 1
outer loop
vertex 257.1851103954599 -163.9710236222131 1
vertex 135.03018637251418 -163.89706641318423 1
vertex 135.21449116707814 -163.9710236222131 1
endloop
endfacet
facet normal 0 0 1
outer loop
vertex 257.3694158502595 -163.89706641318423 1
vertex 257.5601386141502 -163.8417541 1
vertex 134.83945130000004 -163.8417541 1
endloop
endfacet
facet normal 0 0 1
outer loop
vertex 257.3694158502595 -163.89706641318423 1
vertex 134.83945130000004 -163.8417541 1
vertex 135.03018637251418 -163.89706641318423 1
endloop
endfacet
facet normal 0 0 1
outer loop
vertex 134.83945130000004 -163.8417541 1
vertex 257.5601386141502 -163.8417541 1
vertex 257.560146200001 -163.84175189999974 1
endloop
endfacet
facet normal 0 0 1
outer loop
vertex 134.83945130000004 -163.8417541 1
vertex 257.560146200001 -163.84175189999974 1
vertex 134.83944201272624 -163.84175189999974 1
endloop
endfacet
facet normal 0 0 1
outer loop
vertex 257.560146200001 -163.84175189999974 1
vertex 309.4070471000002 -151.5600892999999 1
vertex 309.6764077398495 -151.47581375590852 1
endloop
endfacet
facet normal 0 0 1
outer loop
vertex 257.560146200001 -163.84175189999974 1
vertex 309.6764077398495 -151.47581375590852 1
vertex 309.9312271143696 -151.35446326641787 1
endloop
endfacet
facet normal 0 0 1
outer loop
vertex 257.560146200001 -163.84175189999974 1
vertex 309.9312271143696 -151.35446326641787 1
vertex 310.16642702789534 -151.19845205999508 1
endloop
endfacet
facet normal 0 0 1
outer loop
vertex 257.560146200001 -163.84175189999974 1
vertex 310.16642702789534 -151.19845205999508 1
vertex 310.37732354999974 -151.01088389999987 1
endloop
endfacet
facet normal 0 0 1
outer loop
vertex 257.560146200001 -163.84175189999974 1
vertex 310.37732354999974 -151.01088389999987 1
vertex 331.4860802000004 -129.38315519999952 1
endloop
endfacet
facet normal 0 0 1
outer loop
vertex 257.560146200001 -163.84175189999974 1
vertex 331.4860802000004 -129.38315519999952 1
vertex 331.6718770244678 -129.16310003898565 1
endloop
endfacet
facet normal 0 0 1
outer loop
vertex 257.560146200001 -163.84175189999974 1
vertex 331.6718770244678 -129.16310003898565 1
vertex 331.8241423579483 -128.91864371370204 1
endloop
endfacet
facet normal 0 0 1
outer loop
vertex 257.560146200001 -163.84175189999974 1
vertex 331.8241423579483 -128.91864371370204 1
vertex 331.93971874069405 -128.65485264770044 1
endloop
endfacet
facet normal 0 0 1
outer loop
vertex 257.560146200001 -163.84175189999974 1
vertex 331.93971874069405 -128.65485264770044 1
vertex 332.01620959161744 -128.37719678790987 1
endloop
endfacet
facet normal 0 0 1
outer loop
vertex 257.560146200001 -163.84175189999974 1
vertex 332.01620959161744 -128.37719678790987 1
vertex 332.0520288035711 -128.09143358033143 1
endloop
endfacet
facet normal 0 0 1
outer loop
vertex 257.560146200001 -163.84175189999974 1
vertex 332.0520288035711 -128.09143358033143 1
vertex 332.0464336327184 -127.80348858417133 1
endloop
endfacet
facet normal 0 0 1
outer loop
vertex 257.560146200001 -163.84175189999974 1
vertex 332.0464336327184 -127.80348858417133 1
vertex 331.9995400999999 -127.51933259999939 1
endloop
endfacet
facet normal 0 0 1
outer loop
vertex 257.560146200001 -163.84175189999974 1
vertex 331.9995400999999 -127.51933259999939 1
vertex 323.38775405153416 -91.64866260332599 1
endloop
endfacet
facet normal 0 0 1
outer loop
vertex 257.560146200001 -163.84175189999974 1
vertex 323.38775405153416 -91.64866260332599 1
vertex 246.01989827576008 -91.64866260332599 1
endloop
endfacet
facet normal 0 0 1
outer loop
vertex 257.560146200001 -163.84175189999974 1
vertex 246.01989827576008 -91.64866260332599 1
vertex 146.37970240000016 -91.64866260332599 1
endloop
endfacet
facet normal 0 0 1
outer loop
vertex 257.560146200001 -163.84175189999974 1
vertex 146.37970240000016 -91.64866260332599 1
vertex 69.01184261165857 -91.64866260332599 1
endloop
endfacet
facet normal 0 0 1
outer loop
vertex 257.560146200001 -163.84175189999974 1
vertex 69.01184261165857 -91.64866260332599 1
vertex 60.4000628 -127.51932720000008 1
endloop
endfacet
facet normal 0 0 1
outer loop
vertex 257.560146200001 -163.84175189999974 1
vertex 60.4000628 -127.51932720000008 1
vertex 60.35316523440693 -127.80348233037606 1
endloop
endfacet
facet normal 0 0 1
outer loop
vertex 257.560146200001 -163.84175189999974 1
vertex 60.35316523440693 -127.80348233037606 1
vertex 60.34756830540755 -128.09143043122407 1
endloop
endfacet
facet normal 0 0 1
outer loop
vertex 257.560146200001 -163.84175189999974 1
vertex 60.34756830540755 -128.09143043122407 1
vertex 60.38338667292862 -128.37719678790987 1
endloop
endfacet
facet normal 0 0 1
outer loop
vertex 257.560146200001 -163.84175189999974 1
vertex 60.38338667292862 -128.37719678790987 1
vertex 60.4598775944568 -128.6548560029781 1
endloop
endfacet
facet normal 0 0 1
outer loop
vertex 257.560146200001 -163.84175189999974 1
vertex 60.4598775944568 -128.6548560029781 1
vertex 60.57545492681376 -128.91865007918443 1
endloop
endfacet
facet normal 0 0 1
outer loop
vertex 257.560146200001 -163.84175189999974 1
vertex 60.57545492681376 -128.91865007918443 1
vertex 60.7277220169897 -129.16310900752526 1
endloop
endfacet
facet normal 0 0 1
outer loop
vertex 257.560146200001 -163.84175189999974 1
vertex 60.7277220169897 -129.16310900752526 1
vertex 60.91352139999995 -129.38316359999993 1
endloop
endfacet
facet normal 0 0 1
outer loop
vertex 257.560146200001 -163.84175189999974 1
vertex 60.91352139999995 -129.38316359999993 1
vertex 82.02228169999984 -151.01088389999987 1
endloop
endfacet
facet normal 0 0 1
outer loop
vertex 257.560146200001 -163.84175189999974 1
vertex 82.02228169999984 -151.01088389999987 1
vertex 82.23317797494056 -151.19845205999508 1
endloop
endfacet
facet normal 0 0 1
outer loop
vertex 257.560146200001 -163.84175189999974 1
vertex 82.23317797494056 -151.19845205999508 1
vertex 82.46837292029377 -151.35446326641787 1
endloop
endfacet
facet normal 0 0 1
outer loop
vertex 257.560146200001 -163.84175189999974 1
vertex 82.46837292029377 -151.35446326641787 1
vertex 82.72318700457825 -151.47581375590852 1
endloop
endfacet
facet normal 0 0 1
outer loop
vertex 257.560146200001 -163.84175189999974 1
vertex 82.72318700457825 -151.47581375590852 1
vertex 82.99254585000003 -151.56008695 1
endloop
endfacet
facet normal 0 0 1
outer loop
vertex 257.560146200001 -163.84175189999974 1
vertex 82.99254585000003 -151.56008695 1
vertex 134.83944201272624 -163.84175189999974 1
endloop
endfacet
facet normal 0 0 1
outer loop
vertex 146.37970240000016 -91.64866260332599 1
vertex 146.22278486522706 -91.64249650498981 1
vertex 69.01332296006485 -91.64249650498981 1
endloop
endfacet
facet normal 0 0 1
outer loop
vertex 146.37970240000016 -91.64866260332599 1
vertex 69.01332296006485 -91.64249650498981 1
vertex 69.01184261165857 -91.64866260332599 1
endloop
endfacet
facet normal 0 0 1
outer loop
vertex 323.38775405153416 -91.64866260332599 1
vertex 323.38627370227863 -91.64249650498981 1
vertex 246.17681948928737 -91.64249650498981 1
endloop
endfacet
facet normal 0 0 1
outer loop
vertex 323.38775405153416 -91.64866260332599 1
vertex 246.17681948928737 -91.64249650498981 1
vertex 246.01989827576008 -91.64866260332599 1
endloop
endfacet
facet normal 0 0 1
outer loop
vertex 146.22278486522706 -91.64249650498981 1
vertex 146.06682139809553 -91.62403742750445 1
vertex 69.01775458999471 -91.62403742750445 1
endloop
endfacet
facet normal 0 0 1
outer loop
vertex 146.22278486522706 -91.64249650498981 1
vertex 69.01775458999471 -91.62403742750445 1
vertex 69.01332296006485 -91.64249650498981 1
endloop
endfacet
facet normal 0 0 1
outer loop
vertex 323.38627370227863 -91.64249650498981 1
vertex 323.38184206980645 -91.62403742750445 1
vertex 246.33276663000478 -91.62403742750445 1
endloop
endfacet
facet normal 0 0 1
outer loop
vertex 323.38627370227863 -91.64249650498981 1
vertex 246.33276663000478 -91.62403742750445 1
vertex 246.17681948928737 -91.64249650498981 1
endloop
endfacet
facet normal 0 0 1
outer loop
vertex 146.06682139809553 -91.62403742750445 1
vertex 145.91280619999992 -91.59340239999997 1
vertex 69.02510940525556 -91.59340239999997 1
endloop
endfacet
facet normal 0 0 1
outer loop
vertex 146.06682139809553 -91.62403742750445 1
vertex 69.02510940525556 -91.59340239999997 1
vertex 69.01775458999471 -91.62403742750445 1
endloop
endfacet
facet normal 0 0 1
outer loop
vertex 323.38184206980645 -91.62403742750445 1
vertex 323.3744872503263 -91.59340239999997 1
vertex 246.48678980000017 -91.59340239999997 1
endloop
endfacet
facet normal 0 0 1
outer loop
vertex 323.38184206980645 -91.62403742750445 1
vertex 246.48678980000017 -91.59340239999997 1
vertex 246.33276663000478 -91.62403742750445 1
endloop
endfacet
facet normal 0 0 1
outer loop
vertex 145.91280619999992 -91.59340239999997 1
vertex 75.15998279999994 -74.60715054978476 1
vertex 74.85001367864353 -74.55805722212027 1
endloop
endfacet
facet normal 0 0 1
outer loop
vertex 145.91280619999992 -91.59340239999997 1
vertex 74.85001367864353 -74.55805722212027 1
vertex 74.5361768332865 -74.55805722212027 1
endloop
endfacet
facet normal 0 0 1
outer loop
vertex 145.91280619999992 -91.59340239999997 1
vertex 74.5361768332865 -74.55805722212027 1
vertex 74.22620359140069 -74.60715054978476 1
endloop
endfacet
facet normal 0 0 1
outer loop
vertex 145.91280619999992 -91.59340239999997 1
vertex 74.22620359140069 -74.60715054978476 1
vertex 73.92772654543708 -74.70413002462 1
endloop
endfacet
facet normal 0 0 1
outer loop
vertex 145.91280619999992 -91.59340239999997 1
vertex 73.92772654543708 -74.70413002462 1
vertex 73.64809521251597 -74.84660768306139 1
endloop
endfacet
facet normal 0 0 1
outer loop
vertex 145.91280619999992 -91.59340239999997 1
vertex 73.64809521251597 -74.84660768306139 1
vertex 73.39419506438799 -75.03107524196328 1
endloop
endfacet
facet normal 0 0 1
outer loop
vertex 145.91280619999992 -91.59340239999997 1
vertex 73.39419506438799 -75.03107524196328 1
vertex 73.17227798377212 -75.25299048442581 1
endloop
endfacet
facet normal 0 0 1
outer loop
vertex 145.91280619999992 -91.59340239999997 1
vertex 73.17227798377212 -75.25299048442581 1
vertex 72.98780832179698 -75.50688910458184 1
endloop
endfacet
facet normal 0 0 1
outer loop
vertex 145.91280619999992 -91.59340239999997 1
vertex 72.98780832179698 -75.50688910458184 1
vertex 72.84532834714653 -75.78651925733728 1
endloop
endfacet
facet normal 0 0 1
outer loop
vertex 145.91280619999992 -91.59340239999997 1
vertex 72.84532834714653 -75.78651925733728 1
vertex 72.74834639999997 -76.08499550000009 1
endloop
endfacet
facet normal 0 0 1
outer loop
vertex 145.91280619999992 -91.59340239999997 1
vertex 72.74834639999997 -76.08499550000009 1
vertex 69.02510940525556 -91.59340239999997 1
endloop
endfacet
facet normal 0 0 1
outer loop
vertex 323.3744872503263 -91.59340239999997 1
vertex 319.65124920000005 -76.0850000000002 1
vertex 319.54062389831296 -75.75439020110727 1
endloop
endfacet
facet normal 0 0 1
outer loop
vertex 323.3744872503263 -91.59340239999997 1
vertex 319.54062389831296 -75.75439020110727 1
vertex 319.3742751843138 -75.44801693523168 1
endloop
endfacet
facet normal 0 0 1
outer loop
vertex 323.3744872503263 -91.59340239999997 1
vertex 319.3742751843138 -75.44801693523168 1
vertex 319.1572528169861 -75.17518408388828 1
endloop
endfacet
facet normal 0 0 1
outer loop
vertex 323.3744872503263 -91.59340239999997 1
vertex 319.1572528169861 -75.17518408388828 1
vertex 318.89615082958545 -74.9441814326742 1
endloop
endfacet
facet normal 0 0 1
outer loop
vertex 323.3744872503263 -91.59340239999997 1
vertex 318.89615082958545 -74.9441814326742 1
vertex 318.5989025757521 -74.76202779344204 1
endloop
endfacet
facet normal 0 0 1
outer loop
vertex 323.3744872503263 -91.59340239999997 1
vertex 318.5989025757521 -74.76202779344204 1
vertex 318.27453968155714 -74.63425774389184 1
endloop
endfacet
facet normal 0 0 1
outer loop
vertex 323.3744872503263 -91.59340239999997 1
vertex 318.27453968155714 -74.63425774389184 1
vertex 317.93291762750886 -74.5647534643082 1
endloop
endfacet
facet normal 0 0 1
outer loop
vertex 323.3744872503263 -91.59340239999997 1
vertex 317.93291762750886 -74.5647534643082 1
vertex 317.5844162984684 -74.55562678093555 1
endloop
endfacet
facet normal 0 0 1
outer loop
vertex 323.3744872503263 -91.59340239999997 1
vertex 317.5844162984684 -74.55562678093555 1
vertex 317.23962459999973 -74.60715500000006 1
endloop
endfacet
facet normal 0 0 1
outer loop
vertex 323.3744872503263 -91.59340239999997 1
vertex 317.23962459999973 -74.60715500000006 1
vertex 246.48678980000017 -91.59340239999997 1
endloop
endfacet
facet normal 0.23344536719168496 0.9723699195968268 0
outer loop
vertex 75.15998279999994 -74.60715054978476 1
vertex 145.91280619999992 -91.59340239999997 1
vertex 145.9128120779542 -91.5934024 0
endloop
endfacet
facet normal 0.23344536719168496 0.9723699195968268 0
outer loop
vertex 75.15998279999994 -74.60715054978476 1
vertex 145.9128120779542 -91.5934024 0
vertex 75.1599828000002 -74.60715054978479 0
endloop
endfacet
facet normal 0.1564277145986068 0.9876894097364095 0
outer loop
vertex 74.85001367864353 -74.55805722212027 1
vertex 75.15998279999994 -74.60715054978476 1
vertex 75.1599828000002 -74.60715054978479 0
endloop
endfacet
facet normal 0.1564277145986068 0.9876894097364095 0
outer loop
vertex 74.85001367864353 -74.55805722212027 1
vertex 75.1599828000002 -74.60715054978479 0
vertex 74.8500136786434 -74.55805722212027 0
endloop
endfacet
facet normal 0.000005301249103695227 0.9999999999859484 0
outer loop
vertex 74.5361768332865 -74.55805722212027 1
vertex 74.85001367864353 -74.55805722212027 1
vertex 74.8500136786434 -74.55805722212027 0
endloop
endfacet
facet normal 0.000005301249103695227 0.9999999999859484 0
outer loop
vertex 74.5361768332865 -74.55805722212027 1
vertex 74.8500136786434 -74.55805722212027 0
vertex 74.53617683328662 -74.55805722212027 0
endloop
endfacet
facet normal -0.15642945814077802 0.9876891335970963 0
outer loop
vertex 74.22620359140069 -74.60715054978476 1
vertex 74.5361768332865 -74.55805722212027 1
vertex 74.53617683328662 -74.55805722212027 0
endloop
endfacet
facet normal -0.15642945814077802 0.9876891335970963 0
outer loop
vertex 74.22620359140069 -74.60715054978476 1
vertex 74.53617683328662 -74.55805722212027 0
vertex 74.22620359140059 -74.60715054978479 0
endloop
endfacet
facet normal -0.3090123937599575 0.9510580111132765 0
outer loop
vertex 73.92772654543708 -74.70413002462 1
vertex 74.22620359140069 -74.60715054978476 1
vertex 74.22620359140059 -74.60715054978479 0
endloop
endfacet
facet normal -0.3090123937599575 0.9510580111132765 0
outer loop
vertex 73.92772654543708 -74.70413002462 1
vertex 74.22620359140059 -74.60715054978479 0
vertex 73.92772654543703 -74.70413002462001 0
endloop
endfacet
facet normal -0.4539863962673805 0.8910086149999655 0
outer loop
vertex 73.64809521251597 -74.84660768306139 1
vertex 73.92772654543708 -74.70413002462 1
vertex 73.92772654543703 -74.70413002462001 0
endloop
endfacet
facet normal -0.4539863962673805 0.8910086149999655 0
outer loop
vertex 73.64809521251597 -74.84660768306139 1
vertex 73.92772654543703 -74.70413002462001 0
vertex 73.64809521251593 -74.8466076830614 0
endloop
endfacet
facet normal -0.5877817140598598 0.8090195650395937 0
outer loop
vertex 73.39419506438799 -75.03107524196328 1
vertex 73.64809521251597 -74.84660768306139 1
vertex 73.64809521251593 -74.8466076830614 0
endloop
endfacet
facet normal -0.5877817140598598 0.8090195650395937 0
outer loop
vertex 73.39419506438799 -75.03107524196328 1
vertex 73.64809521251593 -74.8466076830614 0
vertex 73.3941950643881 -75.03107524196318 0
endloop
endfacet
facet normal -0.7071038526630654 0.7071097096979012 0
outer loop
vertex 73.17227798377212 -75.25299048442581 1
vertex 73.39419506438799 -75.03107524196328 1
vertex 73.3941950643881 -75.03107524196318 0
endloop
endfacet
facet normal -0.7071038526630654 0.7071097096979012 0
outer loop
vertex 73.17227798377212 -75.25299048442581 1
vertex 73.3941950643881 -75.03107524196318 0
vertex 73.17227798377206 -75.25299048442588 0
endloop
endfacet
facet normal -0.8090146963582199 0.5877884152281477 0
outer loop
vertex 72.98780832179698 -75.50688910458184 1
vertex 73.17227798377212 -75.25299048442581 1
vertex 73.17227798377206 -75.25299048442588 0
endloop
endfacet
facet normal -0.8090146963582199 0.5877884152281477 0
outer loop
vertex 72.98780832179698 -75.50688910458184 1
vertex 73.17227798377206 -75.25299048442588 0
vertex 72.98780832179695 -75.50688910458187 0
endloop
endfacet
facet normal -0.8910048545555187 0.45399377656362117 0
outer loop
vertex 72.84532834714653 -75.78651925733728 1
vertex 72.98780832179698 -75.50688910458184 1
vertex 72.98780832179695 -75.50688910458187 0
endloop
endfacet
facet normal -0.8910048545555187 0.45399377656362117 0
outer loop
vertex 72.84532834714653 -75.78651925733728 1
vertex 72.98780832179695 -75.50688910458187 0
vertex 72.84532834714655 -75.7865192573372 0
endloop
endfacet
facet normal -0.9510554515006692 0.3090202714561915 0
outer loop
vertex 72.74834639999997 -76.08499550000009 1
vertex 72.84532834714653 -75.78651925733728 1
vertex 72.84532834714655 -75.7865192573372 0
endloop
endfacet
facet normal -0.9510554515006692 0.3090202714561915 0
outer loop
vertex 72.74834639999997 -76.08499550000009 1
vertex 72.84532834714655 -75.7865192573372 0
vertex 72.74834639999999 -76.08499550000005 0
endloop
endfacet
facet normal 0 0 -1
outer loop
vertex 60.4000628 -127.51932720000008 1
vertex 69.01184261165857 -91.64866260332599 1
vertex 69.01332296006485 -91.64249650498981 1
endloop
endfacet
facet normal 0 0 -1
outer loop
vertex 60.4000628 -127.51932720000008 1
vertex 69.01332296006485 -91.64249650498981 1
vertex 69.01775458999471 -91.62403742750445 1
endloop
endfacet
facet normal 0 0 -1
outer loop
vertex 60.4000628 -127.51932720000008 1
vertex 69.01775458999471 -91.62403742750445 1
vertex 69.02510940525556 -91.59340239999997 1
endloop
endfacet
facet normal 0 0 -1
outer loop
vertex 60.4000628 -127.51932720000008 1
vertex 69.02510940525556 -91.59340239999997 1
vertex 72.74834639999997 -76.08499550000009 1
endloop
endfacet
facet normal 0 0 -1
outer loop
vertex 60.4000628 -127.51932720000008 1
vertex 72.74834639999997 -76.08499550000009 1
vertex 72.74834639999999 -76.08499550000005 0
endloop
endfacet
facet normal 0 0 -1
outer loop
vertex 60.4000628 -127.51932720000008 1
vertex 72.74834639999999 -76.08499550000005 0
vertex 69.02510940525556 -91.5934024 0
endloop
endfacet
facet normal 0 0 -1
outer loop
vertex 60.4000628 -127.51932720000008 1
vertex 69.02510940525556 -91.5934024 0
vertex 69.01775458999471 -91.62403742750445 0
endloop
endfacet
facet normal 0 0 -1
outer loop
vertex 60.4000628 -127.51932720000008 1
vertex 69.01775458999471 -91.62403742750445 0
vertex 69.01332296006485 -91.64249650498982 0
endloop
endfacet
facet normal 0 0 -1
outer loop
vertex 60.4000628 -127.51932720000008 1
vertex 69.01332296006485 -91.64249650498982 0
vertex 69.01184280415742 -91.64866180151012 0
endloop
endfacet
facet normal 0 0 -1
outer loop
vertex 60.4000628 -127.51932720000008 1
vertex 69.01184280415742 -91.64866180151012 0
vertex 68.4639150499033 -93.93094643092552 0
endloop
endfacet
facet normal 0 0 -1
outer loop
vertex 60.4000628 -127.51932720000008 1
vertex 68.4639150499033 -93.93094643092552 0
vertex 60.40006279999997 -127.51932720000022 0
endloop
endfacet
facet normal -0.9866526144747682 0.1628392408177605 0
outer loop
vertex 60.35316523440693 -127.80348233037606 1
vertex 60.4000628 -127.51932720000008 1
vertex 60.40006279999997 -127.51932720000022 0
endloop
endfacet
facet normal -0.9866526144747682 0.1628392408177605 0
outer loop
vertex 60.35316523440693 -127.80348233037606 1
vertex 60.40006279999997 -127.51932720000022 0
vertex 60.35316523440693 -127.80348233037599 0
endloop
endfacet
facet normal -0.9998111495065383 0.01943361321048087 0
outer loop
vertex 60.34756830540755 -128.09143043122407 1
vertex 60.35316523440693 -127.80348233037606 1
vertex 60.35316523440693 -127.80348233037599 0
endloop
endfacet
facet normal -0.9998111495065383 0.01943361321048087 0
outer loop
vertex 60.34756830540755 -128.09143043122407 1
vertex 60.35316523440693 -127.80348233037599 0
vertex 60.34756830540755 -128.09143043122413 0
endloop
endfacet
facet normal -0.9922361295715916 -0.12436825629069401 0
outer loop
vertex 60.38338667292862 -128.37719678790987 1
vertex 60.34756830540755 -128.09143043122407 1
vertex 60.34756830540755 -128.09143043122413 0
endloop
endfacet
facet normal -0.9922361295715916 -0.12436825629069401 0
outer loop
vertex 60.38338667292862 -128.37719678790987 1
vertex 60.34756830540755 -128.09143043122413 0
vertex 60.38338667292862 -128.37719678790975 0
endloop
endfacet
facet normal -0.964085745438909 -0.2655911810311161 0
outer loop
vertex 60.4598775944568 -128.6548560029781 1
vertex 60.38338667292862 -128.37719678790987 1
vertex 60.38338667292862 -128.37719678790975 0
endloop
endfacet
facet normal -0.964085745438909 -0.2655911810311161 0
outer loop
vertex 60.4598775944568 -128.6548560029781 1
vertex 60.38338667292862 -128.37719678790975 0
vertex 60.4598775944568 -128.6548560029781 0
endloop
endfacet
facet normal -0.9159437335685499 -0.4013067118009684 0
outer loop
vertex 60.57545492681376 -128.91865007918443 1
vertex 60.4598775944568 -128.6548560029781 1
vertex 60.4598775944568 -128.6548560029781 0
endloop
endfacet
facet normal -0.9159437335685499 -0.4013067118009684 0
outer loop
vertex 60.57545492681376 -128.91865007918443 1
vertex 60.4598775944568 -128.6548560029781 0
vertex 60.57545492681376 -128.91865007918437 0
endloop
endfacet
facet normal -0.8488083839824065 -0.5287006026866016 0
outer loop
vertex 60.7277220169897 -129.16310900752526 1
vertex 60.57545492681376 -128.91865007918443 1
vertex 60.57545492681376 -128.91865007918437 0
endloop
endfacet
facet normal -0.8488083839824065 -0.5287006026866016 0
outer loop
vertex 60.7277220169897 -129.16310900752526 1
vertex 60.57545492681376 -128.91865007918437 0
vertex 60.72772201698976 -129.16310900752535 0
endloop
endfacet
facet normal -0.7640718393640179 -0.6451311682835411 0
outer loop
vertex 60.91352139999995 -129.38316359999993 1
vertex 60.7277220169897 -129.16310900752526 1
vertex 60.72772201698976 -129.16310900752535 0
endloop
endfacet
facet normal -0.7640718393640179 -0.6451311682835411 0
outer loop
vertex 60.91352139999995 -129.38316359999993 1
vertex 60.72772201698976 -129.16310900752535 0
vertex 60.913521399999894 -129.38316359999988 0
endloop
endfacet
facet normal -0.7156405976909577 -0.6984687071992051 0
outer loop
vertex 82.02228169999984 -151.01088389999987 1
vertex 60.91352139999995 -129.38316359999993 1
vertex 60.913521399999894 -129.38316359999988 0
endloop
endfacet
facet normal -0.7156405976909577 -0.6984687071992051 0
outer loop
vertex 82.02228169999984 -151.01088389999987 1
vertex 60.913521399999894 -129.38316359999988 0
vertex 82.02228169999992 -151.01088389999995 0
endloop
endfacet
facet normal -0.6645712469576894 -0.7472249043742465 0
outer loop
vertex 82.23317797494056 -151.19845205999508 1
vertex 82.02228169999984 -151.01088389999987 1
vertex 82.02228169999992 -151.01088389999995 0
endloop
endfacet
facet normal -0.6645712469576894 -0.7472249043742465 0
outer loop
vertex 82.23317797494056 -151.19845205999508 1
vertex 82.02228169999992 -151.01088389999995 0
vertex 82.23317797494047 -151.19845205999502 0
endloop
endfacet
facet normal -0.5527721003981156 -0.8333324696790925 0
outer loop
vertex 82.46837292029377 -151.35446326641787 1
vertex 82.23317797494056 -151.19845205999508 1
vertex 82.23317797494047 -151.19845205999502 0
endloop
endfacet
facet normal -0.5527721003981156 -0.8333324696790925 0
outer loop
vertex 82.46837292029377 -151.35446326641787 1
vertex 82.23317797494047 -151.19845205999502 0
vertex 82.46837292029383 -151.3544632664179 0
endloop
endfacet
facet normal -0.42996376028420946 -0.9028461468280534 0
outer loop
vertex 82.72318700457825 -151.47581375590852 1
vertex 82.46837292029377 -151.35446326641787 1
vertex 82.46837292029383 -151.3544632664179 0
endloop
endfacet
facet normal -0.42996376028420946 -0.9028461468280534 0
outer loop
vertex 82.72318700457825 -151.47581375590852 1
vertex 82.46837292029383 -151.3544632664179 0
vertex 82.7231870045782 -151.4758137559085 0
endloop
endfacet
facet normal -0.2985931047730619 -0.9543805099550092 0
outer loop
vertex 82.99254585000003 -151.56008695 1
vertex 82.72318700457825 -151.47581375590852 1
vertex 82.7231870045782 -151.4758137559085 0
endloop
endfacet
facet normal -0.2985931047730619 -0.9543805099550092 0
outer loop
vertex 82.99254585000003 -151.56008695 1
vertex 82.7231870045782 -151.4758137559085 0
vertex 82.99254585000025 -151.56008695000006 0
endloop
endfacet
facet normal -0.23050435940260147 -0.9730712925045093 0
outer loop
vertex 134.83944201272624 -163.84175189999974 1
vertex 82.99254585000003 -151.56008695 1
vertex 82.99254585000025 -151.56008695000006 0
endloop
endfacet
facet normal -0.23050435940260147 -0.9730712925045093 0
outer loop
vertex 134.83944201272624 -163.84175189999974 1
vertex 82.99254585000025 -151.56008695000006 0
vertex 134.83944201272595 -163.84175189999968 0
endloop
endfacet
facet normal 0 0 1
outer loop
vertex 135.03018637251418 -163.89706641318423 1
vertex 134.83945130000004 -163.8417541 1
vertex 134.83944201272624 -163.84175189999974 1
endloop
endfacet
facet normal 0 0 1
outer loop
vertex 135.03018637251418 -163.89706641318423 1
vertex 134.83944201272624 -163.84175189999974 1
vertex 134.83944201272595 -163.84175189999968 0
endloop
endfacet
facet normal 0 0 1
outer loop
vertex 135.03018637251418 -163.89706641318423 1
vertex 134.83944201272595 -163.84175189999968 0
vertex 135.03018585526664 -163.89706641318423 0
endloop
endfacet
facet normal -0.37241118886882435 -0.9280678350235552 0
outer loop
vertex 135.21449116707814 -163.9710236222131 1
vertex 135.03018637251418 -163.89706641318423 1
vertex 135.03018585526664 -163.89706641318423 0
endloop
endfacet
facet normal -0.37241118886882435 -0.9280678350235552 0
outer loop
vertex 135.21449116707814 -163.9710236222131 1
vertex 135.03018585526664 -163.89706641318423 0
vertex 135.21449153934125 -163.97102362221307 0
endloop
endfacet
facet normal -0.46261405470255557 -0.8865597759833574 0
outer loop
vertex 135.3905528849992 -164.06289389924115 1
vertex 135.21449116707814 -163.9710236222131 1
vertex 135.21449153934125 -163.97102362221307 0
endloop
endfacet
facet normal -0.46261405470255557 -0.8865597759833574 0
outer loop
vertex 135.3905528849992 -164.06289389924115 1
vertex 135.21449153934125 -163.97102362221307 0
vertex 135.39055259753678 -164.0628938992408 0
endloop
endfacet
facet normal -0.5482557883805015 -0.8363107021360392 0
outer loop
vertex 135.55663564999978 -164.1717738000001 1
vertex 135.3905528849992 -164.06289389924115 1
vertex 135.39055259753678 -164.0628938992408 0
endloop
endfacet
facet normal -0.5482557883805015 -0.8363107021360392 0
outer loop
vertex 135.55663564999978 -164.1717738000001 1
vertex 135.39055259753678 -164.0628938992408 0
vertex 135.55663854491848 -164.17177380000047 0
endloop
endfacet
facet normal -0.5890982215509543 -0.808061436628121 0
outer loop
vertex 171.22282740000006 -190.17337190000006 1
vertex 135.55663564999978 -164.1717738000001 1
vertex 135.55663854491848 -164.17177380000047 0
endloop
endfacet
facet normal -0.5890982215509543 -0.808061436628121 0
outer loop
vertex 171.22282740000006 -190.17337190000006 1
vertex 135.55663854491848 -164.17177380000047 0
vertex 171.22282739999983 -190.1733718999999 0
endloop
endfacet
facet normal -0.53706603908492 -0.8435402003826702 0
outer loop
vertex 171.43523724157808 -190.3086092155746 1
vertex 171.22282740000006 -190.17337190000006 1
vertex 171.22282739999983 -190.1733718999999 0
endloop
endfacet
facet normal -0.53706603908492 -0.8435402003826702 0
outer loop
vertex 171.43523724157808 -190.3086092155746 1
vertex 171.22282739999983 -190.1733718999999 0
vertex 171.4352372415781 -190.3086092155746 0
endloop
endfacet
facet normal -0.42680914224499217 -0.9043417252875674 0
outer loop
vertex 171.6629606537598 -190.41608455537656 1
vertex 171.43523724157808 -190.3086092155746 1
vertex 171.4352372415781 -190.3086092155746 0
endloop
endfacet
facet normal -0.42680914224499217 -0.9043417252875674 0
outer loop
vertex 171.6629606537598 -190.41608455537656 1
vertex 171.4352372415781 -190.3086092155746 0
vertex 171.66296065375997 -190.41608455537664 0
endloop
endfacet
facet normal -0.3097903429741667 -0.9508048923937804 0
outer loop
vertex 171.90238401371428 -190.49409324610764 1
vertex 171.6629606537598 -190.41608455537656 1
vertex 171.66296065375997 -190.41608455537664 0
endloop
endfacet
facet normal -0.3097903429741667 -0.9508048923937804 0
outer loop
vertex 171.90238401371428 -190.49409324610764 1
vertex 171.66296065375997 -190.41608455537664 0
vertex 171.9023840137139 -190.49409324610752 0
endloop
endfacet
facet normal -0.1878606773967417 -0.9821956861481511 0
outer loop
vertex 172.14971192840144 -190.5413986764282 1
vertex 171.90238401371428 -190.49409324610764 1
vertex 171.9023840137139 -190.49409324610752 0
endloop
endfacet
facet normal -0.1878606773967417 -0.9821956861481511 0
outer loop
vertex 172.14971192840144 -190.5413986764282 1
vertex 171.9023840137139 -190.49409324610752 0
vertex 172.14971192840187 -190.54139867642826 0
endloop
endfacet
facet normal -0.06295300204001815 -0.9980164926163042 0
outer loop
vertex 172.40102370000028 -190.55724950641363 1
vertex 172.14971192840144 -190.5413986764282 1
vertex 172.14971192840187 -190.54139867642826 0
endloop
endfacet
facet normal -0.06295300204001815 -0.9980164926163042 0
outer loop
vertex 172.40102370000028 -190.55724950641363 1
vertex 172.14971192840187 -190.54139867642826 0
vertex 172.4010237000001 -190.55725095000003 0
endloop
endfacet
facet normal 4.0968473058455857e-8 -0.9999999999999992 0
outer loop
vertex 219.9985775000001 -190.55724950641363 1
vertex 172.40102370000028 -190.55724950641363 1
vertex 172.4010237000001 -190.55725095000003 0
endloop
endfacet
facet normal 4.0968473058455857e-8 -0.9999999999999992 0
outer loop
vertex 219.9985775000001 -190.55724950641363 1
vertex 172.4010237000001 -190.55725095000003 0
vertex 219.9985774999996 -190.55725095000003 0
endloop
endfacet
facet normal 0.06295195992240109 -0.998016558350576 0
outer loop
vertex 220.24988552159837 -190.5413986764282 1
vertex 219.9985775000001 -190.55724950641363 1
vertex 219.9985774999996 -190.55725095000003 0
endloop
endfacet
facet normal 0.06295195992240109 -0.998016558350576 0
outer loop
vertex 220.24988552159837 -190.5413986764282 1
vertex 219.9985774999996 -190.55725095000003 0
vertex 220.24988552159851 -190.54139867642826 0
endloop
endfacet
facet normal 0.18786067739671297 -0.9821956861481567 0
outer loop
vertex 220.49721343628545 -190.49409179610768 1
vertex 220.24988552159837 -190.5413986764282 1
vertex 220.24988552159851 -190.54139867642826 0
endloop
endfacet
facet normal 0.18786067739671297 -0.9821956861481567 0
outer loop
vertex 220.49721343628545 -190.49409179610768 1
vertex 220.24988552159851 -190.54139867642826 0
vertex 220.49721343628542 -190.4940917961077 0
endloop
endfacet
facet normal 0.3097903429741688 -0.9508048923937797 0
outer loop
vertex 220.7366367962401 -190.41608455537656 1
vertex 220.49721343628545 -190.49409179610768 1
vertex 220.49721343628542 -190.4940917961077 0
endloop
endfacet
facet normal 0.3097903429741688 -0.9508048923937797 0
outer loop
vertex 220.7366367962401 -190.41608455537656 1
vertex 220.49721343628542 -190.4940917961077 0
vertex 220.73663679623994 -190.41608455537664 0
endloop
endfacet
facet normal 0.42680914224499217 -0.9043417252875674 0
outer loop
vertex 220.9643602084223 -190.30860776557438 1
vertex 220.7366367962401 -190.41608455537656 1
vertex 220.73663679623994 -190.41608455537664 0
endloop
endfacet
facet normal 0.42680914224499217 -0.9043417252875674 0
outer loop
vertex 220.9643602084223 -190.30860776557438 1
vertex 220.73663679623994 -190.41608455537664 0
vertex 220.96436020842236 -190.30860776557432 0
endloop
endfacet
facet normal 0.537062066841341 -0.8435427294216381 0
outer loop
vertex 221.17677375000002 -190.17336950000004 1
vertex 220.9643602084223 -190.30860776557438 1
vertex 220.96436020842236 -190.30860776557432 0
endloop
endfacet
facet normal 0.537062066841341 -0.8435427294216381 0
outer loop
vertex 221.17677375000002 -190.17336950000004 1
vertex 220.96436020842236 -190.30860776557432 0
vertex 221.17677374999957 -190.17336950000032 0
endloop
endfacet
facet normal 0.5890981935906359 -0.8080614570119341 0
outer loop
vertex 256.84296239999986 -164.1717738000001 1
vertex 221.17677375000002 -190.17336950000004 1
vertex 221.17677374999957 -190.17336950000032 0
endloop
endfacet
facet normal 0.5890981935906359 -0.8080614570119341 0
outer loop
vertex 256.84296239999986 -164.1717738000001 1
vertex 221.17677374999957 -190.17336950000032 0
vertex 256.84296239999935 -164.17177380000047 0
endloop
endfacet
facet normal 0.548253706459546 -0.8363120669662553 0
outer loop
vertex 257.0090489650006 -164.06289389924115 1
vertex 256.84296239999986 -164.1717738000001 1
vertex 256.84296239999935 -164.17177380000047 0
endloop
endfacet
facet normal 0.548253706459546 -0.8363120669662553 0
outer loop
vertex 257.0090489650006 -164.06289389924115 1
vertex 256.84296239999935 -164.17177380000047 0
vertex 257.00904896500117 -164.0628938992408 0
endloop
endfacet
facet normal 0.46261405470255557 -0.8865597759833574 0
outer loop
vertex 257.1851103954599 -163.9710236222131 1
vertex 257.0090489650006 -164.06289389924115 1
vertex 257.00904896500117 -164.0628938992408 0
endloop
endfacet
facet normal 0.46261405470255557 -0.8865597759833574 0
outer loop
vertex 257.1851103954599 -163.9710236222131 1
vertex 257.00904896500117 -164.0628938992408 0
vertex 257.1851106829218 -163.97102362221307 0
endloop
endfacet
facet normal 0.37241118886885377 -0.9280678350235434 0
outer loop
vertex 257.3694158502595 -163.89706641318423 1
vertex 257.1851103954599 -163.9710236222131 1
vertex 257.1851106829218 -163.97102362221307 0
endloop
endfacet
facet normal 0.37241118886885377 -0.9280678350235434 0
outer loop
vertex 257.3694158502595 -163.89706641318423 1
vertex 257.1851106829218 -163.97102362221307 0
vertex 257.3694154774854 -163.89706641318423 0
endloop
endfacet
facet normal 0 0 1
outer loop
vertex 257.560146200001 -163.84175189999974 1
vertex 257.5601386141502 -163.8417541 1
vertex 257.3694158502595 -163.89706641318423 1
endloop
endfacet
facet normal 0 0 1
outer loop
vertex 257.560146200001 -163.84175189999974 1
vertex 257.3694158502595 -163.89706641318423 1
vertex 257.3694154774854 -163.89706641318423 0
endloop
endfacet
facet normal 0 0 1
outer loop
vertex 257.560146200001 -163.84175189999974 1
vertex 257.3694154774854 -163.89706641318423 0
vertex 257.56014620000127 -163.84175189999968 0
endloop
endfacet
facet normal 0.23050429769858727 -0.9730713071211592 0
outer loop
vertex 309.4070471000002 -151.5600892999999 1
vertex 257.560146200001 -163.84175189999974 1
vertex 257.56014620000127 -163.84175189999968 0
endloop
endfacet
facet normal 0.23050429769858727 -0.9730713071211592 0
outer loop
vertex 309.4070471000002 -151.5600892999999 1
vertex 257.56014620000127 -163.84175189999968 0
vertex 309.4070471000004 -151.56008929999987 0
endloop
endfacet
facet normal 0.2986000193035903 -0.9543783466067823 0
outer loop
vertex 309.6764077398495 -151.47581375590852 1
vertex 309.4070471000002 -151.5600892999999 1
vertex 309.4070471000004 -151.56008929999987 0
endloop
endfacet
facet normal 0.2986000193035903 -0.9543783466067823 0
outer loop
vertex 309.6764077398495 -151.47581375590852 1
vertex 309.4070471000004 -151.56008929999987 0
vertex 309.6764077398493 -151.4758137559085 0
endloop
endfacet
facet normal 0.42995475971309877 -0.9028504331283513 0
outer loop
vertex 309.9312271143696 -151.35446326641787 1
vertex 309.6764077398495 -151.47581375590852 1
vertex 309.6764077398493 -151.4758137559085 0
endloop
endfacet
facet normal 0.42995475971309877 -0.9028504331283513 0
outer loop
vertex 309.9312271143696 -151.35446326641787 1
vertex 309.6764077398493 -151.4758137559085 0
vertex 309.9312271143693 -151.3544632664179 0
endloop
endfacet
facet normal 0.5527656806772905 -0.8333367280189754 0
outer loop
vertex 310.16642702789534 -151.19845205999508 1
vertex 309.9312271143696 -151.35446326641787 1
vertex 309.9312271143693 -151.3544632664179 0
endloop
endfacet
facet normal 0.5527656806772905 -0.8333367280189754 0
outer loop
vertex 310.16642702789534 -151.19845205999508 1
vertex 309.9312271143693 -151.3544632664179 0
vertex 310.16642702789585 -151.19845205999502 0
endloop
endfacet
facet normal 0.6645684513743174 -0.7472273907171376 0
outer loop
vertex 310.37732354999974 -151.01088389999987 1
vertex 310.16642702789534 -151.19845205999508 1
vertex 310.16642702789585 -151.19845205999502 0
endloop
endfacet
facet normal 0.6645684513743174 -0.7472273907171376 0
outer loop
vertex 310.37732354999974 -151.01088389999987 1
vertex 310.16642702789585 -151.19845205999502 0
vertex 310.37732355 -151.01088389999995 0
endloop
endfacet
facet normal 0.7156408057669392 -0.6984684940076008 0
outer loop
vertex 331.4860802000004 -129.38315519999952 1
vertex 310.37732354999974 -151.01088389999987 1
vertex 310.37732355 -151.01088389999995 0
endloop
endfacet
facet normal 0.7156408057669392 -0.6984684940076008 0
outer loop
vertex 331.4860802000004 -129.38315519999952 1
vertex 310.37732355 -151.01088389999995 0
vertex 331.4860802000001 -129.3831551999999 0
endloop
endfacet
facet normal 0.7640770399982939 -0.6451250087753888 0
outer loop
vertex 331.6718770244678 -129.16310003898565 1
vertex 331.4860802000004 -129.38315519999952 1
vertex 331.4860802000001 -129.3831551999999 0
endloop
endfacet
facet normal 0.7640770399982939 -0.6451250087753888 0
outer loop
vertex 331.6718770244678 -129.16310003898565 1
vertex 331.4860802000001 -129.3831551999999 0
vertex 331.67187702446785 -129.16310003898568 0
endloop
endfacet
facet normal 0.8488085948386066 -0.528700264164971 0
outer loop
vertex 331.8241423579483 -128.91864371370204 1
vertex 331.6718770244678 -129.16310003898565 1
vertex 331.67187702446785 -129.16310003898568 0
endloop
endfacet
facet normal 0.8488085948386066 -0.528700264164971 0
outer loop
vertex 331.8241423579483 -128.91864371370204 1
vertex 331.67187702446785 -129.16310003898568 0
vertex 331.82414235794823 -128.91864371370227 0
endloop
endfacet
facet normal 0.9159432622754415 -0.401307787480161 0
outer loop
vertex 331.93971874069405 -128.65485264770044 1
vertex 331.8241423579483 -128.91864371370204 1
vertex 331.82414235794823 -128.91864371370227 0
endloop
endfacet
facet normal 0.9159432622754415 -0.401307787480161 0
outer loop
vertex 331.93971874069405 -128.65485264770044 1
vertex 331.82414235794823 -128.91864371370227 0
vertex 331.939718740694 -128.6548526477007 0
endloop
endfacet
facet normal 0.9640850156944423 -0.26559382996117775 0
outer loop
vertex 332.01620959161744 -128.37719678790987 1
vertex 331.93971874069405 -128.65485264770044 1
vertex 331.939718740694 -128.6548526477007 0
endloop
endfacet
facet normal 0.9640850156944423 -0.26559382996117775 0
outer loop
vertex 332.01620959161744 -128.37719678790987 1
vertex 331.939718740694 -128.6548526477007 0
vertex 332.01620959161744 -128.37719678790975 0
endloop
endfacet
facet normal 0.9922355921889376 -0.12437254356757385 0
outer loop
vertex 332.0520288035711 -128.09143358033143 1
vertex 332.01620959161744 -128.37719678790987 1
vertex 332.01620959161744 -128.37719678790975 0
endloop
endfacet
facet normal 0.9922355921889376 -0.12437254356757385 0
outer loop
vertex 332.0520288035711 -128.09143358033143 1
vertex 332.01620959161744 -128.37719678790975 0
vertex 332.05202880357103 -128.09143358033168 0
endloop
endfacet
facet normal 0.9998112640316428 0.01942772028439776 0
outer loop
vertex 332.0464336327184 -127.80348858417133 1
vertex 332.0520288035711 -128.09143358033143 1
vertex 332.05202880357103 -128.09143358033168 0
endloop
endfacet
facet normal 0.9998112640316428 0.01942772028439776 0
outer loop
vertex 332.0464336327184 -127.80348858417133 1
vertex 332.05202880357103 -128.09143358033168 0
vertex 332.04643363271833 -127.8034885841708 0
endloop
endfacet
facet normal 0.9866549427980804 0.1628251327409767 0
outer loop
vertex 331.9995400999999 -127.51933259999939 1
vertex 332.0464336327184 -127.80348858417133 1
vertex 332.04643363271833 -127.8034885841708 0
endloop
endfacet
facet normal 0.9866549427980804 0.1628251327409767 0
outer loop
vertex 331.9995400999999 -127.51933259999939 1
vertex 332.04643363271833 -127.8034885841708 0
vertex 331.99954010000005 -127.51933260000006 0
endloop
endfacet
facet normal 0 0 1
outer loop
vertex 319.65124920000005 -76.0850000000002 1
vertex 323.3744872503263 -91.59340239999997 1
vertex 323.38184206980645 -91.62403742750445 1
endloop
endfacet
facet normal 0 0 1
outer loop
vertex 319.65124920000005 -76.0850000000002 1
vertex 323.38184206980645 -91.62403742750445 1
vertex 323.38627370227863 -91.64249650498981 1
endloop
endfacet
facet normal 0 0 1
outer loop
vertex 319.65124920000005 -76.0850000000002 1
vertex 323.38627370227863 -91.64249650498981 1
vertex 323.38775405153416 -91.64866260332599 1
endloop
endfacet
facet normal 0 0 1
outer loop
vertex 319.65124920000005 -76.0850000000002 1
vertex 323.38775405153416 -91.64866260332599 1
vertex 331.9995400999999 -127.51933259999939 1
endloop
endfacet
facet normal 0 0 1
outer loop
vertex 319.65124920000005 -76.0850000000002 1
vertex 331.9995400999999 -127.51933259999939 1
vertex 331.99954010000005 -127.51933260000006 0
endloop
endfacet
facet normal 0 0 1
outer loop
vertex 319.65124920000005 -76.0850000000002 1
vertex 331.99954010000005 -127.51933260000006 0
vertex 323.93568192762297 -93.93094643092552 0
endloop
endfacet
facet normal 0 0 1
outer loop
vertex 319.65124920000005 -76.0850000000002 1
vertex 323.93568192762297 -93.93094643092552 0
vertex 323.38627370227863 -91.64249650498982 0
endloop
endfacet
facet normal 0 0 1
outer loop
vertex 319.65124920000005 -76.0850000000002 1
vertex 323.38627370227863 -91.64249650498982 0
vertex 323.38184206980645 -91.62403742750445 0
endloop
endfacet
facet normal 0 0 1
outer loop
vertex 319.65124920000005 -76.0850000000002 1
vertex 323.38184206980645 -91.62403742750445 0
vertex 323.3744872503263 -91.5934024 0
endloop
endfacet
facet normal 0 0 1
outer loop
vertex 319.65124920000005 -76.0850000000002 1
vertex 323.3744872503263 -91.5934024 0
vertex 319.6512492 -76.08499999999992 0
endloop
endfacet
facet normal 0.9483195031682615 0.31731706526863857 0
outer loop
vertex 319.54062389831296 -75.75439020110727 1
vertex 319.65124920000005 -76.0850000000002 1
vertex 319.6512492 -76.08499999999992 0
endloop
endfacet
facet normal 0.9483195031682615 0.31731706526863857 0
outer loop
vertex 319.54062389831296 -75.75439020110727 1
vertex 319.6512492 -76.08499999999992 0
vertex 319.5406238983131 -75.75439020110743 0
endloop
endfacet
facet normal 0.8788151844108021 0.47716231163934975 0
outer loop
vertex 319.3742751843138 -75.44801693523168 1
vertex 319.54062389831296 -75.75439020110727 1
vertex 319.5406238983131 -75.75439020110743 0
endloop
endfacet
facet normal 0.8788151844108021 0.47716231163934975 0
outer loop
vertex 319.3742751843138 -75.44801693523168 1
vertex 319.5406238983131 -75.75439020110743 0
vertex 319.37427518431383 -75.44801693523179 0
endloop
endfacet
facet normal 0.7826063148206307 0.6225169523819185 0
outer loop
vertex 319.1572528169861 -75.17518408388828 1
vertex 319.3742751843138 -75.44801693523168 1
vertex 319.37427518431383 -75.44801693523179 0
endloop
endfacet
facet normal 0.7826063148206307 0.6225169523819185 0
outer loop
vertex 319.1572528169861 -75.17518408388828 1
vertex 319.37427518431383 -75.44801693523179 0
vertex 319.157252816986 -75.17518408388818 0
endloop
endfacet
facet normal 0.6626186424780517 0.7489569644782964 0
outer loop
vertex 318.89615082958545 -74.9441814326742 1
vertex 319.1572528169861 -75.17518408388828 1
vertex 319.157252816986 -75.17518408388818 0
endloop
endfacet
facet normal 0.6626186424780517 0.7489569644782964 0
outer loop
vertex 318.89615082958545 -74.9441814326742 1
vertex 319.157252816986 -75.17518408388818 0
vertex 318.89615082958545 -74.94418143267417 0
endloop
endfacet
facet normal 0.5224978869987184 0.8526405796593747 0
outer loop
vertex 318.5989025757521 -74.76202779344204 1
vertex 318.89615082958545 -74.9441814326742 1
vertex 318.89615082958545 -74.94418143267417 0
endloop
endfacet
facet normal 0.5224978869987184 0.8526405796593747 0
outer loop
vertex 318.5989025757521 -74.76202779344204 1
vertex 318.89615082958545 -74.94418143267417 0
vertex 318.59890257575233 -74.76202779344213 0
endloop
endfacet
facet normal 0.36650149397557613 0.9304174627089018 0
outer loop
vertex 318.27453968155714 -74.63425774389184 1
vertex 318.5989025757521 -74.76202779344204 1
vertex 318.59890257575233 -74.76202779344213 0
endloop
endfacet
facet normal 0.36650149397557613 0.9304174627089018 0
outer loop
vertex 318.27453968155714 -74.63425774389184 1
vertex 318.59890257575233 -74.76202779344213 0
vertex 318.2745396815571 -74.63425774389182 0
endloop
endfacet
facet normal 0.19936927624880063 0.9799244316211477 0
outer loop
vertex 317.93291762750886 -74.5647534643082 1
vertex 318.27453968155714 -74.63425774389184 1
vertex 318.2745396815571 -74.63425774389182 0
endloop
endfacet
facet normal 0.19936927624880063 0.9799244316211477 0
outer loop
vertex 317.93291762750886 -74.5647534643082 1
vertex 318.2745396815571 -74.63425774389182 0
vertex 317.93291762750897 -74.56475346430821 0
endloop
endfacet
facet normal 0.02617939887240084 0.9996572608022611 0
outer loop
vertex 317.5844162984684 -74.55562678093555 1
vertex 317.93291762750886 -74.5647534643082 1
vertex 317.93291762750897 -74.56475346430821 0
endloop
endfacet
facet normal 0.02617939887240084 0.9996572608022611 0
outer loop
vertex 317.5844162984684 -74.55562678093555 1
vertex 317.93291762750897 -74.56475346430821 0
vertex 317.5844162984683 -74.55562678093555 0
endloop
endfacet
facet normal -0.14780591645302346 0.9890163856385201 0
outer loop
vertex 317.23962459999973 -74.60715500000006 1
vertex 317.5844162984684 -74.55562678093555 1
vertex 317.5844162984683 -74.55562678093555 0
endloop
endfacet
facet normal -0.14780591645302346 0.9890163856385201 0
outer loop
vertex 317.23962459999973 -74.60715500000006 1
vertex 317.5844162984683 -74.55562678093555 0
vertex 317.2396246 -74.60715499999999 0
endloop
endfacet
facet normal -0.2334452939445274 0.9723699371819109 0
outer loop
vertex 246.48678980000017 -91.59340239999997 1
vertex 317.23962459999973 -74.60715500000006 1
vertex 317.2396246 -74.60715499999999 0
endloop
endfacet
facet normal -0.2334452939445274 0.9723699371819109 0
outer loop
vertex 246.48678980000017 -91.59340239999997 1
vertex 317.2396246 -74.60715499999999 0
vertex 246.4867898 -91.5934024 0
endloop
endfacet
facet normal -0.1950775451360871 0.9807878217961712 0
outer loop
vertex 246.33276663000478 -91.62403742750445 1
vertex 246.48678980000017 -91.59340239999997 1
vertex 246.4867898 -91.5934024 0
endloop
endfacet
facet normal -0.1950775451360871 0.9807878217961712 0
outer loop
vertex 246.33276663000478 -91.62403742750445 1
vertex 246.4867898 -91.5934024 0
vertex 246.33276663000476 -91.62403742750445 0
endloop
endfacet
facet normal -0.1175397269011285 0.9930681812443737 0
outer loop
vertex 246.17681948928737 -91.64249650498981 1
vertex 246.33276663000478 -91.62403742750445 1
vertex 246.33276663000476 -91.62403742750445 0
endloop
endfacet
facet normal -0.1175397269011285 0.9930681812443737 0
outer loop
vertex 246.17681948928737 -91.64249650498981 1
vertex 246.33276663000476 -91.62403742750445 0
vertex 246.17681948928742 -91.64249650498982 0
endloop
endfacet
facet normal -0.03926394936425482 0.9992288738223698 0
outer loop
vertex 246.01989827576008 -91.64866260332599 1
vertex 246.17681948928737 -91.64249650498981 1
vertex 246.17681948928742 -91.64249650498982 0
endloop
endfacet
facet normal -0.03926394936425482 0.9992288738223698 0
outer loop
vertex 246.01989827576008 -91.64866260332599 1
vertex 246.17681948928742 -91.64249650498982 0
vertex 246.01990489999977 -91.64866180151012 0
endloop
endfacet
facet normal -1.4050556274014525e-8 1 0
outer loop
vertex 146.37970240000016 -91.64866260332599 1
vertex 246.01989827576008 -91.64866260332599 1
vertex 246.01990489999977 -91.64866180151012 0
endloop
endfacet
facet normal -1.4050556274014525e-8 1 0
outer loop
vertex 146.37970240000016 -91.64866260332599 1
vertex 246.01990489999977 -91.64866180151012 0
vertex 146.37970240000007 -91.64866180151012 0
endloop
endfacet
facet normal 0.03926483708575291 0.9992288389396241 0
outer loop
vertex 146.22278486522706 -91.64249650498981 1
vertex 146.37970240000016 -91.64866260332599 1
vertex 146.37970240000007 -91.64866180151012 0
endloop
endfacet
facet normal 0.03926483708575291 0.9992288389396241 0
outer loop
vertex 146.22278486522706 -91.64249650498981 1
vertex 146.37970240000007 -91.64866180151012 0
vertex 146.22278490294383 -91.64249650498982 0
endloop
endfacet
facet normal 0.1175347615572803 0.9930687689307691 0
outer loop
vertex 146.06682139809553 -91.62403742750445 1
vertex 146.22278486522706 -91.64249650498981 1
vertex 146.22278490294383 -91.64249650498982 0
endloop
endfacet
facet normal 0.1175347615572803 0.9930687689307691 0
outer loop
vertex 146.06682139809553 -91.62403742750445 1
vertex 146.22278490294383 -91.64249650498982 0
vertex 146.06682139809536 -91.62403742750445 0
endloop
endfacet
facet normal 0.19508923132674022 0.9807854973542083 0
outer loop
vertex 145.91280619999992 -91.59340239999997 1
vertex 146.06682139809553 -91.62403742750445 1
vertex 146.06682139809536 -91.62403742750445 0
endloop
endfacet
facet normal 0.19508923132674022 0.9807854973542083 0
outer loop
vertex 145.91280619999992 -91.59340239999997 1
vertex 146.06682139809536 -91.62403742750445 0
vertex 145.9128120779542 -91.5934024 0
endloop
endfacet
endsolid csg.js
