G04 #@! TF.GenerationSoftware,KiCad,Pcbnew,5.1.5+dfsg1-2build2*
G04 #@! TF.CreationDate,2023-07-29T21:16:49+00:00*
G04 #@! TF.ProjectId,planck_routed,706c616e-636b-45f7-926f-757465642e6b,v1.0.0*
G04 #@! TF.SameCoordinates,Original*
G04 #@! TF.FileFunction,Profile,NP*
%FSLAX46Y46*%
G04 Gerber Fmt 4.6, Leading zero omitted, Abs format (unit mm)*
G04 Created by KiCad (PCBNEW 5.1.5+dfsg1-2build2) date 2023-07-29 21:16:49*
%MOMM*%
%LPD*%
G04 APERTURE LIST*
G04 #@! TA.AperFunction,Profile*
%ADD10C,0.150000*%
G04 #@! TD*
G04 APERTURE END LIST*
D10*
X-8000000Y8500000D02*
X8000000Y8500000D01*
X8666667Y8754644D02*
G75*
G02X8000000Y8500000I-666667J745356D01*
G01*
X8745356Y25166667D02*
G75*
G02X9000000Y24500000I-745356J-666667D01*
G01*
X-9000000Y24500000D02*
G75*
G02X-8745356Y25166667I1000000J0D01*
G01*
X-9000000Y24500000D02*
X-9000000Y9500000D01*
X-8000000Y8500000D02*
G75*
G02X-9000000Y9500000I0J1000000D01*
G01*
X9000000Y26500000D02*
G75*
G02X8745356Y25833333I-1000000J0D01*
G01*
X8745356Y42166667D02*
G75*
G02X9000000Y41500000I-745356J-666667D01*
G01*
X-9000000Y41500000D02*
G75*
G02X-8745356Y42166667I1000000J0D01*
G01*
X-9000000Y41500000D02*
X-9000000Y26500000D01*
X-8745356Y25833333D02*
G75*
G02X-9000000Y26500000I745356J666667D01*
G01*
X9000000Y43500000D02*
G75*
G02X8745356Y42833333I-1000000J0D01*
G01*
X8745356Y59166667D02*
G75*
G02X9000000Y58500000I-745356J-666667D01*
G01*
X-9000000Y58500000D02*
G75*
G02X-8745356Y59166667I1000000J0D01*
G01*
X-9000000Y58500000D02*
X-9000000Y43500000D01*
X-8745356Y42833333D02*
G75*
G02X-9000000Y43500000I745356J666667D01*
G01*
X9000000Y60500000D02*
G75*
G02X8745356Y59833333I-1000000J0D01*
G01*
X8000000Y76500000D02*
G75*
G02X8666667Y76245356I0J-1000000D01*
G01*
X8000000Y76500000D02*
X-8000000Y76500000D01*
X-9000000Y75500000D02*
G75*
G02X-8000000Y76500000I1000000J0D01*
G01*
X-9000000Y75500000D02*
X-9000000Y60500000D01*
X-8745356Y59833333D02*
G75*
G02X-9000000Y60500000I745356J666667D01*
G01*
X10000000Y8500000D02*
X26000000Y8500000D01*
X26666667Y8754644D02*
G75*
G02X26000000Y8500000I-666667J745356D01*
G01*
X26745356Y25166667D02*
G75*
G02X27000000Y24500000I-745356J-666667D01*
G01*
X9000000Y24500000D02*
G75*
G02X9254644Y25166667I1000000J0D01*
G01*
X10000000Y8500000D02*
G75*
G02X9333333Y8754644I0J1000000D01*
G01*
X27000000Y26500000D02*
G75*
G02X26745356Y25833333I-1000000J0D01*
G01*
X26745356Y42166667D02*
G75*
G02X27000000Y41500000I-745356J-666667D01*
G01*
X9000000Y41500000D02*
G75*
G02X9254644Y42166667I1000000J0D01*
G01*
X9254644Y25833333D02*
G75*
G02X9000000Y26500000I745356J666667D01*
G01*
X27000000Y43500000D02*
G75*
G02X26745356Y42833333I-1000000J0D01*
G01*
X26745356Y59166667D02*
G75*
G02X27000000Y58500000I-745356J-666667D01*
G01*
X9000000Y58500000D02*
G75*
G02X9254644Y59166667I1000000J0D01*
G01*
X9254644Y42833333D02*
G75*
G02X9000000Y43500000I745356J666667D01*
G01*
X27000000Y60500000D02*
G75*
G02X26745356Y59833333I-1000000J0D01*
G01*
X26000000Y76500000D02*
G75*
G02X26666667Y76245356I0J-1000000D01*
G01*
X26000000Y76500000D02*
X10000000Y76500000D01*
X9333333Y76245356D02*
G75*
G02X10000000Y76500000I666667J-745356D01*
G01*
X9254644Y59833333D02*
G75*
G02X9000000Y60500000I745356J666667D01*
G01*
X28000000Y8500000D02*
X44000000Y8500000D01*
X44666667Y8754644D02*
G75*
G02X44000000Y8500000I-666667J745356D01*
G01*
X44745356Y25166667D02*
G75*
G02X45000000Y24500000I-745356J-666667D01*
G01*
X27000000Y24500000D02*
G75*
G02X27254644Y25166667I1000000J0D01*
G01*
X28000000Y8500000D02*
G75*
G02X27333333Y8754644I0J1000000D01*
G01*
X45000000Y26500000D02*
G75*
G02X44745356Y25833333I-1000000J0D01*
G01*
X44745356Y42166667D02*
G75*
G02X45000000Y41500000I-745356J-666667D01*
G01*
X27000000Y41500000D02*
G75*
G02X27254644Y42166667I1000000J0D01*
G01*
X27254644Y25833333D02*
G75*
G02X27000000Y26500000I745356J666667D01*
G01*
X45000000Y43500000D02*
G75*
G02X44745356Y42833333I-1000000J0D01*
G01*
X44745356Y59166667D02*
G75*
G02X45000000Y58500000I-745356J-666667D01*
G01*
X27000000Y58500000D02*
G75*
G02X27254644Y59166667I1000000J0D01*
G01*
X27254644Y42833333D02*
G75*
G02X27000000Y43500000I745356J666667D01*
G01*
X45000000Y60500000D02*
G75*
G02X44745356Y59833333I-1000000J0D01*
G01*
X44000000Y76500000D02*
G75*
G02X44666667Y76245356I0J-1000000D01*
G01*
X44000000Y76500000D02*
X28000000Y76500000D01*
X27333333Y76245356D02*
G75*
G02X28000000Y76500000I666667J-745356D01*
G01*
X27254644Y59833333D02*
G75*
G02X27000000Y60500000I745356J666667D01*
G01*
X46000000Y8500000D02*
X62000000Y8500000D01*
X62666667Y8754644D02*
G75*
G02X62000000Y8500000I-666667J745356D01*
G01*
X62745356Y25166667D02*
G75*
G02X63000000Y24500000I-745356J-666667D01*
G01*
X45000000Y24500000D02*
G75*
G02X45254644Y25166667I1000000J0D01*
G01*
X46000000Y8500000D02*
G75*
G02X45333333Y8754644I0J1000000D01*
G01*
X63000000Y26500000D02*
G75*
G02X62745356Y25833333I-1000000J0D01*
G01*
X62745356Y42166667D02*
G75*
G02X63000000Y41500000I-745356J-666667D01*
G01*
X45000000Y41500000D02*
G75*
G02X45254644Y42166667I1000000J0D01*
G01*
X45254644Y25833333D02*
G75*
G02X45000000Y26500000I745356J666667D01*
G01*
X63000000Y43500000D02*
G75*
G02X62745356Y42833333I-1000000J0D01*
G01*
X62745356Y59166667D02*
G75*
G02X63000000Y58500000I-745356J-666667D01*
G01*
X45000000Y58500000D02*
G75*
G02X45254644Y59166667I1000000J0D01*
G01*
X45254644Y42833333D02*
G75*
G02X45000000Y43500000I745356J666667D01*
G01*
X63000000Y60500000D02*
G75*
G02X62745356Y59833333I-1000000J0D01*
G01*
X62000000Y76500000D02*
G75*
G02X62666667Y76245356I0J-1000000D01*
G01*
X62000000Y76500000D02*
X46000000Y76500000D01*
X45333333Y76245356D02*
G75*
G02X46000000Y76500000I666667J-745356D01*
G01*
X45254644Y59833333D02*
G75*
G02X45000000Y60500000I745356J666667D01*
G01*
X64000000Y8500000D02*
X80000000Y8500000D01*
X80666667Y8754644D02*
G75*
G02X80000000Y8500000I-666667J745356D01*
G01*
X80745356Y25166667D02*
G75*
G02X81000000Y24500000I-745356J-666667D01*
G01*
X63000000Y24500000D02*
G75*
G02X63254644Y25166667I1000000J0D01*
G01*
X64000000Y8500000D02*
G75*
G02X63333333Y8754644I0J1000000D01*
G01*
X81000000Y26500000D02*
G75*
G02X80745356Y25833333I-1000000J0D01*
G01*
X80745356Y42166667D02*
G75*
G02X81000000Y41500000I-745356J-666667D01*
G01*
X63000000Y41500000D02*
G75*
G02X63254644Y42166667I1000000J0D01*
G01*
X63254644Y25833333D02*
G75*
G02X63000000Y26500000I745356J666667D01*
G01*
X81000000Y43500000D02*
G75*
G02X80745356Y42833333I-1000000J0D01*
G01*
X80745356Y59166667D02*
G75*
G02X81000000Y58500000I-745356J-666667D01*
G01*
X63000000Y58500000D02*
G75*
G02X63254644Y59166667I1000000J0D01*
G01*
X63254644Y42833333D02*
G75*
G02X63000000Y43500000I745356J666667D01*
G01*
X81000000Y60500000D02*
G75*
G02X80745356Y59833333I-1000000J0D01*
G01*
X80000000Y76500000D02*
G75*
G02X80666667Y76245356I0J-1000000D01*
G01*
X80000000Y76500000D02*
X64000000Y76500000D01*
X63333333Y76245356D02*
G75*
G02X64000000Y76500000I666667J-745356D01*
G01*
X63254644Y59833333D02*
G75*
G02X63000000Y60500000I745356J666667D01*
G01*
X82000000Y8500000D02*
X116000000Y8500000D01*
X81000000Y24500000D02*
G75*
G02X81254644Y25166667I1000000J0D01*
G01*
X82000000Y8500000D02*
G75*
G02X81333333Y8754644I0J1000000D01*
G01*
X98666667Y25754644D02*
G75*
G02X98000000Y25500000I-666667J745356D01*
G01*
X98745356Y42166667D02*
G75*
G02X99000000Y41500000I-745356J-666667D01*
G01*
X81000000Y41500000D02*
G75*
G02X81254644Y42166667I1000000J0D01*
G01*
X81254644Y25833333D02*
G75*
G02X81000000Y26500000I745356J666667D01*
G01*
X99000000Y43500000D02*
G75*
G02X98745356Y42833333I-1000000J0D01*
G01*
X98745356Y59166667D02*
G75*
G02X99000000Y58500000I-745356J-666667D01*
G01*
X81000000Y58500000D02*
G75*
G02X81254644Y59166667I1000000J0D01*
G01*
X81254644Y42833333D02*
G75*
G02X81000000Y43500000I745356J666667D01*
G01*
X99000000Y60500000D02*
G75*
G02X98745356Y59833333I-1000000J0D01*
G01*
X98000000Y76500000D02*
G75*
G02X98666667Y76245356I0J-1000000D01*
G01*
X98000000Y76500000D02*
X82000000Y76500000D01*
X81333333Y76245356D02*
G75*
G02X82000000Y76500000I666667J-745356D01*
G01*
X81254644Y59833333D02*
G75*
G02X81000000Y60500000I745356J666667D01*
G01*
X100000000Y25500000D02*
X98000000Y25500000D01*
X116666667Y8754644D02*
G75*
G02X116000000Y8500000I-666667J745356D01*
G01*
X116745356Y25166667D02*
G75*
G02X117000000Y24500000I-745356J-666667D01*
G01*
X117000000Y26500000D02*
G75*
G02X116745356Y25833333I-1000000J0D01*
G01*
X116745356Y42166667D02*
G75*
G02X117000000Y41500000I-745356J-666667D01*
G01*
X99000000Y41500000D02*
G75*
G02X99254644Y42166667I1000000J0D01*
G01*
X100000000Y25500000D02*
G75*
G02X99333333Y25754644I0J1000000D01*
G01*
X117000000Y43500000D02*
G75*
G02X116745356Y42833333I-1000000J0D01*
G01*
X116745356Y59166667D02*
G75*
G02X117000000Y58500000I-745356J-666667D01*
G01*
X99000000Y58500000D02*
G75*
G02X99254644Y59166667I1000000J0D01*
G01*
X99254644Y42833333D02*
G75*
G02X99000000Y43500000I745356J666667D01*
G01*
X117000000Y60500000D02*
G75*
G02X116745356Y59833333I-1000000J0D01*
G01*
X116000000Y76500000D02*
G75*
G02X116666667Y76245356I0J-1000000D01*
G01*
X116000000Y76500000D02*
X100000000Y76500000D01*
X99333333Y76245356D02*
G75*
G02X100000000Y76500000I666667J-745356D01*
G01*
X99254644Y59833333D02*
G75*
G02X99000000Y60500000I745356J666667D01*
G01*
X118000000Y8500000D02*
X134000000Y8500000D01*
X134666667Y8754644D02*
G75*
G02X134000000Y8500000I-666667J745356D01*
G01*
X134745356Y25166667D02*
G75*
G02X135000000Y24500000I-745356J-666667D01*
G01*
X117000000Y24500000D02*
G75*
G02X117254644Y25166667I1000000J0D01*
G01*
X118000000Y8500000D02*
G75*
G02X117333333Y8754644I0J1000000D01*
G01*
X135000000Y26500000D02*
G75*
G02X134745356Y25833333I-1000000J0D01*
G01*
X134745356Y42166667D02*
G75*
G02X135000000Y41500000I-745356J-666667D01*
G01*
X117000000Y41500000D02*
G75*
G02X117254644Y42166667I1000000J0D01*
G01*
X117254644Y25833333D02*
G75*
G02X117000000Y26500000I745356J666667D01*
G01*
X135000000Y43500000D02*
G75*
G02X134745356Y42833333I-1000000J0D01*
G01*
X134745356Y59166667D02*
G75*
G02X135000000Y58500000I-745356J-666667D01*
G01*
X117000000Y58500000D02*
G75*
G02X117254644Y59166667I1000000J0D01*
G01*
X117254644Y42833333D02*
G75*
G02X117000000Y43500000I745356J666667D01*
G01*
X135000000Y60500000D02*
G75*
G02X134745356Y59833333I-1000000J0D01*
G01*
X134000000Y76500000D02*
G75*
G02X134666667Y76245356I0J-1000000D01*
G01*
X134000000Y76500000D02*
X118000000Y76500000D01*
X117333333Y76245356D02*
G75*
G02X118000000Y76500000I666667J-745356D01*
G01*
X117254644Y59833333D02*
G75*
G02X117000000Y60500000I745356J666667D01*
G01*
X136000000Y8500000D02*
X152000000Y8500000D01*
X152666667Y8754644D02*
G75*
G02X152000000Y8500000I-666667J745356D01*
G01*
X152745356Y25166667D02*
G75*
G02X153000000Y24500000I-745356J-666667D01*
G01*
X135000000Y24500000D02*
G75*
G02X135254644Y25166667I1000000J0D01*
G01*
X136000000Y8500000D02*
G75*
G02X135333333Y8754644I0J1000000D01*
G01*
X153000000Y26500000D02*
G75*
G02X152745356Y25833333I-1000000J0D01*
G01*
X152745356Y42166667D02*
G75*
G02X153000000Y41500000I-745356J-666667D01*
G01*
X135000000Y41500000D02*
G75*
G02X135254644Y42166667I1000000J0D01*
G01*
X135254644Y25833333D02*
G75*
G02X135000000Y26500000I745356J666667D01*
G01*
X153000000Y43500000D02*
G75*
G02X152745356Y42833333I-1000000J0D01*
G01*
X152745356Y59166667D02*
G75*
G02X153000000Y58500000I-745356J-666667D01*
G01*
X135000000Y58500000D02*
G75*
G02X135254644Y59166667I1000000J0D01*
G01*
X135254644Y42833333D02*
G75*
G02X135000000Y43500000I745356J666667D01*
G01*
X153000000Y60500000D02*
G75*
G02X152745356Y59833333I-1000000J0D01*
G01*
X152000000Y76500000D02*
G75*
G02X152666667Y76245356I0J-1000000D01*
G01*
X152000000Y76500000D02*
X136000000Y76500000D01*
X135333333Y76245356D02*
G75*
G02X136000000Y76500000I666667J-745356D01*
G01*
X135254644Y59833333D02*
G75*
G02X135000000Y60500000I745356J666667D01*
G01*
X154000000Y8500000D02*
X170000000Y8500000D01*
X170666667Y8754644D02*
G75*
G02X170000000Y8500000I-666667J745356D01*
G01*
X170745356Y25166667D02*
G75*
G02X171000000Y24500000I-745356J-666667D01*
G01*
X153000000Y24500000D02*
G75*
G02X153254644Y25166667I1000000J0D01*
G01*
X154000000Y8500000D02*
G75*
G02X153333333Y8754644I0J1000000D01*
G01*
X171000000Y26500000D02*
G75*
G02X170745356Y25833333I-1000000J0D01*
G01*
X170745356Y42166667D02*
G75*
G02X171000000Y41500000I-745356J-666667D01*
G01*
X153000000Y41500000D02*
G75*
G02X153254644Y42166667I1000000J0D01*
G01*
X153254644Y25833333D02*
G75*
G02X153000000Y26500000I745356J666667D01*
G01*
X171000000Y43500000D02*
G75*
G02X170745356Y42833333I-1000000J0D01*
G01*
X170745356Y59166667D02*
G75*
G02X171000000Y58500000I-745356J-666667D01*
G01*
X153000000Y58500000D02*
G75*
G02X153254644Y59166667I1000000J0D01*
G01*
X153254644Y42833333D02*
G75*
G02X153000000Y43500000I745356J666667D01*
G01*
X171000000Y60500000D02*
G75*
G02X170745356Y59833333I-1000000J0D01*
G01*
X170000000Y76500000D02*
G75*
G02X170666667Y76245356I0J-1000000D01*
G01*
X170000000Y76500000D02*
X154000000Y76500000D01*
X153333333Y76245356D02*
G75*
G02X154000000Y76500000I666667J-745356D01*
G01*
X153254644Y59833333D02*
G75*
G02X153000000Y60500000I745356J666667D01*
G01*
X172000000Y8500000D02*
X188000000Y8500000D01*
X188666667Y8754644D02*
G75*
G02X188000000Y8500000I-666667J745356D01*
G01*
X188745356Y25166667D02*
G75*
G02X189000000Y24500000I-745356J-666667D01*
G01*
X171000000Y24500000D02*
G75*
G02X171254644Y25166667I1000000J0D01*
G01*
X172000000Y8500000D02*
G75*
G02X171333333Y8754644I0J1000000D01*
G01*
X189000000Y26500000D02*
G75*
G02X188745356Y25833333I-1000000J0D01*
G01*
X188745356Y42166667D02*
G75*
G02X189000000Y41500000I-745356J-666667D01*
G01*
X171000000Y41500000D02*
G75*
G02X171254644Y42166667I1000000J0D01*
G01*
X171254644Y25833333D02*
G75*
G02X171000000Y26500000I745356J666667D01*
G01*
X189000000Y43500000D02*
G75*
G02X188745356Y42833333I-1000000J0D01*
G01*
X188745356Y59166667D02*
G75*
G02X189000000Y58500000I-745356J-666667D01*
G01*
X171000000Y58500000D02*
G75*
G02X171254644Y59166667I1000000J0D01*
G01*
X171254644Y42833333D02*
G75*
G02X171000000Y43500000I745356J666667D01*
G01*
X189000000Y60500000D02*
G75*
G02X188745356Y59833333I-1000000J0D01*
G01*
X188000000Y76500000D02*
G75*
G02X188666667Y76245356I0J-1000000D01*
G01*
X188000000Y76500000D02*
X172000000Y76500000D01*
X171333333Y76245356D02*
G75*
G02X172000000Y76500000I666667J-745356D01*
G01*
X171254644Y59833333D02*
G75*
G02X171000000Y60500000I745356J666667D01*
G01*
X190000000Y8500000D02*
X206000000Y8500000D01*
X207000000Y9500000D02*
G75*
G02X206000000Y8500000I-1000000J0D01*
G01*
X207000000Y9500000D02*
X207000000Y24500000D01*
X206745356Y25166667D02*
G75*
G02X207000000Y24500000I-745356J-666667D01*
G01*
X189000000Y24500000D02*
G75*
G02X189254644Y25166667I1000000J0D01*
G01*
X190000000Y8500000D02*
G75*
G02X189333333Y8754644I0J1000000D01*
G01*
X207000000Y26500000D02*
G75*
G02X206745356Y25833333I-1000000J0D01*
G01*
X207000000Y26500000D02*
X207000000Y41500000D01*
X206745356Y42166667D02*
G75*
G02X207000000Y41500000I-745356J-666667D01*
G01*
X189000000Y41500000D02*
G75*
G02X189254644Y42166667I1000000J0D01*
G01*
X189254644Y25833333D02*
G75*
G02X189000000Y26500000I745356J666667D01*
G01*
X207000000Y43500000D02*
G75*
G02X206745356Y42833333I-1000000J0D01*
G01*
X207000000Y43500000D02*
X207000000Y58500000D01*
X206745356Y59166667D02*
G75*
G02X207000000Y58500000I-745356J-666667D01*
G01*
X189000000Y58500000D02*
G75*
G02X189254644Y59166667I1000000J0D01*
G01*
X189254644Y42833333D02*
G75*
G02X189000000Y43500000I745356J666667D01*
G01*
X207000000Y60500000D02*
G75*
G02X206745356Y59833333I-1000000J0D01*
G01*
X207000000Y60500000D02*
X207000000Y75500000D01*
X206000000Y76500000D02*
G75*
G02X207000000Y75500000I0J-1000000D01*
G01*
X206000000Y76500000D02*
X190000000Y76500000D01*
X189333333Y76245356D02*
G75*
G02X190000000Y76500000I666667J-745356D01*
G01*
X189254644Y59833333D02*
G75*
G02X189000000Y60500000I745356J666667D01*
G01*
X8666666Y8754644D02*
G75*
G02X9333333Y8754644I333334J-372678D01*
G01*
X26666666Y8754644D02*
G75*
G02X27333333Y8754644I333334J-372678D01*
G01*
X44666666Y8754644D02*
G75*
G02X45333333Y8754644I333334J-372678D01*
G01*
X62666666Y8754644D02*
G75*
G02X63333333Y8754644I333334J-372678D01*
G01*
X80666666Y8754644D02*
G75*
G02X81333333Y8754644I333334J-372678D01*
G01*
X116666666Y8754644D02*
G75*
G02X117333333Y8754644I333334J-372678D01*
G01*
X134666666Y8754644D02*
G75*
G02X135333333Y8754644I333334J-372678D01*
G01*
X152666666Y8754644D02*
G75*
G02X153333333Y8754644I333334J-372678D01*
G01*
X170666666Y8754644D02*
G75*
G02X171333333Y8754644I333334J-372678D01*
G01*
X188666666Y8754644D02*
G75*
G02X189333333Y8754644I333334J-372678D01*
G01*
X206745356Y25166666D02*
G75*
G02X206745356Y25833333I372678J333334D01*
G01*
X206745356Y42166666D02*
G75*
G02X206745356Y42833333I372678J333334D01*
G01*
X206745356Y59166666D02*
G75*
G02X206745356Y59833333I372678J333334D01*
G01*
X189333334Y76245356D02*
G75*
G02X188666667Y76245356I-333334J372678D01*
G01*
X171333334Y76245356D02*
G75*
G02X170666667Y76245356I-333334J372678D01*
G01*
X153333334Y76245356D02*
G75*
G02X152666667Y76245356I-333334J372678D01*
G01*
X135333334Y76245356D02*
G75*
G02X134666667Y76245356I-333334J372678D01*
G01*
X117333334Y76245356D02*
G75*
G02X116666667Y76245356I-333334J372678D01*
G01*
X99333334Y76245356D02*
G75*
G02X98666667Y76245356I-333334J372678D01*
G01*
X81333334Y76245356D02*
G75*
G02X80666667Y76245356I-333334J372678D01*
G01*
X63333334Y76245356D02*
G75*
G02X62666667Y76245356I-333334J372678D01*
G01*
X45333334Y76245356D02*
G75*
G02X44666667Y76245356I-333334J372678D01*
G01*
X27333334Y76245356D02*
G75*
G02X26666667Y76245356I-333334J372678D01*
G01*
X9333334Y76245356D02*
G75*
G02X8666667Y76245356I-333334J372678D01*
G01*
X-8745356Y59833334D02*
G75*
G02X-8745356Y59166667I-372678J-333334D01*
G01*
X-8745356Y42833334D02*
G75*
G02X-8745356Y42166667I-372678J-333334D01*
G01*
X-8745356Y25833334D02*
G75*
G02X-8745356Y25166667I-372678J-333334D01*
G01*
X8745356Y25166666D02*
G75*
G02X8745356Y25833333I372678J333334D01*
G01*
X9254644Y25833334D02*
G75*
G02X9254644Y25166667I-372678J-333334D01*
G01*
X8745356Y42166666D02*
G75*
G02X8745356Y42833333I372678J333334D01*
G01*
X9254644Y42833334D02*
G75*
G02X9254644Y42166667I-372678J-333334D01*
G01*
X8745356Y59166666D02*
G75*
G02X8745356Y59833333I372678J333334D01*
G01*
X9254644Y59833334D02*
G75*
G02X9254644Y59166667I-372678J-333334D01*
G01*
X26745356Y25166666D02*
G75*
G02X26745356Y25833333I372678J333334D01*
G01*
X27254644Y25833334D02*
G75*
G02X27254644Y25166667I-372678J-333334D01*
G01*
X26745356Y42166666D02*
G75*
G02X26745356Y42833333I372678J333334D01*
G01*
X27254644Y42833334D02*
G75*
G02X27254644Y42166667I-372678J-333334D01*
G01*
X26745356Y59166666D02*
G75*
G02X26745356Y59833333I372678J333334D01*
G01*
X27254644Y59833334D02*
G75*
G02X27254644Y59166667I-372678J-333334D01*
G01*
X44745356Y25166666D02*
G75*
G02X44745356Y25833333I372678J333334D01*
G01*
X45254644Y25833334D02*
G75*
G02X45254644Y25166667I-372678J-333334D01*
G01*
X44745356Y42166666D02*
G75*
G02X44745356Y42833333I372678J333334D01*
G01*
X45254644Y42833334D02*
G75*
G02X45254644Y42166667I-372678J-333334D01*
G01*
X44745356Y59166666D02*
G75*
G02X44745356Y59833333I372678J333334D01*
G01*
X45254644Y59833334D02*
G75*
G02X45254644Y59166667I-372678J-333334D01*
G01*
X62745356Y25166666D02*
G75*
G02X62745356Y25833333I372678J333334D01*
G01*
X63254644Y25833334D02*
G75*
G02X63254644Y25166667I-372678J-333334D01*
G01*
X62745356Y42166666D02*
G75*
G02X62745356Y42833333I372678J333334D01*
G01*
X63254644Y42833334D02*
G75*
G02X63254644Y42166667I-372678J-333334D01*
G01*
X62745356Y59166666D02*
G75*
G02X62745356Y59833333I372678J333334D01*
G01*
X63254644Y59833334D02*
G75*
G02X63254644Y59166667I-372678J-333334D01*
G01*
X80745356Y25166666D02*
G75*
G02X80745356Y25833333I372678J333334D01*
G01*
X81254644Y25833334D02*
G75*
G02X81254644Y25166667I-372678J-333334D01*
G01*
X80745356Y42166666D02*
G75*
G02X80745356Y42833333I372678J333334D01*
G01*
X81254644Y42833334D02*
G75*
G02X81254644Y42166667I-372678J-333334D01*
G01*
X80745356Y59166666D02*
G75*
G02X80745356Y59833333I372678J333334D01*
G01*
X81254644Y59833334D02*
G75*
G02X81254644Y59166667I-372678J-333334D01*
G01*
X98745356Y42166666D02*
G75*
G02X98745356Y42833333I372678J333334D01*
G01*
X99254644Y42833334D02*
G75*
G02X99254644Y42166667I-372678J-333334D01*
G01*
X98745356Y59166666D02*
G75*
G02X98745356Y59833333I372678J333334D01*
G01*
X99254644Y59833334D02*
G75*
G02X99254644Y59166667I-372678J-333334D01*
G01*
X116745356Y25166666D02*
G75*
G02X116745356Y25833333I372678J333334D01*
G01*
X117254644Y25833334D02*
G75*
G02X117254644Y25166667I-372678J-333334D01*
G01*
X116745356Y42166666D02*
G75*
G02X116745356Y42833333I372678J333334D01*
G01*
X117254644Y42833334D02*
G75*
G02X117254644Y42166667I-372678J-333334D01*
G01*
X116745356Y59166666D02*
G75*
G02X116745356Y59833333I372678J333334D01*
G01*
X117254644Y59833334D02*
G75*
G02X117254644Y59166667I-372678J-333334D01*
G01*
X134745356Y25166666D02*
G75*
G02X134745356Y25833333I372678J333334D01*
G01*
X135254644Y25833334D02*
G75*
G02X135254644Y25166667I-372678J-333334D01*
G01*
X134745356Y42166666D02*
G75*
G02X134745356Y42833333I372678J333334D01*
G01*
X135254644Y42833334D02*
G75*
G02X135254644Y42166667I-372678J-333334D01*
G01*
X134745356Y59166666D02*
G75*
G02X134745356Y59833333I372678J333334D01*
G01*
X135254644Y59833334D02*
G75*
G02X135254644Y59166667I-372678J-333334D01*
G01*
X152745356Y25166666D02*
G75*
G02X152745356Y25833333I372678J333334D01*
G01*
X153254644Y25833334D02*
G75*
G02X153254644Y25166667I-372678J-333334D01*
G01*
X152745356Y42166666D02*
G75*
G02X152745356Y42833333I372678J333334D01*
G01*
X153254644Y42833334D02*
G75*
G02X153254644Y42166667I-372678J-333334D01*
G01*
X152745356Y59166666D02*
G75*
G02X152745356Y59833333I372678J333334D01*
G01*
X153254644Y59833334D02*
G75*
G02X153254644Y59166667I-372678J-333334D01*
G01*
X170745356Y25166666D02*
G75*
G02X170745356Y25833333I372678J333334D01*
G01*
X171254644Y25833334D02*
G75*
G02X171254644Y25166667I-372678J-333334D01*
G01*
X170745356Y42166666D02*
G75*
G02X170745356Y42833333I372678J333334D01*
G01*
X171254644Y42833334D02*
G75*
G02X171254644Y42166667I-372678J-333334D01*
G01*
X170745356Y59166666D02*
G75*
G02X170745356Y59833333I372678J333334D01*
G01*
X171254644Y59833334D02*
G75*
G02X171254644Y59166667I-372678J-333334D01*
G01*
X188745356Y25166666D02*
G75*
G02X188745356Y25833333I372678J333334D01*
G01*
X189254644Y25833334D02*
G75*
G02X189254644Y25166667I-372678J-333334D01*
G01*
X188745356Y42166666D02*
G75*
G02X188745356Y42833333I372678J333334D01*
G01*
X189254644Y42833334D02*
G75*
G02X189254644Y42166667I-372678J-333334D01*
G01*
X188745356Y59166666D02*
G75*
G02X188745356Y59833333I372678J333334D01*
G01*
X189254644Y59833334D02*
G75*
G02X189254644Y59166667I-372678J-333334D01*
G01*
X98666666Y25754644D02*
G75*
G02X99333333Y25754644I333334J-372678D01*
G01*
M02*
