M48
; DRILL file {KiCad 5.1.5+dfsg1-2build2} date Sat Jul 29 21:16:49 2023
; FORMAT={-:-/ absolute / metric / decimal}
; #@! TF.CreationDate,2023-07-29T21:16:49+00:00
; #@! TF.GenerationSoftware,Kicad,Pcbnew,5.1.5+dfsg1-2build2
FMAT,2
METRIC
T1C0.400
T2C0.750
T3C0.991
T4C1.092
T5C1.270
T6C0.900
T7C1.702
T8C3.429
%
G90
G05
T1
X91.955Y13.733
X98.401Y21.5
X99.701Y13.737
X108.023Y45.918
T2
X62.0Y42.5
X64.0Y42.5
T3
X122.19Y12.5
X129.81Y12.5
X50.19Y12.5
X57.81Y12.5
X158.19Y46.5
X165.81Y46.5
X-3.81Y46.5
X3.81Y46.5
X14.19Y29.5
X21.81Y29.5
X68.19Y63.5
X75.81Y63.5
X122.19Y63.5
X129.81Y63.5
X50.19Y63.5
X57.81Y63.5
X194.19Y29.5
X201.81Y29.5
X194.19Y12.5
X201.81Y12.5
X176.19Y46.5
X183.81Y46.5
X104.19Y12.5
X111.81Y12.5
X86.19Y46.5
X93.81Y46.5
X104.19Y63.5
X111.81Y63.5
X32.19Y12.5
X39.81Y12.5
X140.19Y46.5
X147.81Y46.5
X68.19Y46.5
X75.81Y46.5
X32.19Y63.5
X39.81Y63.5
X176.19Y29.5
X183.81Y29.5
X158.19Y29.5
X165.81Y29.5
X14.19Y12.5
X21.81Y12.5
X122.19Y46.5
X129.81Y46.5
X50.19Y46.5
X57.81Y46.5
X-3.81Y29.5
X3.81Y29.5
X14.19Y63.5
X21.81Y63.5
X86.19Y29.5
X93.81Y29.5
X140.19Y29.5
X147.81Y29.5
X194.19Y63.5
X201.81Y63.5
X104.19Y46.5
X111.81Y46.5
X95.19Y21.5
X102.81Y21.5
X68.19Y29.5
X75.81Y29.5
X32.19Y46.5
X39.81Y46.5
X176.19Y12.5
X183.81Y12.5
X158.19Y12.5
X165.81Y12.5
X-3.81Y63.5
X3.81Y63.5
X122.19Y29.5
X129.81Y29.5
X50.19Y29.5
X57.81Y29.5
X158.19Y63.5
X165.81Y63.5
X14.19Y46.5
X21.81Y46.5
X86.19Y12.5
X93.81Y12.5
X140.19Y12.5
X147.81Y12.5
X68.19Y12.5
X75.81Y12.5
X194.19Y46.5
X201.81Y46.5
X176.19Y63.5
X183.81Y63.5
X104.19Y29.5
X111.81Y29.5
X86.19Y63.5
X93.81Y63.5
X-3.81Y12.5
X3.81Y12.5
X32.19Y29.5
X39.81Y29.5
X140.19Y63.5
X147.81Y63.5
T4
X85.03Y76.62
X85.03Y61.38
X87.57Y76.62
X87.57Y61.38
X90.11Y76.62
X90.11Y61.38
X92.65Y76.62
X92.65Y61.38
X95.19Y76.62
X95.19Y61.38
X97.73Y76.62
X97.73Y61.38
X100.27Y76.62
X100.27Y61.38
X102.81Y76.62
X102.81Y61.38
X105.35Y76.62
X105.35Y61.38
X107.89Y76.62
X107.89Y61.38
X110.43Y76.62
X110.43Y61.38
X112.97Y76.62
X112.97Y61.38
T5
X126.0Y39.9
X131.0Y37.8
X18.0Y39.9
X23.0Y37.8
X108.0Y22.9
X113.0Y20.8
X180.0Y73.9
X185.0Y71.8
X90.0Y22.9
X95.0Y20.8
X144.0Y39.9
X149.0Y37.8
X36.0Y39.9
X41.0Y37.8
X54.0Y39.9
X59.0Y37.8
X198.0Y73.9
X203.0Y71.8
X0.0Y56.9
X5.0Y54.8
X94.0Y13.2
X99.0Y11.1
X162.0Y39.9
X167.0Y37.8
X72.0Y39.9
X77.0Y37.8
X108.0Y56.9
X113.0Y54.8
X126.0Y56.9
X131.0Y54.8
X18.0Y56.9
X23.0Y54.8
X180.0Y22.9
X185.0Y20.8
X198.0Y22.9
X203.0Y20.8
X90.0Y39.9
X95.0Y37.8
X144.0Y56.9
X149.0Y54.8
X36.0Y56.9
X41.0Y54.8
X0.0Y73.9
X5.0Y71.8
X18.0Y73.9
X23.0Y71.8
X162.0Y56.9
X167.0Y54.8
X54.0Y56.9
X59.0Y54.8
X108.0Y73.9
X113.0Y71.8
X180.0Y39.9
X185.0Y37.8
X0.0Y22.9
X5.0Y20.8
X72.0Y56.9
X77.0Y54.8
X90.0Y56.9
X95.0Y54.8
X126.0Y73.9
X131.0Y71.8
X36.0Y73.9
X41.0Y71.8
X198.0Y39.9
X203.0Y37.8
X36.0Y22.9
X41.0Y20.8
X144.0Y73.9
X149.0Y71.8
X162.0Y73.9
X167.0Y71.8
X54.0Y73.9
X59.0Y71.8
X126.0Y22.9
X131.0Y20.8
X18.0Y22.9
X23.0Y20.8
X180.0Y56.9
X185.0Y54.8
X0.0Y39.9
X5.0Y37.8
X72.0Y73.9
X77.0Y71.8
X144.0Y22.9
X149.0Y20.8
X54.0Y22.9
X59.0Y20.8
X198.0Y56.9
X203.0Y54.8
X108.0Y39.9
X113.0Y37.8
X90.0Y73.9
X95.0Y71.8
X162.0Y22.9
X167.0Y20.8
X72.0Y22.9
X77.0Y20.8
T6
X61.5Y76.95
X64.5Y76.95
T7
X156.5Y51.0
X167.5Y51.0
X48.5Y51.0
X59.5Y51.0
X102.5Y68.0
X113.5Y68.0
X174.5Y34.0
X185.5Y34.0
X-5.5Y17.0
X5.5Y17.0
X66.5Y51.0
X77.5Y51.0
X84.5Y51.0
X95.5Y51.0
X120.5Y68.0
X131.5Y68.0
X30.5Y68.0
X41.5Y68.0
X192.5Y34.0
X203.5Y34.0
X30.5Y17.0
X41.5Y17.0
X138.5Y68.0
X149.5Y68.0
X156.5Y68.0
X167.5Y68.0
X48.5Y68.0
X59.5Y68.0
X120.5Y17.0
X131.5Y17.0
X12.5Y17.0
X23.5Y17.0
X174.5Y51.0
X185.5Y51.0
X-5.5Y34.0
X5.5Y34.0
X66.5Y68.0
X77.5Y68.0
X138.5Y17.0
X149.5Y17.0
X48.5Y17.0
X59.5Y17.0
X192.5Y51.0
X203.5Y51.0
X102.5Y34.0
X113.5Y34.0
X84.5Y68.0
X95.5Y68.0
X156.5Y17.0
X167.5Y17.0
X66.5Y17.0
X77.5Y17.0
X120.5Y34.0
X131.5Y34.0
X12.5Y34.0
X23.5Y34.0
X102.5Y17.0
X113.5Y17.0
X174.5Y68.0
X185.5Y68.0
X84.5Y17.0
X95.5Y17.0
X138.5Y34.0
X149.5Y34.0
X30.5Y34.0
X41.5Y34.0
X48.5Y34.0
X59.5Y34.0
X192.5Y68.0
X203.5Y68.0
X-5.5Y51.0
X5.5Y51.0
X93.5Y17.0
X104.5Y17.0
X156.5Y34.0
X167.5Y34.0
X66.5Y34.0
X77.5Y34.0
X102.5Y51.0
X113.5Y51.0
X120.5Y51.0
X131.5Y51.0
X12.5Y51.0
X23.5Y51.0
X174.5Y17.0
X185.5Y17.0
X192.5Y17.0
X203.5Y17.0
X84.5Y34.0
X95.5Y34.0
X138.5Y51.0
X149.5Y51.0
X30.5Y51.0
X41.5Y51.0
X-5.5Y68.0
X5.5Y68.0
X12.5Y68.0
X23.5Y68.0
T8
X144.0Y68.0
X162.0Y68.0
X54.0Y68.0
X126.0Y17.0
X18.0Y17.0
X180.0Y51.0
X0.0Y34.0
X72.0Y68.0
X144.0Y17.0
X54.0Y17.0
X198.0Y51.0
X108.0Y34.0
X90.0Y68.0
X162.0Y17.0
X72.0Y17.0
X126.0Y34.0
X18.0Y34.0
X108.0Y17.0
X180.0Y68.0
X90.0Y17.0
X144.0Y34.0
X36.0Y34.0
X54.0Y34.0
X198.0Y68.0
X0.0Y51.0
X99.0Y17.0
X162.0Y34.0
X72.0Y34.0
X108.0Y51.0
X126.0Y51.0
X18.0Y51.0
X180.0Y17.0
X198.0Y17.0
X90.0Y34.0
X144.0Y51.0
X36.0Y51.0
X0.0Y68.0
X18.0Y68.0
X162.0Y51.0
X54.0Y51.0
X108.0Y68.0
X180.0Y34.0
X0.0Y17.0
X72.0Y51.0
X90.0Y51.0
X126.0Y68.0
X36.0Y68.0
X198.0Y34.0
X36.0Y17.0
T0
M30
